<svg width="41" height="42" viewBox="0 0 41 42" fill="none" xmlns="http://www.w3.org/2000/svg">
<rect width="41" height="42" rx="10" fill="#17AAEF"/>
<path fill-rule="evenodd" clip-rule="evenodd" d="M17 21V7H19V19.234L22.486 17.14C22.6413 17.0469 22.819 16.9978 23 16.9978C23.1811 16.9978 23.3587 17.0469 23.514 17.14L27 19.234V7H29V21C29 21.1769 28.9531 21.3507 28.8641 21.5036C28.775 21.6565 28.647 21.783 28.493 21.8702C28.3391 21.9575 28.1648 22.0023 27.9879 22.0001C27.811 21.998 27.6378 21.9489 27.486 21.858L23 19.166L18.514 21.86C18.3621 21.951 18.1887 22.0001 18.0116 22.0021C17.8345 22.0042 17.6601 21.9592 17.5061 21.8717C17.3521 21.7842 17.2241 21.6575 17.1352 21.5043C17.0463 21.3511 16.9996 21.1771 17 21Z" fill="black"/>
<path d="M11 5H31C32.0609 5 33.0783 5.42143 33.8284 6.17157C34.5786 6.92172 35 7.93913 35 9V33C35 34.0609 34.5786 35.0783 33.8284 35.8284C33.0783 36.5786 32.0609 37 31 37H11C9.93913 37 8.92172 36.5786 8.17157 35.8284C7.42143 35.0783 7 34.0609 7 33V31H9V33C9 33.5304 9.21071 34.0391 9.58579 34.4142C9.96086 34.7893 10.4696 35 11 35H31C31.5304 35 32.0391 34.7893 32.4142 34.4142C32.7893 34.0391 33 33.5304 33 33V9C33 8.46957 32.7893 7.96086 32.4142 7.58579C32.0391 7.21071 31.5304 7 31 7H11C10.4696 7 9.96086 7.21071 9.58579 7.58579C9.21071 7.96086 9 8.46957 9 9V11H7V9C7 7.93913 7.42143 6.92172 8.17157 6.17157C8.92172 5.42143 9.93913 5 11 5Z" fill="black"/>
<path d="M7 15V14C7 13.7348 7.10536 13.4804 7.29289 13.2929C7.48043 13.1054 7.73478 13 8 13C8.26522 13 8.51957 13.1054 8.70711 13.2929C8.89464 13.4804 9 13.7348 9 14V15H10C10.2652 15 10.5196 15.1054 10.7071 15.2929C10.8946 15.4804 11 15.7348 11 16C11 16.2652 10.8946 16.5196 10.7071 16.7071C10.5196 16.8946 10.2652 17 10 17H6C5.73478 17 5.48043 16.8946 5.29289 16.7071C5.10536 16.5196 5 16.2652 5 16C5 15.7348 5.10536 15.4804 5.29289 15.2929C5.48043 15.1054 5.73478 15 6 15H7ZM7 21V20C7 19.7348 7.10536 19.4804 7.29289 19.2929C7.48043 19.1054 7.73478 19 8 19C8.26522 19 8.51957 19.1054 8.70711 19.2929C8.89464 19.4804 9 19.7348 9 20V21H10C10.2652 21 10.5196 21.1054 10.7071 21.2929C10.8946 21.4804 11 21.7348 11 22C11 22.2652 10.8946 22.5196 10.7071 22.7071C10.5196 22.8946 10.2652 23 10 23H6C5.73478 23 5.48043 22.8946 5.29289 22.7071C5.10536 22.5196 5 22.2652 5 22C5 21.7348 5.10536 21.4804 5.29289 21.2929C5.48043 21.1054 5.73478 21 6 21H7ZM7 27V26C7 25.7348 7.10536 25.4804 7.29289 25.2929C7.48043 25.1054 7.73478 25 8 25C8.26522 25 8.51957 25.1054 8.70711 25.2929C8.89464 25.4804 9 25.7348 9 26V27H10C10.2652 27 10.5196 27.1054 10.7071 27.2929C10.8946 27.4804 11 27.7348 11 28C11 28.2652 10.8946 28.5196 10.7071 28.7071C10.5196 28.8946 10.2652 29 10 29H6C5.73478 29 5.48043 28.8946 5.29289 28.7071C5.10536 28.5196 5 28.2652 5 28C5 27.7348 5.10536 27.4804 5.29289 27.2929C5.48043 27.1054 5.73478 27 6 27H7Z" fill="black"/>
</svg>
