<svg width="41" height="42" viewBox="0 0 41 42" fill="none" xmlns="http://www.w3.org/2000/svg">
<rect width="41" height="42" rx="10" fill="#17AAEF"/>
<path d="M26.5253 24.6781C28.1582 22.4078 28.8609 19.6142 28.4928 16.8565C28.1247 14.0987 26.713 11.5801 24.54 9.80451C22.367 8.0289 19.5931 7.12725 16.7732 7.27996C13.9533 7.43266 11.2953 8.62845 9.33108 10.6281C7.36685 12.6277 6.2412 15.2838 6.17934 18.0648C6.11748 20.8458 7.12397 23.5468 8.99744 25.6273C10.8709 27.7078 13.4732 29.0144 16.2837 29.2857C19.0942 29.5571 21.9056 28.7731 24.1555 27.0907L24.1538 27.0907C24.2054 27.1578 24.2628 27.222 24.3259 27.2832L31.0678 33.7126C31.3962 34.026 31.8375 34.198 32.2948 34.1908C32.7521 34.1835 33.1878 33.9977 33.5061 33.6741C33.8244 33.3505 33.9992 32.9157 33.9921 32.4653C33.985 32.0149 33.7966 31.5858 33.4682 31.2725L26.7262 24.843C26.6637 24.7825 26.5965 24.7285 26.5253 24.6781ZM26.8647 18.1444C26.8845 19.3707 26.6589 20.589 26.2007 21.7296C25.7425 22.8703 25.0608 23.911 24.1944 24.7924C23.3281 25.6737 22.294 26.3785 21.1513 26.8664C20.0087 27.3542 18.7797 27.6157 17.5347 27.6358C16.2897 27.656 15.0529 27.4344 13.8951 26.9837C12.7373 26.533 11.6811 25.862 10.7867 25.0091C9.89234 24.1562 9.17739 23.1381 8.68266 22.0128C8.18793 20.8876 7.92311 19.6772 7.90332 18.4509C7.86336 15.9743 8.8239 13.5829 10.5736 11.8029C12.3233 10.0229 14.7189 9.00012 17.2334 8.95947C19.7478 8.91882 22.1751 9.86368 23.9814 11.5862C25.7876 13.3087 26.8248 15.6678 26.8647 18.1444Z" fill="black"/>
</svg>
