<svg width="240" height="70" viewBox="0 0 240 70" fill="none" xmlns="http://www.w3.org/2000/svg">
<rect x="1" y="1" width="238" height="68" rx="19" fill="#75D0FB"/>
<rect x="1" y="1" width="238" height="68" rx="19" stroke="black" stroke-width="2"/>
<path d="M60.464 20.464H66.582V23.96H63.846C64.2767 24.416 64.6187 24.948 64.872 25.556C65.1253 26.164 65.252 26.7973 65.252 27.456V31.408C65.252 32.2187 65.1127 32.9533 64.834 33.612C64.5553 34.2707 64.188 34.8533 63.732 35.36C63.276 35.8413 62.744 36.2213 62.136 36.5C61.528 36.7533 60.882 36.88 60.198 36.88H55.486C54.802 36.88 54.156 36.7533 53.548 36.5C52.94 36.2213 52.3953 35.854 51.914 35.398C51.458 34.942 51.0907 34.41 50.812 33.802C50.5333 33.1687 50.394 32.4973 50.394 31.788V27.456C50.394 26.7973 50.5207 26.164 50.774 25.556C51.0273 24.948 51.3693 24.416 51.8 23.96H49.14V20.464H55.258V18.298H60.464V20.464ZM51.724 39.008H74.6V43.34C74.5493 44.2773 74.448 45.164 74.296 46C74.144 46.836 73.9667 47.5707 73.764 48.204C73.536 48.9387 73.2953 49.6227 73.042 50.256H68.368C68.7987 49.42 69.128 48.584 69.356 47.748C69.584 46.9373 69.7487 46.2027 69.85 45.544C69.9513 44.784 70.002 44.0493 70.002 43.34H51.724V39.008ZM78.742 24.758V29.242H74.448V35.892H69.926V18.26H74.448V24.758H78.742ZM60.844 30.876V28.444C60.844 27.836 60.6413 27.3293 60.236 26.924C59.8307 26.5187 59.3113 26.316 58.678 26.316H57.082C56.474 26.316 55.9293 26.5187 55.448 26.924C54.992 27.3293 54.764 27.836 54.764 28.444V30.876C54.764 31.5093 54.9287 32.0287 55.258 32.434C55.6127 32.8393 56.094 33.042 56.702 33.042H58.83C59.4633 33.042 59.9573 32.8393 60.312 32.434C60.6667 32.0287 60.844 31.5093 60.844 30.876ZM110.201 35.74H81.017V31.826H110.201V35.74ZM106.781 50.218H84.171V38.058H88.959V40.832H102.221V38.058H106.781V50.218ZM88.959 46.494H102.221V44.252H88.959V46.494ZM98.155 18.222V19.362C98.155 20.0207 98.3956 20.7173 98.877 21.452C99.3583 22.1613 100.017 22.8453 100.853 23.504C101.714 24.1373 102.728 24.6947 103.893 25.176C105.058 25.6573 106.312 25.9993 107.655 26.202V30.002C106.794 29.85 105.768 29.6473 104.577 29.394C103.386 29.1153 102.196 28.748 101.005 28.292C99.8396 27.836 98.7376 27.266 97.699 26.582C96.6856 25.8727 95.9256 24.9987 95.419 23.96C95.115 24.6947 94.6463 25.3533 94.013 25.936C93.405 26.4933 92.6956 26.9873 91.885 27.418C91.0996 27.8487 90.2636 28.216 89.377 28.52C88.4903 28.824 87.629 29.0773 86.793 29.28C85.957 29.4827 85.197 29.6473 84.513 29.774C83.829 29.8753 83.297 29.9513 82.917 30.002V25.936C84.3103 25.8347 85.6023 25.5687 86.793 25.138C88.009 24.682 89.0603 24.15 89.947 23.542C90.859 22.9087 91.5683 22.2247 92.075 21.49C92.607 20.73 92.873 20.008 92.873 19.324V18.222H98.155ZM142.388 33.384V37.07H122.134V33.384H129.468V31.028H129.24C128.632 31.028 128.024 30.914 127.416 30.686C126.833 30.458 126.301 30.1413 125.82 29.736C125.364 29.3307 124.984 28.862 124.68 28.33C124.376 27.7727 124.224 27.19 124.224 26.582V23.124C124.224 22.44 124.363 21.832 124.642 21.3C124.921 20.7427 125.288 20.274 125.744 19.894C126.2 19.514 126.707 19.2227 127.264 19.02C127.847 18.8173 128.442 18.716 129.05 18.716H134.37C135.789 18.716 136.954 19.1213 137.866 19.932C138.778 20.7427 139.234 21.8447 139.234 23.238V26.544C139.234 27.152 139.095 27.7347 138.816 28.292C138.563 28.824 138.208 29.2927 137.752 29.698C137.321 30.1033 136.815 30.4327 136.232 30.686C135.675 30.914 135.092 31.028 134.484 31.028V33.384H142.388ZM149.342 49.876H126.086V39.54H131.026V45.582H149.342V49.876ZM153.598 24.872V29.318H148.886V39.882H143.984V18.298H148.886V24.872H153.598ZM134.522 23.922C134.522 23.39 134.332 22.9467 133.952 22.592C133.597 22.2373 133.141 22.06 132.584 22.06H131.064C130.481 22.06 129.987 22.2373 129.582 22.592C129.177 22.9467 128.974 23.39 128.974 23.922V25.784C128.974 26.316 129.151 26.772 129.506 27.152C129.886 27.5067 130.367 27.684 130.95 27.684H132.622C133.179 27.684 133.635 27.5067 133.99 27.152C134.345 26.772 134.522 26.316 134.522 25.784V23.922ZM158.261 27.152H176.843V24.72H158.261V20.426H182.011V30.648H163.429V33.08H182.011V36.766H158.261V27.152ZM184.405 42.504V46.836H155.867V42.504H164.075V38.438H168.331V42.504H172.701V38.438H176.957V42.504H184.405ZM189.251 20.198H194.913V41.402H189.251V20.198ZM194.685 44.822V49.42H189.555V44.822H194.685Z" fill="#312F27"/>
</svg>
