<svg width="240" height="70" viewBox="0 0 240 70" fill="none" xmlns="http://www.w3.org/2000/svg">
<rect x="1" y="1" width="238" height="68" rx="19" fill="#75D0FB"/>
<rect x="1" y="1" width="238" height="68" rx="19" stroke="black" stroke-width="2"/>
<path d="M178.609 47.3242V21.6798L198.391 34.502L178.609 47.3242ZM180.988 49.3373L200.766 36.5152C201.153 36.2642 201.464 35.9547 201.677 35.6075C201.89 35.2603 202 34.8834 202 34.502C202 34.1206 201.89 33.7437 201.677 33.3965C201.464 33.0492 201.153 32.7398 200.766 32.4888L180.991 19.6666C178.649 18.1534 175 19.3833 175 21.6798V47.3242C174.999 47.8382 175.199 48.3414 175.574 48.7735C175.95 49.2057 176.486 49.5485 177.117 49.761C177.749 49.9734 178.45 50.0464 179.137 49.9713C179.823 49.8961 180.466 49.6761 180.988 49.3373Z" fill="black"/>
<path d="M66.006 17.298V35.804H65.854V49.256H54.53V48.8H42.864V40.972H49.362V38.806H42.864V35.728H52.82V43.594H46.74V45.76H54.53V35.728H61.598V28.698H57.266V24.29H61.598V17.298H66.006ZM57.076 22.884H50.274C50.6287 23.872 51.1607 24.784 51.87 25.62C52.5793 26.456 53.2887 27.178 53.998 27.786C54.834 28.4953 55.7207 29.1413 56.658 29.724V34.36C55.5433 34.0307 54.492 33.4987 53.504 32.764C52.516 32.004 51.6547 31.244 50.92 30.484C50.0587 29.5973 49.248 28.6347 48.488 27.596C47.8547 28.7867 47.044 29.8 46.056 30.636C45.068 31.472 44.0927 32.1687 43.13 32.726C42.0153 33.3847 40.8373 33.9293 39.596 34.36V29.914C40.6853 29.4073 41.6227 28.8373 42.408 28.204C43.2187 27.5707 43.89 26.9373 44.422 26.304C44.9793 25.6707 45.4227 25.0627 45.752 24.48C46.0813 23.872 46.3347 23.34 46.512 22.884H39.14V18.552H57.076V22.884ZM62.358 38.806H57.988V45.76H62.358V38.806ZM74.3509 42.226C73.5909 42.226 72.8562 42.1247 72.1469 41.922C71.4629 41.694 70.8422 41.3393 70.2849 40.858C69.7529 40.3513 69.3222 39.68 68.9929 38.844C68.6889 38.008 68.5369 36.982 68.5369 35.766V26.532C68.5369 25.544 68.6255 24.6193 68.8029 23.758C68.9802 22.8713 69.3095 22.1113 69.7909 21.478C70.2975 20.8447 70.9815 20.3507 71.8429 19.996C72.7295 19.616 73.8569 19.426 75.2249 19.426H77.7709C79.8482 19.426 81.4315 20.0213 82.5209 21.212C83.6355 22.4027 84.1929 24.1887 84.1929 26.57V35.348C84.1929 36.412 84.0409 37.3747 83.7369 38.236C83.4329 39.0973 83.0149 39.8193 82.4829 40.402C81.9762 40.9847 81.3809 41.4407 80.6969 41.77C80.0129 42.074 79.2909 42.226 78.5309 42.226H74.3509ZM94.4529 17.678V49.256H89.5889V32.802H85.4849V27.52H89.5889V17.678H94.4529ZM77.2769 38.312C77.7329 38.312 78.1129 38.2107 78.4169 38.008C78.7209 37.78 78.9615 37.514 79.1389 37.21C79.3162 36.8807 79.4429 36.526 79.5189 36.146C79.5949 35.7407 79.6329 35.348 79.6329 34.968V27.292C79.6329 26.8867 79.6075 26.456 79.5569 26C79.5315 25.544 79.4429 25.126 79.2909 24.746C79.1389 24.366 78.8982 24.062 78.5689 23.834C78.2649 23.5807 77.8342 23.454 77.2769 23.454H75.7189C75.1362 23.454 74.6802 23.5553 74.3509 23.758C74.0215 23.9607 73.7555 24.2267 73.5529 24.556C73.3755 24.8853 73.2615 25.2653 73.2109 25.696C73.1602 26.1013 73.1349 26.5067 73.1349 26.912V34.778C73.1349 35.082 73.1222 35.4367 73.0969 35.842C73.0715 36.2473 73.1222 36.64 73.2489 37.02C73.3755 37.3747 73.6162 37.6787 73.9709 37.932C74.3255 38.1853 74.8829 38.312 75.6429 38.312H77.2769ZM113.91 24.518H107.83C107.804 24.898 107.792 25.4427 107.792 26.152C107.792 26.836 107.83 27.6087 107.906 28.47C108.007 29.3313 108.172 30.2307 108.4 31.168C108.653 32.08 109.008 32.9667 109.464 33.828C109.92 34.664 110.502 35.424 111.212 36.108C111.921 36.792 112.795 37.3113 113.834 37.666V42.074C112.567 41.77 111.376 41.314 110.262 40.706C109.78 40.4527 109.299 40.1487 108.818 39.794C108.336 39.4393 107.868 39.034 107.412 38.578C106.981 38.122 106.576 37.6153 106.196 37.058C105.841 36.4753 105.55 35.8293 105.322 35.12C104.84 36.64 104.131 37.856 103.194 38.768C102.256 39.6547 101.306 40.3513 100.344 40.858C99.2291 41.4407 98.0384 41.846 96.7718 42.074V37.666C97.8104 37.3113 98.6844 36.792 99.3938 36.108C100.103 35.424 100.673 34.664 101.104 33.828C101.56 32.9667 101.889 32.08 102.092 31.168C102.32 30.2307 102.472 29.3313 102.548 28.47C102.649 27.6087 102.687 26.836 102.662 26.152C102.662 25.4427 102.649 24.898 102.624 24.518H96.7338V20.262H113.91V24.518ZM122.346 49.256V17.298H117.254V49.256H122.346ZM124.64 20.148H141.094V23.91C140.967 25.2527 140.663 26.57 140.182 27.862C139.701 29.154 139.105 30.408 138.396 31.624C137.687 32.8147 136.901 33.9673 136.04 35.082C135.179 36.1713 134.305 37.1847 133.418 38.122C131.315 40.326 128.985 42.3907 126.426 44.316V37.97C127.743 36.906 128.934 35.7787 129.998 34.588C131.087 33.3973 132.025 32.2193 132.81 31.054C133.595 29.8887 134.229 28.7867 134.71 27.748C135.191 26.7093 135.508 25.7973 135.66 25.012H124.64V20.148ZM150.024 49.256V17.678H145.008V49.256H150.024Z" fill="#312F27"/>
</svg>
