<svg width="226" height="85" viewBox="0 0 226 85" fill="none" xmlns="http://www.w3.org/2000/svg">
<g filter="url(#filter0_d_2005_102)">
<path d="M4 20C4 8.9543 12.9543 0 24 0H202C213.046 0 222 8.9543 222 20V57C222 68.0457 213.046 77 202 77H24C12.9543 77 4 68.0457 4 57V20Z" fill="#47E847"/>
<path d="M5 20C5 9.50659 13.5066 1 24 1H202C212.493 1 221 9.50659 221 20V57C221 67.4934 212.493 76 202 76H24C13.5066 76 5 67.4934 5 57V20Z" stroke="black" stroke-width="2"/>
</g>
<defs>
<filter id="filter0_d_2005_102" x="0" y="0" width="226" height="85" filterUnits="userSpaceOnUse" color-interpolation-filters="sRGB">
<feFlood flood-opacity="0" result="BackgroundImageFix"/>
<feColorMatrix in="SourceAlpha" type="matrix" values="0 0 0 0 0 0 0 0 0 0 0 0 0 0 0 0 0 0 127 0" result="hardAlpha"/>
<feOffset dy="4"/>
<feGaussianBlur stdDeviation="2"/>
<feComposite in2="hardAlpha" operator="out"/>
<feColorMatrix type="matrix" values="0 0 0 0 0 0 0 0 0 0 0 0 0 0 0 0 0 0 0.25 0"/>
<feBlend mode="normal" in2="BackgroundImageFix" result="effect1_dropShadow_2005_102"/>
<feBlend mode="normal" in="SourceGraphic" in2="effect1_dropShadow_2005_102" result="shape"/>
</filter>
</defs>
</svg>
