<svg width="430" height="932" viewBox="0 0 430 932" fill="none" xmlns="http://www.w3.org/2000/svg">
<rect width="430" height="932" fill="#75D0FB"/>
<path d="M13 147C13 138.716 19.7157 132 28 132H401C409.284 132 416 138.716 416 147V880C416 888.284 409.284 895 401 895H28C19.7157 895 13 888.284 13 880V147Z" fill="#D9ECF2"/>
<path d="M60.8867 389.46L60.5449 385.407H55.418L55.7598 389.753L60.8867 389.46ZM53.2695 379.304H54.9297L55.3691 384.138H60.4473L60.0566 379.255H61.7168L62.0098 383.503H68.4551V377.448H69.9688V394.099H68.6504V385.114H62.1318L62.5469 391.022H55.0762L54.0996 390.681L53.2695 379.304ZM76.3164 387.019L81.1992 381.452V377.595H82.957V381.452L88.1328 386.188L87.2539 387.458L82.1758 382.966L77.5859 388.19L76.3164 387.019ZM90.2812 393.415H74.2656V391.804H90.2812V393.415ZM108.494 378.669L105.125 392.194L103.416 391.999L105.271 384.382H99.168V382.966H105.662L106.59 379.45H99.3145V377.839H107.908L108.494 378.669ZM112.254 392.683V375.983H114.158V383.454H118.357V385.065H114.061V392.683H112.254ZM124.314 387.8L123.289 386.872V379.255H134.031V380.866H124.852V386.188H134.52V387.849L124.314 387.8ZM137.352 393.903H120.359V392.292H137.352V393.903ZM160.887 378.425H156.053V379.548L161.18 383.259L160.105 384.333L155.32 380.964L150.73 384.382L149.51 383.21L154.393 379.597V378.425H149.705V376.862H154.344V374.177H156.004V376.862H160.887V378.425ZM156.59 387.556L156.541 390.192C157.859 390.339 158.852 390.746 159.52 391.413C160.203 392.08 160.545 392.862 160.545 393.757C160.545 394.278 160.439 394.758 160.228 395.197C160.032 395.637 159.723 396.019 159.3 396.345C158.893 396.687 158.38 396.947 157.762 397.126C157.16 397.321 156.46 397.419 155.662 397.419C154.848 397.419 154.14 397.321 153.538 397.126C152.936 396.947 152.423 396.687 152 396.345C151.593 396.019 151.284 395.637 151.072 395.197C150.877 394.758 150.779 394.278 150.779 393.757C150.779 392.845 151.113 392.056 151.78 391.389C152.464 390.721 153.481 390.323 154.832 390.192V387.556H146.727L146.824 386.042H163.865V387.409L156.59 387.556ZM158.836 393.757C158.836 393.155 158.551 392.65 157.981 392.243C157.428 391.82 156.655 391.608 155.662 391.608C154.637 391.608 153.847 391.82 153.294 392.243C152.757 392.65 152.488 393.155 152.488 393.757C152.488 394.375 152.757 394.896 153.294 395.319C153.847 395.743 154.637 395.954 155.662 395.954C156.655 395.954 157.428 395.743 157.981 395.319C158.551 394.896 158.836 394.375 158.836 393.757ZM175.535 376.325V377.888H171.873V380.817L176.805 385.896L175.828 387.165L171.141 382.575L167.234 387.653L166.014 386.384L170.164 380.866V377.888H166.258V376.276L175.535 376.325ZM182.518 375.495V390.778H180.955V381.208H175.096V379.646H180.857V375.544L182.518 375.495ZM173.436 395.856V389.851H175.145V394.978H183.543V396.491H174.119L173.436 395.856Z" fill="black"/>
<path d="M62.7168 529.013H59.4941V532.87L64.1816 538.778L63.1074 539.95L58.6152 534.628L54.9043 540.292L53.6348 539.022L57.6875 532.919V529.013H54.0254V527.499H62.7168V529.013ZM70.8223 526.62H72.4824V542.88H70.8223V535.214H68.1367V542.685H66.2812V526.669H68.1367V533.505H70.8223V526.62ZM75.0703 525.253H83.2246V535.263H75.8027L75.0215 534.335L75.0703 525.253ZM81.6133 526.864H76.6816V533.407H81.5156L81.6133 526.864ZM90.2559 523.544V536.337H88.498V523.495L90.2559 523.544ZM78 544.882L76.9258 543.661L80.7344 539.755V537.069H82.3945V539.657L85.373 541.854L86.8867 540.146L87.082 537.362H88.6445V540.097L92.502 543.954L91.4277 545.077L87.7168 541.464L84.0547 545.517L83.0293 544.394L84.25 543.026L81.6133 541.122L78 544.882ZM99.6309 531.894L98.459 530.868V523.739H100.119V530.331H108.469V531.845L99.6309 531.894ZM111.984 535.702H94.7969L94.8945 534.335H111.936L111.984 535.702ZM99.0449 544.589L97.9707 543.759V538.241H99.4844V542.929L110.568 543.173C110.568 543.498 110.568 543.751 110.568 543.93C110.585 544.125 110.593 544.271 110.593 544.369C110.593 544.467 110.593 544.54 110.593 544.589C110.609 544.638 110.617 544.687 110.617 544.735L99.0449 544.589ZM122.238 531.796C122.238 532.187 122.287 532.602 122.385 533.041C122.499 533.48 122.67 533.887 122.897 534.262C123.125 534.62 123.418 534.921 123.776 535.165C124.151 535.393 124.598 535.507 125.119 535.507C125.949 535.507 126.592 535.157 127.048 534.457C127.52 533.741 127.756 532.838 127.756 531.747C127.756 530.575 127.528 529.647 127.072 528.964C126.617 528.28 125.917 527.938 124.973 527.938C124.061 527.938 123.378 528.288 122.922 528.988C122.466 529.688 122.238 530.624 122.238 531.796ZM120.627 531.747C120.627 531.177 120.692 530.575 120.822 529.94C120.952 529.306 121.172 528.72 121.481 528.183C121.807 527.646 122.238 527.206 122.775 526.864C123.312 526.506 123.988 526.327 124.802 526.327C125.648 526.327 126.364 526.49 126.95 526.815C127.536 527.125 128.008 527.54 128.366 528.061C128.724 528.565 128.977 529.143 129.123 529.794C129.286 530.445 129.367 531.096 129.367 531.747C129.367 532.349 129.294 532.968 129.147 533.603C129.001 534.237 128.757 534.815 128.415 535.336C128.073 535.857 127.618 536.288 127.048 536.63C126.478 536.955 125.778 537.118 124.948 537.118C124.216 537.118 123.573 536.955 123.02 536.63C122.482 536.288 122.035 535.865 121.677 535.36C121.335 534.84 121.075 534.262 120.896 533.627C120.716 532.992 120.627 532.366 120.627 531.747ZM136.643 524.276H138.303V539.804H136.643V534.628H133.811V539.657H132.102V524.325H133.859V528.183H136.643V524.276ZM136.643 533.114V529.843H133.859V533.114H136.643ZM150.461 526.718L146.799 539.315L145.139 538.974L148.508 527.401H141.623L141.77 525.497H149.68L150.461 526.718ZM155.1 539.657V522.958H157.102V539.657H155.1Z" fill="black"/>
<path d="M63.2539 668.325V669.888H59.5918V672.817L64.5234 677.896L63.5469 679.165L58.8594 674.575L54.9531 679.653L53.7324 678.384L57.8828 672.866V669.888H53.9766V668.276L63.2539 668.325ZM70.2363 667.495V680.337H68.6738V673.208H62.8145V671.646H68.5762V667.544L70.2363 667.495ZM55.4414 682.046H72.1406V689.419H56.2715L55.5391 688.735L55.4414 682.046ZM57.3457 683.657V687.954H70.5781V683.657H57.3457ZM74.3379 679.556L78.4395 672.915V668.472L79.9043 668.374V672.671L85.2754 677.944L84.3965 679.214L79.5137 674.478L75.7051 680.435L74.3379 679.556ZM90.2559 667.544V680.435H88.498V667.495L90.2559 667.544ZM75.4121 681.997H92.2578V689.419H76.3887L75.6562 688.735L75.4121 681.997ZM77.3164 683.657V687.954H90.6953V683.657H77.3164ZM100.949 670.181H108.225V674.526H112.277V669.058H113.889V683.12L112.375 683.218V676.187H108.151V681.167H101.682L100.9 680.239L100.949 670.181ZM106.516 671.89H102.658V679.263H106.418L106.516 671.89ZM116.525 683.853V668.521H118.186V683.706L116.525 683.853ZM125.656 676.675L124.484 675.649V668.276H126.145V675.112H135.08V676.626L125.656 676.675ZM126.535 681.313H121.311V679.604H138.498V681.46H133.615V687.515H131.906V681.362H128.244V687.417H126.535V681.313ZM161.643 670.62H157.053V671.987L162.277 676.187L161.203 677.261L156.32 673.354L151.389 677.407L150.363 676.089L155.393 672.036V670.62H150.314V669.058H155.344V665.933H157.053V669.058H161.643V670.62ZM155.93 681.802H147.775V680.044H164.963V681.899H157.639V687.466H155.93V681.802ZM177.854 672.378H173.752V674.575L178.391 678.481L177.414 679.556L173.02 676.138L169.504 680.63L168.283 679.458L172.092 674.624V672.378H168.137V670.815H172.092V667.69H173.752V670.864H177.854V672.378ZM184.104 667.495V682.778H182.541V675.161H177.658V673.599H182.443V667.544L184.104 667.495ZM174.436 687.856V681.851H176.145V686.978H184.543V688.491H175.119L174.436 687.856ZM197.141 667.495V667.3H198.752L199.045 671.157H205.93L205.686 667.251L207.297 667.153V677.261H198.801L197.727 676.724L197.141 667.495ZM206.174 675.601V672.427H199.094L199.338 675.747L206.174 675.601ZM202.512 681.802H194.357V680.044H211.545V681.899H204.221V687.466H202.512V681.802ZM223.752 678.14V679.751H214.914L213.986 678.53V668.813H222.434V670.083H215.598V672.964H222.434V674.819H215.598V677.944L223.752 678.14ZM227.219 667.349H228.879V672.573H232.688V674.233H228.879V680.337H227.121L227.219 667.349ZM229.758 689.224H228V683.706H215.988V682.095H228.879L229.758 683.12V689.224ZM238.596 679.8L237.57 678.872V671.255H248.312V672.866H239.133V678.188H248.801V679.849L238.596 679.8ZM251.633 685.903H234.641V684.292H251.633V685.903ZM255.148 671.157V669.644H262.961L263.449 675.698L256.369 676.528V680.386H264.572L264.67 681.899H255.393L254.465 681.411V675.015L261.74 674.282L261.496 671.206L255.148 671.157ZM271.457 684.146H270.139V678.091H264.67V676.479H269.992V673.843H264.67V672.231H269.943V667.495H271.457V684.146ZM278.146 674.038C278.13 673.973 278.122 673.908 278.122 673.843C278.122 673.778 278.122 673.713 278.122 673.647C278.122 673.013 278.236 672.443 278.464 671.938C278.692 671.418 279.017 670.978 279.44 670.62C279.88 670.246 280.393 669.961 280.979 669.766C281.581 669.554 282.248 669.448 282.98 669.448C283.924 669.448 284.738 669.57 285.422 669.814C286.122 670.042 286.7 670.36 287.155 670.767C287.611 671.157 287.945 671.621 288.156 672.158C288.384 672.679 288.498 673.224 288.498 673.794C288.498 674.559 288.335 675.218 288.01 675.771C287.684 676.325 287.261 676.789 286.74 677.163L286.887 683.34H291.965V685.024H274.875V683.12H280.393L280.246 677.236C279.693 676.927 279.213 676.512 278.806 675.991C278.415 675.47 278.195 674.819 278.146 674.038ZM285.056 677.896C284.535 678.026 284.038 678.091 283.566 678.091C283.062 678.091 282.533 678.034 281.979 677.92L282.102 683.267H285.178L285.056 677.896ZM283.322 670.962C282.867 670.962 282.427 671.019 282.004 671.133C281.581 671.247 281.206 671.426 280.881 671.67C280.572 671.898 280.319 672.191 280.124 672.549C279.945 672.907 279.855 673.338 279.855 673.843C279.855 674.299 279.961 674.689 280.173 675.015C280.384 675.34 280.661 675.609 281.003 675.82C281.361 676.032 281.768 676.187 282.224 676.284C282.679 676.382 283.143 676.431 283.615 676.431C284.152 676.431 284.624 676.357 285.031 676.211C285.438 676.048 285.772 675.845 286.032 675.601C286.293 675.34 286.488 675.047 286.618 674.722C286.748 674.38 286.813 674.038 286.813 673.696C286.813 672.834 286.496 672.174 285.861 671.719C285.243 671.247 284.396 670.994 283.322 670.962Z" fill="black"/>
<rect x="93" y="794" width="238" height="68" rx="19" fill="#75D0FB"/>
<rect x="93" y="794" width="238" height="68" rx="19" stroke="black" stroke-width="2"/>
<path d="M152.464 813.464H158.582V816.96H155.846C156.277 817.416 156.619 817.948 156.872 818.556C157.125 819.164 157.252 819.797 157.252 820.456V824.408C157.252 825.219 157.113 825.953 156.834 826.612C156.555 827.271 156.188 827.853 155.732 828.36C155.276 828.841 154.744 829.221 154.136 829.5C153.528 829.753 152.882 829.88 152.198 829.88H147.486C146.802 829.88 146.156 829.753 145.548 829.5C144.94 829.221 144.395 828.854 143.914 828.398C143.458 827.942 143.091 827.41 142.812 826.802C142.533 826.169 142.394 825.497 142.394 824.788V820.456C142.394 819.797 142.521 819.164 142.774 818.556C143.027 817.948 143.369 817.416 143.8 816.96H141.14V813.464H147.258V811.298H152.464V813.464ZM143.724 832.008H166.6V836.34C166.549 837.277 166.448 838.164 166.296 839C166.144 839.836 165.967 840.571 165.764 841.204C165.536 841.939 165.295 842.623 165.042 843.256H160.368C160.799 842.42 161.128 841.584 161.356 840.748C161.584 839.937 161.749 839.203 161.85 838.544C161.951 837.784 162.002 837.049 162.002 836.34H143.724V832.008ZM170.742 817.758V822.242H166.448V828.892H161.926V811.26H166.448V817.758H170.742ZM152.844 823.876V821.444C152.844 820.836 152.641 820.329 152.236 819.924C151.831 819.519 151.311 819.316 150.678 819.316H149.082C148.474 819.316 147.929 819.519 147.448 819.924C146.992 820.329 146.764 820.836 146.764 821.444V823.876C146.764 824.509 146.929 825.029 147.258 825.434C147.613 825.839 148.094 826.042 148.702 826.042H150.83C151.463 826.042 151.957 825.839 152.312 825.434C152.667 825.029 152.844 824.509 152.844 823.876ZM202.201 828.74H173.017V824.826H202.201V828.74ZM198.781 843.218H176.171V831.058H180.959V833.832H194.221V831.058H198.781V843.218ZM180.959 839.494H194.221V837.252H180.959V839.494ZM190.155 811.222V812.362C190.155 813.021 190.396 813.717 190.877 814.452C191.358 815.161 192.017 815.845 192.853 816.504C193.714 817.137 194.728 817.695 195.893 818.176C197.058 818.657 198.312 818.999 199.655 819.202V823.002C198.794 822.85 197.768 822.647 196.577 822.394C195.386 822.115 194.196 821.748 193.005 821.292C191.84 820.836 190.738 820.266 189.699 819.582C188.686 818.873 187.926 817.999 187.419 816.96C187.115 817.695 186.646 818.353 186.013 818.936C185.405 819.493 184.696 819.987 183.885 820.418C183.1 820.849 182.264 821.216 181.377 821.52C180.49 821.824 179.629 822.077 178.793 822.28C177.957 822.483 177.197 822.647 176.513 822.774C175.829 822.875 175.297 822.951 174.917 823.002V818.936C176.31 818.835 177.602 818.569 178.793 818.138C180.009 817.682 181.06 817.15 181.947 816.542C182.859 815.909 183.568 815.225 184.075 814.49C184.607 813.73 184.873 813.008 184.873 812.324V811.222H190.155ZM234.388 826.384V830.07H214.134V826.384H221.468V824.028H221.24C220.632 824.028 220.024 823.914 219.416 823.686C218.833 823.458 218.301 823.141 217.82 822.736C217.364 822.331 216.984 821.862 216.68 821.33C216.376 820.773 216.224 820.19 216.224 819.582V816.124C216.224 815.44 216.363 814.832 216.642 814.3C216.921 813.743 217.288 813.274 217.744 812.894C218.2 812.514 218.707 812.223 219.264 812.02C219.847 811.817 220.442 811.716 221.05 811.716H226.37C227.789 811.716 228.954 812.121 229.866 812.932C230.778 813.743 231.234 814.845 231.234 816.238V819.544C231.234 820.152 231.095 820.735 230.816 821.292C230.563 821.824 230.208 822.293 229.752 822.698C229.321 823.103 228.815 823.433 228.232 823.686C227.675 823.914 227.092 824.028 226.484 824.028V826.384H234.388ZM241.342 842.876H218.086V832.54H223.026V838.582H241.342V842.876ZM245.598 817.872V822.318H240.886V832.882H235.984V811.298H240.886V817.872H245.598ZM226.522 816.922C226.522 816.39 226.332 815.947 225.952 815.592C225.597 815.237 225.141 815.06 224.584 815.06H223.064C222.481 815.06 221.987 815.237 221.582 815.592C221.177 815.947 220.974 816.39 220.974 816.922V818.784C220.974 819.316 221.151 819.772 221.506 820.152C221.886 820.507 222.367 820.684 222.95 820.684H224.622C225.179 820.684 225.635 820.507 225.99 820.152C226.345 819.772 226.522 819.316 226.522 818.784V816.922ZM250.261 820.152H268.843V817.72H250.261V813.426H274.011V823.648H255.429V826.08H274.011V829.766H250.261V820.152ZM276.405 835.504V839.836H247.867V835.504H256.075V831.438H260.331V835.504H264.701V831.438H268.957V835.504H276.405ZM281.251 813.198H286.913V834.402H281.251V813.198ZM286.685 837.822V842.42H281.555V837.822H286.685Z" fill="#312F27"/>
<path d="M162.032 83.304C162.885 83.304 163.717 83.4213 164.528 83.656C165.339 83.8693 166.043 84.1893 166.64 84.616C167.259 85.0213 167.749 85.5333 168.112 86.152C168.496 86.7707 168.688 87.4747 168.688 88.264V92.04C168.688 92.9147 168.517 93.6933 168.176 94.376C167.835 95.0373 167.376 95.6027 166.8 96.072C166.224 96.52 165.541 96.8613 164.752 97.096C163.984 97.3307 163.173 97.448 162.32 97.448H156.208C155.333 97.448 154.501 97.3307 153.712 97.096C152.944 96.8613 152.251 96.5307 151.632 96.104C151.035 95.6773 150.555 95.1547 150.192 94.536C149.851 93.896 149.68 93.1707 149.68 92.36C149.68 92.0827 149.669 91.7627 149.648 91.4C149.648 91.016 149.648 90.632 149.648 90.248C149.648 89.864 149.648 89.4907 149.648 89.128C149.669 88.744 149.701 88.4133 149.744 88.136C149.829 87.432 150.064 86.792 150.448 86.216C150.853 85.6187 151.344 85.1067 151.92 84.68C152.517 84.2533 153.189 83.9227 153.936 83.688C154.683 83.432 155.44 83.304 156.208 83.304H162.032ZM171.408 102.024V105.672H146.96V102.024H157.264V98.6H161.36V102.024H171.408ZM161.04 93.992C161.403 93.992 161.808 93.9707 162.256 93.928C162.704 93.8853 163.12 93.7893 163.504 93.64C163.888 93.4693 164.208 93.2347 164.464 92.936C164.72 92.616 164.848 92.1893 164.848 91.656V89.8C164.848 89.288 164.731 88.8613 164.496 88.52C164.283 88.1573 163.995 87.8693 163.632 87.656C163.269 87.4213 162.853 87.2613 162.384 87.176C161.936 87.0693 161.467 87.016 160.976 87.016H157.776C157.371 87.016 156.955 87.048 156.528 87.112C156.123 87.1547 155.739 87.2613 155.376 87.432C155.013 87.5813 154.693 87.816 154.416 88.136C154.139 88.456 153.925 88.872 153.776 89.384C153.733 89.5333 153.691 89.7147 153.648 89.928C153.627 90.1413 153.616 90.3653 153.616 90.6C153.616 90.8347 153.627 91.0693 153.648 91.304C153.691 91.5173 153.733 91.6987 153.776 91.848C153.968 92.4667 154.32 92.9787 154.832 93.384C155.365 93.7893 156.197 93.992 157.328 93.992H161.04ZM176.439 101.448H190.999V99.976H176.439V97.416H195.351V104.36H180.439V105.672H195.351V108.584H176.471L176.439 101.448ZM176.503 90.632V81.736H180.183V86.856H195.159V90.632H176.503ZM198.295 95.56H173.335V92.232H198.295V95.56ZM223.282 81.672V108.616H218.482V100.424C217.693 101.128 216.829 101.725 215.89 102.216C214.951 102.707 213.981 103.123 212.978 103.464C211.975 103.784 210.962 104.04 209.938 104.232C208.914 104.424 207.933 104.563 206.994 104.648C204.775 104.883 202.514 104.904 200.21 104.712V100.296C201.383 100.531 202.599 100.648 203.858 100.648C205.138 100.627 206.397 100.531 207.634 100.36C208.893 100.189 210.098 99.976 211.25 99.72C212.423 99.4427 213.479 99.1653 214.418 98.888C215.378 98.6107 216.199 98.3547 216.882 98.12C217.586 97.864 218.098 97.672 218.418 97.544V81.672H223.282ZM209.97 82.376C210.631 82.376 211.229 82.4933 211.762 82.728C212.295 82.9413 212.754 83.2507 213.138 83.656C213.522 84.0613 213.81 84.5307 214.002 85.064C214.215 85.5973 214.322 86.1627 214.322 86.76V91.112C214.322 92.456 213.906 93.5227 213.074 94.312C212.242 95.08 211.09 95.464 209.618 95.464H205.778C205.202 95.464 204.647 95.368 204.114 95.176C203.581 94.984 203.101 94.7173 202.674 94.376C202.269 94.0133 201.938 93.5867 201.682 93.096C201.447 92.584 201.33 92.0293 201.33 91.432V86.76C201.33 86.1627 201.437 85.5973 201.65 85.064C201.885 84.5307 202.194 84.0613 202.578 83.656C202.983 83.2507 203.453 82.9413 203.986 82.728C204.541 82.4933 205.138 82.376 205.778 82.376H209.97ZM210.45 87.592C210.45 87.08 210.269 86.6533 209.906 86.312C209.565 85.9493 209.127 85.768 208.594 85.768H207.218C206.685 85.768 206.215 85.9493 205.81 86.312C205.405 86.6533 205.202 87.08 205.202 87.592V90.248C205.202 90.7813 205.405 91.2293 205.81 91.592C206.215 91.9333 206.685 92.104 207.218 92.104H208.594C209.127 92.104 209.565 91.9333 209.906 91.592C210.269 91.2293 210.45 90.7813 210.45 90.248V87.592ZM242.871 83.496H248.023V86.44H245.719C246.082 86.824 246.37 87.272 246.583 87.784C246.796 88.296 246.903 88.8293 246.903 89.384V92.712C246.903 93.3947 246.786 94.0133 246.551 94.568C246.316 95.1227 246.007 95.6133 245.623 96.04C245.239 96.4453 244.791 96.7653 244.279 97C243.767 97.2133 243.223 97.32 242.647 97.32H238.679C238.103 97.32 237.559 97.2133 237.047 97C236.535 96.7653 236.076 96.456 235.671 96.072C235.287 95.688 234.978 95.24 234.743 94.728C234.508 94.1947 234.391 93.6293 234.391 93.032V89.384C234.391 88.8293 234.498 88.296 234.711 87.784C234.924 87.272 235.212 86.824 235.575 86.44H233.335V83.496H238.487V81.672H242.871V83.496ZM235.511 99.112H254.775V102.76C254.732 103.549 254.647 104.296 254.519 105C254.391 105.704 254.242 106.323 254.071 106.856C253.879 107.475 253.676 108.051 253.463 108.584H249.527C249.89 107.88 250.167 107.176 250.359 106.472C250.551 105.789 250.69 105.171 250.775 104.616C250.86 103.976 250.903 103.357 250.903 102.76H235.511V99.112ZM258.263 87.112V90.888H254.647V96.488H250.839V81.64H254.647V87.112H258.263ZM243.191 92.264V90.216C243.191 89.704 243.02 89.2773 242.679 88.936C242.338 88.5947 241.9 88.424 241.367 88.424H240.023C239.511 88.424 239.052 88.5947 238.647 88.936C238.263 89.2773 238.071 89.704 238.071 90.216V92.264C238.071 92.7973 238.21 93.2347 238.487 93.576C238.786 93.9173 239.191 94.088 239.703 94.088H241.495C242.028 94.088 242.444 93.9173 242.743 93.576C243.042 93.2347 243.191 92.7973 243.191 92.264ZM284.755 96.36H260.179V93.064H284.755V96.36ZM281.875 108.552H262.835V98.312H266.867V100.648H278.035V98.312H281.875V108.552ZM266.867 105.416H278.035V103.528H266.867V105.416ZM274.611 81.608V82.568C274.611 83.1227 274.813 83.7093 275.219 84.328C275.624 84.9253 276.179 85.5013 276.883 86.056C277.608 86.5893 278.461 87.0587 279.443 87.464C280.424 87.8693 281.48 88.1573 282.611 88.328V91.528C281.885 91.4 281.021 91.2293 280.019 91.016C279.016 90.7813 278.013 90.472 277.011 90.088C276.029 89.704 275.101 89.224 274.227 88.648C273.373 88.0507 272.733 87.3147 272.307 86.44C272.051 87.0587 271.656 87.6133 271.123 88.104C270.611 88.5733 270.013 88.9893 269.331 89.352C268.669 89.7147 267.965 90.024 267.219 90.28C266.472 90.536 265.747 90.7493 265.043 90.92C264.339 91.0907 263.699 91.2293 263.123 91.336C262.547 91.4213 262.099 91.4853 261.779 91.528V88.104C262.952 88.0187 264.04 87.7947 265.043 87.432C266.067 87.048 266.952 86.6 267.699 86.088C268.467 85.5547 269.064 84.9787 269.491 84.36C269.939 83.72 270.163 83.112 270.163 82.536V81.608H274.611Z" fill="black"/>
<path d="M289.37 77.541C291.784 75.5853 295.733 75.5402 298.191 77.44L317.214 92.1456C319.672 94.0454 319.707 97.1709 317.294 99.1266C314.88 101.082 310.931 101.127 308.474 99.2275L289.45 84.522C286.993 82.6221 286.957 79.4966 289.37 77.541Z" fill="#364497"/>
<path d="M289.37 77.541C291.784 75.5853 295.341 75.2375 297.316 76.764L318.088 92.8216C320.063 94.3481 319.707 97.1709 317.294 99.1266C314.88 101.082 311.323 101.43 309.348 99.9035L288.576 83.846C286.601 82.3194 286.957 79.4966 289.37 77.541Z" fill="#364497"/>
<path d="M289.37 77.541C291.784 75.5853 295.341 75.2375 297.316 76.764L318.088 92.8216C320.063 94.3481 319.707 97.1709 317.294 99.1266C314.88 101.082 311.323 101.43 309.348 99.9035L288.576 83.846C286.601 82.3194 286.957 79.4966 289.37 77.541Z" fill="#364497"/>
<path d="M289.37 77.541C291.784 75.5853 295.341 75.2375 297.316 76.764L318.088 92.8216C320.063 94.3481 319.707 97.1709 317.294 99.1266C314.88 101.082 311.323 101.43 309.348 99.9035L288.576 83.846C286.601 82.3194 286.957 79.4966 289.37 77.541Z" fill="#364497"/>
<path d="M289.37 77.541C291.784 75.5853 295.341 75.2375 297.316 76.764L318.088 92.8216C320.063 94.3481 319.707 97.1709 317.294 99.1266C314.88 101.082 311.323 101.43 309.348 99.9035L288.576 83.846C286.601 82.3194 286.957 79.4966 289.37 77.541Z" fill="#364497"/>
<path d="M291.66 117.174C288.931 115.498 288.536 112.286 290.778 109.999L307.103 93.3491C309.345 91.0624 313.375 90.5673 316.104 92.2432C318.833 93.9192 319.228 97.1315 316.986 99.4182L300.661 116.068C298.419 118.355 294.389 118.85 291.66 117.174Z" fill="#364497"/>
<path d="M291.66 117.174C288.931 115.498 288.12 112.71 289.849 110.947L308.033 92.401C309.762 90.638 313.375 90.5673 316.104 92.2432C318.833 93.9192 319.644 96.707 317.915 98.4701L299.731 117.016C298.002 118.779 294.389 118.85 291.66 117.174Z" fill="#364497"/>
<path d="M291.66 117.174C288.931 115.498 288.12 112.71 289.849 110.947L308.033 92.401C309.762 90.638 313.375 90.5673 316.104 92.2432C318.833 93.9192 319.644 96.707 317.915 98.4701L299.731 117.016C298.002 118.779 294.389 118.85 291.66 117.174Z" fill="#364497"/>
<path d="M291.66 117.174C288.931 115.498 288.12 112.71 289.849 110.947L308.033 92.401C309.762 90.638 313.375 90.5673 316.104 92.2432C318.833 93.9192 319.644 96.707 317.915 98.4701L299.731 117.016C298.002 118.779 294.389 118.85 291.66 117.174Z" fill="#364497"/>
<path d="M291.66 117.174C288.931 115.498 288.12 112.71 289.849 110.947L308.033 92.401C309.762 90.638 313.375 90.5673 316.104 92.2432C318.833 93.9192 319.644 96.707 317.915 98.4701L299.731 117.016C298.002 118.779 294.389 118.85 291.66 117.174Z" fill="#364497"/>
<path d="M141.051 77.5042C143.49 79.4395 143.487 82.5727 141.043 84.5024L122.26 99.3324C119.816 101.262 115.857 101.258 113.417 99.3222C110.978 97.3869 110.981 94.2537 113.425 92.324L132.208 77.494C134.652 75.5643 138.611 75.5689 141.051 77.5042Z" fill="#364497"/>
<path d="M141.051 77.5042C143.49 79.4395 143.884 82.2592 141.93 83.8022L121.373 100.033C119.419 101.576 115.857 101.258 113.417 99.3222C110.978 97.3869 110.584 94.5672 112.539 93.0242L133.095 76.7938C135.049 75.2508 138.611 75.5689 141.051 77.5042Z" fill="#364497"/>
<path d="M141.051 77.5042C143.49 79.4395 143.884 82.2592 141.93 83.8022L121.373 100.033C119.419 101.576 115.857 101.258 113.417 99.3222C110.978 97.3869 110.584 94.5672 112.539 93.0242L133.095 76.7938C135.049 75.2508 138.611 75.5689 141.051 77.5042Z" fill="#364497"/>
<path d="M141.051 77.5042C143.49 79.4395 143.884 82.2592 141.93 83.8022L121.373 100.033C119.419 101.576 115.857 101.258 113.417 99.3222C110.978 97.3869 110.584 94.5672 112.539 93.0242L133.095 76.7938C135.049 75.2508 138.611 75.5689 141.051 77.5042Z" fill="#364497"/>
<path d="M141.051 77.5042C143.49 79.4395 143.884 82.2592 141.93 83.8022L121.373 100.033C119.419 101.576 115.857 101.258 113.417 99.3222C110.978 97.3869 110.584 94.5672 112.539 93.0242L133.095 76.7938C135.049 75.2508 138.611 75.5689 141.051 77.5042Z" fill="#364497"/>
<path d="M140.693 117.242C138.067 119.017 134.052 118.71 131.727 116.555L114.252 100.364C111.926 98.2089 112.17 95.0228 114.797 93.2473C117.423 91.4718 121.437 91.7792 123.763 93.9339L141.238 110.126C143.564 112.28 143.32 115.466 140.693 117.242Z" fill="#364497"/>
<path d="M140.693 117.242C138.067 119.017 134.453 119.081 132.621 117.384L113.357 99.5346C111.526 97.8377 112.17 95.0228 114.797 93.2473C117.423 91.4718 121.037 91.4081 122.868 93.105L142.133 110.955C143.964 112.652 143.32 115.466 140.693 117.242Z" fill="#364497"/>
<path d="M140.693 117.242C138.067 119.017 134.453 119.081 132.621 117.384L113.357 99.5346C111.526 97.8377 112.17 95.0228 114.797 93.2473C117.423 91.4718 121.037 91.4081 122.868 93.105L142.133 110.955C143.964 112.652 143.32 115.466 140.693 117.242Z" fill="#364497"/>
<path d="M140.693 117.242C138.067 119.017 134.453 119.081 132.621 117.384L113.357 99.5346C111.526 97.8377 112.17 95.0228 114.797 93.2473C117.423 91.4718 121.037 91.4081 122.868 93.105L142.133 110.955C143.964 112.652 143.32 115.466 140.693 117.242Z" fill="#364497"/>
<path d="M140.693 117.242C138.067 119.017 134.453 119.081 132.621 117.384L113.357 99.5346C111.526 97.8377 112.17 95.0228 114.797 93.2473C117.423 91.4718 121.037 91.4081 122.868 93.105L142.133 110.955C143.964 112.652 143.32 115.466 140.693 117.242Z" fill="#364497"/>
<path d="M63.5469 242.302V243.864H60.1777V246.94L65.0117 251.384L64.0352 252.653L59.3477 248.698L55.4414 253.142L54.2207 251.872L58.3711 246.989V243.864H54.4648V242.253L63.5469 242.302ZM69.7969 240.544V255.778H68.0391V240.495L69.7969 240.544ZM60.2266 261.296V255.388H61.8867V260.368H70.7246L70.8223 261.931H60.9102L60.2266 261.296ZM84.25 246.013H80.832V249.87L85.7637 255.778L84.7871 256.999L79.9043 251.628L75.998 257.292L74.7773 256.022L79.0254 249.919V246.013H75.1191V244.45H84.2012L84.25 246.013ZM89.5234 259.147V242.448H91.5254V259.147H89.5234ZM95.1387 248.259C95.1549 247.803 95.2526 247.323 95.4316 246.818C95.6107 246.314 95.8874 245.915 96.2617 245.622L93.5273 245.329L93.7715 243.815L98.9961 244.353L99.2891 241.032L100.9 241.179L100.656 244.548L105.1 244.987L104.953 246.55L102.512 246.354C102.772 246.664 102.951 247.046 103.049 247.502C103.146 247.958 103.195 248.373 103.195 248.747C103.146 249.3 103.008 249.813 102.78 250.285C102.552 250.757 102.259 251.172 101.901 251.53C101.56 251.872 101.169 252.141 100.729 252.336C100.29 252.531 99.8424 252.629 99.3867 252.629C98.459 252.629 97.7184 252.466 97.165 252.141C96.6117 251.815 96.1803 251.424 95.8711 250.969C95.5781 250.513 95.3828 250.033 95.2852 249.528C95.1875 249.024 95.1387 248.601 95.1387 248.259ZM96.7012 248.259C96.6849 248.308 96.6768 248.381 96.6768 248.479C96.6768 248.755 96.7337 249.04 96.8477 249.333C96.9616 249.61 97.1162 249.87 97.3115 250.114C97.5231 250.358 97.7754 250.562 98.0684 250.725C98.3776 250.871 98.7194 250.944 99.0938 250.944C99.5007 250.944 99.8587 250.871 100.168 250.725C100.477 250.578 100.738 250.391 100.949 250.163C101.161 249.919 101.315 249.642 101.413 249.333C101.527 249.007 101.584 248.674 101.584 248.332C101.584 247.6 101.356 247.022 100.9 246.599C100.445 246.159 99.8506 245.939 99.1182 245.939C98.4508 245.939 97.8893 246.159 97.4336 246.599C96.9941 247.022 96.75 247.575 96.7012 248.259ZM107.248 241.667L108.908 241.862V247.526H112.814V249.187H108.908V256.169L107.15 256.022L107.248 241.667ZM99.9238 261.345V255.339H101.633V260.466H110.031V261.979H100.607L99.9238 261.345ZM129.807 252.653V254.265H121.262L120.529 253.337V243.376H128.732V245.183H122.238V252.507L129.807 252.653ZM136.643 242.253H138.303V256.804H136.643V249.577H134.152V256.657H132.395V242.302H134.152V247.917H136.643V242.253ZM142.6 247.526C142.6 247.315 142.624 247.079 142.673 246.818C142.722 246.542 142.795 246.273 142.893 246.013C142.99 245.736 143.112 245.484 143.259 245.256C143.405 245.028 143.576 244.841 143.771 244.694L141.477 244.401L141.721 242.79L146.408 243.278L146.701 239.86L148.41 240.007L148.166 243.62L152.17 244.108L151.975 245.622L150.021 245.427C150.217 245.72 150.355 246.062 150.437 246.452C150.518 246.826 150.559 247.185 150.559 247.526C150.526 248.796 150.233 249.797 149.68 250.529C149.143 251.245 148.41 251.677 147.482 251.823L147.629 254.948H152.072V256.706H140.646V254.753H145.92L145.847 251.823C145.196 251.742 144.659 251.571 144.235 251.311C143.812 251.034 143.479 250.716 143.234 250.358C142.99 250 142.819 249.618 142.722 249.211C142.624 248.788 142.575 248.381 142.575 247.99C142.575 247.909 142.575 247.836 142.575 247.771C142.575 247.689 142.583 247.608 142.6 247.526ZM144.309 247.526C144.292 247.608 144.284 247.681 144.284 247.746C144.284 247.811 144.284 247.876 144.284 247.941C144.284 248.723 144.496 249.309 144.919 249.699C145.358 250.074 145.977 250.261 146.774 250.261C147.442 250.261 147.954 250.008 148.312 249.504C148.671 248.999 148.85 248.34 148.85 247.526C148.85 246.696 148.654 246.07 148.264 245.646C147.889 245.207 147.344 244.987 146.628 244.987C146.026 244.987 145.505 245.183 145.065 245.573C144.642 245.964 144.39 246.615 144.309 247.526ZM154.172 258.171V240.983H156.076V248.454H159.104V250.065H155.979V258.171H154.172Z" fill="black"/>
<rect x="53" y="193" width="67" height="35" rx="7.04545" fill="#8293F3"/>
<path d="M76.5469 202.302V203.864H73.1777V206.94L78.0117 211.384L77.0352 212.653L72.3477 208.698L68.4414 213.142L67.2207 211.872L71.3711 206.989V203.864H67.4648V202.253L76.5469 202.302ZM82.7969 200.544V215.778H81.0391V200.495L82.7969 200.544ZM73.2266 221.296V215.388H74.8867V220.368H83.7246L83.8223 221.931H73.9102L73.2266 221.296ZM96.2246 212.653V214.265H87.6797L86.9473 213.337V203.376H95.1504V205.183H88.6562V212.507L96.2246 212.653ZM103.061 202.253H104.721V216.804H103.061V209.577H100.57V216.657H98.8125V202.302H100.57V207.917H103.061V202.253Z" fill="black"/>
<rect x="52" y="328" width="88" height="35" rx="7.04545" fill="#8293F3"/>
<path d="M74.3867 349.46L74.0449 345.407H68.918L69.2598 349.753L74.3867 349.46ZM66.7695 339.304H68.4297L68.8691 344.138H73.9473L73.5566 339.255H75.2168L75.5098 343.503H81.9551V337.448H83.4688V354.099H82.1504V345.114H75.6318L76.0469 351.022H68.5762L67.5996 350.681L66.7695 339.304ZM95.5293 338.669L92.1602 352.194L90.4512 351.999L92.3066 344.382H86.2031V342.966H92.6973L93.625 339.45H86.3496V337.839H94.9434L95.5293 338.669ZM99.2891 352.683V335.983H101.193V343.454H105.393V345.065H101.096V352.683H99.2891ZM121.457 338.425H116.623V339.548L121.75 343.259L120.676 344.333L115.891 340.964L111.301 344.382L110.08 343.21L114.963 339.597V338.425H110.275V336.862H114.914V334.177H116.574V336.862H121.457V338.425ZM117.16 347.556L117.111 350.192C118.43 350.339 119.423 350.746 120.09 351.413C120.773 352.08 121.115 352.862 121.115 353.757C121.115 354.278 121.009 354.758 120.798 355.197C120.603 355.637 120.293 356.019 119.87 356.345C119.463 356.687 118.951 356.947 118.332 357.126C117.73 357.321 117.03 357.419 116.232 357.419C115.419 357.419 114.711 357.321 114.108 357.126C113.506 356.947 112.993 356.687 112.57 356.345C112.163 356.019 111.854 355.637 111.643 355.197C111.447 354.758 111.35 354.278 111.35 353.757C111.35 352.845 111.683 352.056 112.351 351.389C113.034 350.721 114.051 350.323 115.402 350.192V347.556H107.297L107.395 346.042H124.436V347.409L117.16 347.556ZM119.406 353.757C119.406 353.155 119.121 352.65 118.552 352.243C117.998 351.82 117.225 351.608 116.232 351.608C115.207 351.608 114.418 351.82 113.864 352.243C113.327 352.65 113.059 353.155 113.059 353.757C113.059 354.375 113.327 354.896 113.864 355.319C114.418 355.743 115.207 355.954 116.232 355.954C117.225 355.954 117.998 355.743 118.552 355.319C119.121 354.896 119.406 354.375 119.406 353.757Z" fill="black"/>
<rect x="53" y="476" width="69.1818" height="35" rx="7.04545" fill="#8293F3"/>
<path d="M76.417 484.813V486.376H73.2432V488.964L77.6865 493.896L76.6611 495.116L72.5107 490.673L69.0439 495.507L67.7744 494.384L71.583 489.013V486.376H68.0674V484.765L76.417 484.813ZM84.0342 483.788L85.6943 484.765V496.435H84.0342V490.478H81.251V495.8H79.4932V483.837H81.251V488.866H84.0342V483.788ZM69.5322 498.046H86.2314V505.419H70.3623L69.6299 504.735L69.5322 498.046ZM71.3389 499.56V503.954H84.6689V499.56H71.3389ZM89.7471 491.796C89.7471 492.187 89.7959 492.602 89.8936 493.041C90.0075 493.48 90.1784 493.887 90.4062 494.262C90.6341 494.62 90.9271 494.921 91.2852 495.165C91.6595 495.393 92.1071 495.507 92.6279 495.507C93.458 495.507 94.1009 495.157 94.5566 494.457C95.0286 493.741 95.2646 492.838 95.2646 491.747C95.2646 490.575 95.0368 489.647 94.5811 488.964C94.1253 488.28 93.4255 487.938 92.4814 487.938C91.57 487.938 90.8864 488.288 90.4307 488.988C89.9749 489.688 89.7471 490.624 89.7471 491.796ZM88.1357 491.747C88.1357 491.177 88.2008 490.575 88.3311 489.94C88.4613 489.306 88.681 488.72 88.9902 488.183C89.3158 487.646 89.7471 487.206 90.2842 486.864C90.8213 486.506 91.4967 486.327 92.3105 486.327C93.1569 486.327 93.873 486.49 94.459 486.815C95.0449 487.125 95.5169 487.54 95.875 488.061C96.2331 488.565 96.4854 489.143 96.6318 489.794C96.7946 490.445 96.876 491.096 96.876 491.747C96.876 492.349 96.8027 492.968 96.6562 493.603C96.5098 494.237 96.2656 494.815 95.9238 495.336C95.582 495.857 95.1263 496.288 94.5566 496.63C93.987 496.955 93.2871 497.118 92.457 497.118C91.7246 497.118 91.0817 496.955 90.5283 496.63C89.9912 496.288 89.5436 495.865 89.1855 495.36C88.8438 494.84 88.5833 494.262 88.4043 493.627C88.2253 492.992 88.1357 492.366 88.1357 491.747ZM104.151 484.276H105.812V499.804H104.151V494.628H101.319V499.657H99.6104V484.325H101.368V488.183H104.151V484.276ZM104.151 493.114V489.843H101.368V493.114H104.151Z" fill="black"/>
<rect x="53" y="620" width="83" height="35" rx="7.04545" fill="#8293F3"/>
<path d="M74.2539 628.325V629.888H70.5918V632.817L75.5234 637.896L74.5469 639.165L69.8594 634.575L65.9531 639.653L64.7324 638.384L68.8828 632.866V629.888H64.9766V628.276L74.2539 628.325ZM81.2363 627.495V640.337H79.6738V633.208H73.8145V631.646H79.5762V627.544L81.2363 627.495ZM66.4414 642.046H83.1406V649.419H67.2715L66.5391 648.735L66.4414 642.046ZM68.3457 643.657V647.954H81.5781V643.657H68.3457ZM85.4844 630.181H92.7598V634.526H96.8125V629.058H98.4238V643.12L96.9102 643.218V636.187H92.6865V641.167H86.2168L85.4355 640.239L85.4844 630.181ZM91.0508 631.89H87.1934V639.263H90.9531L91.0508 631.89ZM101.061 643.853V628.521H102.721V643.706L101.061 643.853ZM119.713 630.62H115.123V631.987L120.348 636.187L119.273 637.261L114.391 633.354L109.459 637.407L108.434 636.089L113.463 632.036V630.62H108.385V629.058H113.414V625.933H115.123V629.058H119.713V630.62ZM114 641.802H105.846V640.044H123.033V641.899H115.709V647.466H114V641.802Z" fill="black"/>
<rect x="17" y="83" width="41" height="42" rx="10" fill="#17AAEF"/>
<path d="M30.2811 103.593L42.7397 91.4109C43.0868 91.0716 43.0868 90.5214 42.7397 90.1821L41.7344 89.1991C41.3873 88.8598 40.8247 88.8598 40.4776 89.1991L26.3853 102.978C26.0382 103.318 26.0382 103.868 26.3853 104.207L40.4776 117.986C40.8247 118.326 41.3873 118.326 41.7344 117.986L42.7397 117.003C43.0868 116.664 43.0868 116.114 42.7397 115.774L30.2811 103.593Z" fill="black"/>
</svg>
