<svg width="430" height="340" viewBox="0 0 430 340" fill="none" xmlns="http://www.w3.org/2000/svg">
<path d="M550.5 208C550.5 265.202 513.212 317.065 452.763 354.654C392.322 392.238 308.791 415.5 216.5 415.5C124.209 415.5 40.6783 392.238 -19.7632 354.654C-80.212 317.065 -117.5 265.202 -117.5 208C-117.5 150.798 -80.212 98.9349 -19.7632 61.3464C40.6783 23.7625 124.209 0.5 216.5 0.5C308.791 0.5 392.322 23.7625 452.763 61.3464C513.212 98.9349 550.5 150.798 550.5 208Z" fill="#3CB03C"/>
<path d="M550.5 208C550.5 265.202 513.212 317.065 452.763 354.654C392.322 392.238 308.791 415.5 216.5 415.5C124.209 415.5 40.6783 392.238 -19.7632 354.654C-80.212 317.065 -117.5 265.202 -117.5 208C-117.5 150.798 -80.212 98.9349 -19.7632 61.3464C40.6783 23.7625 124.209 0.5 216.5 0.5C308.791 0.5 392.322 23.7625 452.763 61.3464C513.212 98.9349 550.5 150.798 550.5 208Z" stroke="black"/>
<path d="M550.5 208C550.5 265.202 513.212 317.065 452.763 354.654C392.322 392.238 308.791 415.5 216.5 415.5C124.209 415.5 40.6783 392.238 -19.7632 354.654C-80.212 317.065 -117.5 265.202 -117.5 208C-117.5 150.798 -80.212 98.9349 -19.7632 61.3464C40.6783 23.7625 124.209 0.5 216.5 0.5C308.791 0.5 392.322 23.7625 452.763 61.3464C513.212 98.9349 550.5 150.798 550.5 208Z" stroke="black" stroke-opacity="0.2"/>
</svg>
