<svg width="430" height="58" viewBox="0 0 430 58" fill="none" xmlns="http://www.w3.org/2000/svg">
<g clip-path="url(#clip0_2020_7805)">
<path fill-rule="evenodd" clip-rule="evenodd" d="M337.968 25.9247H339.264C339.98 25.9247 340.56 26.505 340.56 27.2209V34.9983C340.56 35.7142 339.98 36.2945 339.264 36.2945H337.968C337.252 36.2945 336.671 35.7142 336.671 34.9983V27.2209C336.671 26.505 337.252 25.9247 337.968 25.9247Z" fill="#D1D1D6"/>
<path fill-rule="evenodd" clip-rule="evenodd" d="M332.134 28.5171H333.43C334.146 28.5171 334.727 29.0974 334.727 29.8133V34.9982C334.727 35.7141 334.146 36.2945 333.43 36.2945H332.134C331.418 36.2945 330.838 35.7141 330.838 34.9982V29.8133C330.838 29.0974 331.418 28.5171 332.134 28.5171Z" fill="#D1D1D6"/>
<path fill-rule="evenodd" clip-rule="evenodd" d="M326.301 30.4614H327.597C328.313 30.4614 328.894 31.0418 328.894 31.7577V34.9982C328.894 35.7141 328.313 36.2945 327.597 36.2945H326.301C325.585 36.2945 325.005 35.7141 325.005 34.9982V31.7577C325.005 31.0418 325.585 30.4614 326.301 30.4614Z" fill="#D1D1D6"/>
<path fill-rule="evenodd" clip-rule="evenodd" d="M343.801 23.3322H345.097C345.813 23.3322 346.393 23.9125 346.393 24.6284V34.9982C346.393 35.7141 345.813 36.2945 345.097 36.2945H343.801C343.085 36.2945 342.504 35.7141 342.504 34.9982V24.6284C342.504 23.9125 343.085 23.3322 343.801 23.3322Z" fill="#EBEBF5" fill-opacity="0.3"/>
<path fill-rule="evenodd" clip-rule="evenodd" d="M337.968 25.9247H339.264C339.98 25.9247 340.56 26.505 340.56 27.2209V34.9983C340.56 35.7142 339.98 36.2945 339.264 36.2945H337.968C337.252 36.2945 336.671 35.7142 336.671 34.9983V27.2209C336.671 26.505 337.252 25.9247 337.968 25.9247Z" fill="white"/>
<path fill-rule="evenodd" clip-rule="evenodd" d="M332.134 28.5171H333.43C334.146 28.5171 334.727 29.0974 334.727 29.8133V34.9982C334.727 35.7141 334.146 36.2945 333.43 36.2945H332.134C331.418 36.2945 330.838 35.7141 330.838 34.9982V29.8133C330.838 29.0974 331.418 28.5171 332.134 28.5171Z" fill="white"/>
<path fill-rule="evenodd" clip-rule="evenodd" d="M326.301 30.4614H327.597C328.313 30.4614 328.894 31.0418 328.894 31.7577V34.9982C328.894 35.7141 328.313 36.2945 327.597 36.2945H326.301C325.585 36.2945 325.005 35.7141 325.005 34.9982V31.7577C325.005 31.0418 325.585 30.4614 326.301 30.4614Z" fill="white"/>
<path d="M364.063 32.3275C364.892 32.3275 365.698 32.5453 366.407 32.9607L366.695 33.129C366.913 33.2565 366.951 33.5551 366.773 33.7334L364.317 36.1817C364.167 36.3321 363.922 36.3321 363.771 36.1817L361.332 33.7491C361.154 33.5717 361.191 33.2746 361.407 33.1461L361.692 32.977C362.408 32.5512 363.223 32.3275 364.063 32.3275Z" fill="white"/>
<path d="M364.064 27.83C366.126 27.83 368.106 28.514 369.719 29.7809L369.947 29.9599C370.128 30.1026 370.144 30.3716 369.981 30.5347L368.515 31.9964C368.379 32.1316 368.165 32.1471 368.011 32.0329L367.832 31.9001C366.743 31.0905 365.43 30.6562 364.064 30.6562C362.69 30.6562 361.368 31.0959 360.275 31.9148L360.097 32.0488C359.943 32.164 359.727 32.1488 359.592 32.0132L358.126 30.5521C357.963 30.3893 357.979 30.121 358.159 29.978L358.386 29.7988C360.003 28.5207 361.992 27.83 364.064 27.83Z" fill="white"/>
<path d="M364.064 23.3322C367.337 23.3322 370.466 24.4865 372.943 26.6025L373.155 26.7831C373.326 26.929 373.336 27.1892 373.177 27.3478L371.716 28.8048C371.574 28.9459 371.348 28.9558 371.194 28.8276L371.013 28.6763C369.063 27.0455 366.619 26.1584 364.064 26.1584C361.501 26.1584 359.048 27.0516 357.095 28.6926L356.914 28.8446C356.761 28.9735 356.534 28.9638 356.392 28.8224L354.931 27.3657C354.773 27.2073 354.782 26.9476 354.953 26.8015L355.163 26.6208C357.644 24.4934 360.782 23.3322 364.064 23.3322Z" fill="white"/>
<path d="M410.556 27.2209V27.2209C411.272 27.2209 411.852 27.8013 411.852 28.5172V31.1096C411.852 31.8255 411.272 32.4059 410.556 32.4059V32.4059V27.2209Z" fill="#EBEBF5" fill-opacity="0.3"/>
<path fill-rule="evenodd" clip-rule="evenodd" d="M383.335 22.036H405.371C407.519 22.036 409.26 23.777 409.26 25.9247V33.7021C409.26 35.8498 407.519 37.5908 405.371 37.5908H383.335C381.188 37.5908 379.447 35.8498 379.447 33.7021V25.9247C379.447 23.777 381.188 22.036 383.335 22.036ZM383.335 23.3322C381.904 23.3322 380.743 24.4929 380.743 25.9247V33.7021C380.743 35.1339 381.904 36.2946 383.335 36.2946H405.371C406.803 36.2946 407.964 35.1339 407.964 33.7021V25.9247C407.964 24.4929 406.803 23.3322 405.371 23.3322H383.335Z" fill="#EBEBF5" fill-opacity="0.3"/>
<rect x="382.039" y="24.8511" width="24.6284" height="10.3699" rx="1.29623" fill="white"/>
<path d="M39.0035 36.1512C42.4878 36.1512 44.5574 33.4265 44.5574 28.8124C44.5574 27.0751 44.2251 25.613 43.589 24.4832C42.6681 22.7269 41.0827 21.7775 39.0794 21.7775C36.0984 21.7775 33.9907 23.7807 33.9907 26.5909C33.9907 29.2302 35.8895 31.1479 38.5003 31.1479C40.1048 31.1479 41.4054 30.3979 42.051 29.0973H42.0795C42.0795 29.0973 42.1175 29.0973 42.127 29.0973C42.146 29.0973 42.2124 29.0973 42.2124 29.0973C42.2124 32.2302 41.0257 34.1005 39.0225 34.1005C37.8452 34.1005 36.9338 33.4549 36.6205 32.4201H34.1806C34.5888 34.6702 36.4971 36.1512 39.0035 36.1512ZM39.0889 29.2017C37.513 29.2017 36.3927 28.0814 36.3927 26.5149C36.3927 24.9864 37.5699 23.8187 39.0984 23.8187C40.6269 23.8187 41.8042 25.0054 41.8042 26.5529C41.8042 28.0814 40.6554 29.2017 39.0889 29.2017Z" fill="white"/>
<path d="M48.5642 36.0183C49.4661 36.0183 50.0832 35.3727 50.0832 34.5183C50.0832 33.6543 49.4661 33.0182 48.5642 33.0182C47.6718 33.0182 47.0452 33.6543 47.0452 34.5183C47.0452 35.3727 47.6718 36.0183 48.5642 36.0183ZM48.5642 28.8979C49.4661 28.8979 50.0832 28.2618 50.0832 27.4073C50.0832 26.5434 49.4661 25.9073 48.5642 25.9073C47.6718 25.9073 47.0452 26.5434 47.0452 27.4073C47.0452 28.2618 47.6718 28.8979 48.5642 28.8979Z" fill="white"/>
<path d="M58.9699 35.8189H61.3149V33.2651H63.1662V31.1954H61.3149V22.1192H57.8591C55.4382 25.7649 53.5109 28.8124 52.2767 31.0815V33.2651H58.9699V35.8189ZM54.5457 31.11C56.1407 28.2998 57.5648 26.0497 58.875 24.113H59.0079V31.2524H54.5457V31.11Z" fill="white"/>
<path d="M68.3882 35.8189H70.8376V22.1192H68.3977L64.8185 24.6256V26.9801L68.2268 24.5877H68.3882V35.8189Z" fill="white"/>
<rect x="160.471" y="12.4637" width="109.058" height="34.2754" rx="17.1377" fill="black"/>
<circle cx="252.391" cy="29.6015" r="10.9058" fill="url(#paint0_radial_2020_7805)"/>
<circle cx="252.391" cy="29.6014" r="6.71126" fill="black"/>
<g filter="url(#filter0_f_2020_7805)">
<path d="M254.943 30.2112C254.07 29.6015 253.65 27.9237 253.65 24.5681C254.07 22.8903 257.845 25.407 258.264 28.7626C258.53 30.8849 256.697 31.4358 254.943 30.2112Z" fill="#3E89CC"/>
</g>
<g filter="url(#filter1_f_2020_7805)">
<path d="M249.036 26.6653C248.677 27.4039 248.435 31.2793 246.939 31.2793C245.499 31.2793 245.905 28.1121 247.734 25.8543C250.315 22.6682 249.855 24.9821 249.036 26.6653Z" fill="#3E89CC" fill-opacity="0.79"/>
</g>
<g filter="url(#filter2_f_2020_7805)">
<path d="M251.074 31.766C252.058 31.9565 258.296 30.0508 257.321 32.6972C256.384 35.243 251.422 36.4315 248.888 34.5567C245.311 31.911 248.829 31.3316 251.074 31.766Z" fill="#003C72" fill-opacity="0.79"/>
</g>
</g>
<defs>
<filter id="filter0_f_2020_7805" x="250.12" y="20.5039" width="11.6999" height="13.8795" filterUnits="userSpaceOnUse" color-interpolation-filters="sRGB">
<feFlood flood-opacity="0" result="BackgroundImageFix"/>
<feBlend mode="normal" in="SourceGraphic" in2="BackgroundImageFix" result="shape"/>
<feGaussianBlur stdDeviation="1.76506" result="effect1_foregroundBlur_2020_7805"/>
</filter>
<filter id="filter1_f_2020_7805" x="244.304" y="22.5006" width="7.14047" height="10.5438" filterUnits="userSpaceOnUse" color-interpolation-filters="sRGB">
<feFlood flood-opacity="0" result="BackgroundImageFix"/>
<feBlend mode="normal" in="SourceGraphic" in2="BackgroundImageFix" result="shape"/>
<feGaussianBlur stdDeviation="0.88253" result="effect1_foregroundBlur_2020_7805"/>
</filter>
<filter id="filter2_f_2020_7805" x="244.71" y="28.6316" width="15.3621" height="9.48976" filterUnits="userSpaceOnUse" color-interpolation-filters="sRGB">
<feFlood flood-opacity="0" result="BackgroundImageFix"/>
<feBlend mode="normal" in="SourceGraphic" in2="BackgroundImageFix" result="shape"/>
<feGaussianBlur stdDeviation="1.32379" result="effect1_foregroundBlur_2020_7805"/>
</filter>
<radialGradient id="paint0_radial_2020_7805" cx="0" cy="0" r="1" gradientUnits="userSpaceOnUse" gradientTransform="translate(252.391 29.6015) rotate(90) scale(10.9058)">
<stop offset="0.684883" stop-color="#0D0E10"/>
<stop offset="1" stop-color="#1A1B1D"/>
</radialGradient>
<clipPath id="clip0_2020_7805">
<rect width="430" height="57.6449" fill="white"/>
</clipPath>
</defs>
</svg>
