<svg width="189" height="59" viewBox="0 0 189 59" fill="none" xmlns="http://www.w3.org/2000/svg">
<rect x="1" y="1" width="187" height="57" rx="19" fill="#8293F3"/>
<rect x="1" y="1" width="187" height="57" rx="19" stroke="black" stroke-width="2"/>
<path d="M145.406 39.7558V18.2476L158.594 29.0017L145.406 39.7558ZM146.992 41.4442L160.177 30.6901C160.436 30.4797 160.643 30.2201 160.785 29.9289C160.927 29.6377 161 29.3215 161 29.0017C161 28.6818 160.927 28.3657 160.785 28.0745C160.643 27.7832 160.436 27.5237 160.177 27.3132L146.994 16.5591C145.433 15.29 143 16.3214 143 18.2476V39.7558C143 40.1868 143.133 40.6089 143.383 40.9713C143.633 41.3338 143.99 41.6214 144.412 41.7995C144.833 41.9777 145.3 42.0389 145.758 41.9759C146.215 41.9129 146.644 41.7283 146.992 41.4442Z" fill="black"/>
<path d="M40.804 28.172H49.82V31.224H27.84V28.172H37.164V26.184H30.752V17.476H34.392V19.548H43.436V17.476H47.048V26.184H40.804V28.172ZM30.388 33.352H47.356V36.012C47.3373 36.7027 47.2627 37.356 47.132 37.972C47.02 38.588 46.8893 39.1293 46.74 39.596C46.572 40.1373 46.3853 40.6413 46.18 41.108H42.736C43.0533 40.492 43.296 39.904 43.464 39.344C43.632 38.8027 43.7533 38.3267 43.828 37.916C43.9027 37.4307 43.94 36.9827 43.94 36.572H30.388V33.352ZM34.392 23.496H43.436V22.208H34.392V23.496ZM72.9963 30.44H51.4923V27.556H72.9963V30.44ZM70.4763 41.108H53.8163V32.148H57.3443V34.192H67.1163V32.148H70.4763V41.108ZM57.3443 38.364H67.1163V36.712H57.3443V38.364ZM64.1203 17.532V18.372C64.1203 18.8573 64.2977 19.3707 64.6523 19.912C65.007 20.4347 65.4923 20.9387 66.1083 21.424C66.743 21.8907 67.4897 22.3013 68.3483 22.656C69.207 23.0107 70.131 23.2627 71.1203 23.412V26.212C70.4857 26.1 69.7297 25.9507 68.8523 25.764C67.975 25.5587 67.0977 25.288 66.2203 24.952C65.3617 24.616 64.5497 24.196 63.7843 23.692C63.0377 23.1693 62.4777 22.5253 62.1043 21.76C61.8803 22.3013 61.535 22.7867 61.0683 23.216C60.6203 23.6267 60.0977 23.9907 59.5003 24.308C58.9217 24.6253 58.3057 24.896 57.6523 25.12C56.999 25.344 56.3643 25.5307 55.7483 25.68C55.1323 25.8293 54.5723 25.9507 54.0683 26.044C53.5643 26.1187 53.1723 26.1747 52.8923 26.212V23.216C53.919 23.1413 54.871 22.9453 55.7483 22.628C56.6443 22.292 57.419 21.9 58.0723 21.452C58.7443 20.9853 59.267 20.4813 59.6403 19.94C60.0323 19.38 60.2283 18.848 60.2283 18.344V17.532H64.1203ZM81.7892 30.776H90.7492C91.0479 30.0667 91.2812 29.4227 91.4492 28.844C91.6172 28.2653 91.7479 27.7053 91.8412 27.164H83.3572V24.364H92.1772L92.2052 22.012H82.9092V18.96H95.8172V22.852C95.8172 23.7853 95.7519 24.6813 95.6212 25.54C95.5092 26.38 95.3692 27.1547 95.2012 27.864C95.0332 28.5733 94.8652 29.18 94.6972 29.684C94.5292 30.188 94.3986 30.552 94.3052 30.776H97.6652V33.884H90.7212V41.192H87.1372V33.884H81.7892V30.776ZM102.285 41.136H98.6732V17.56H102.285V41.136ZM105.617 23.216V19.772H122.753V23.216H117.041C117.396 23.9067 117.797 24.5227 118.245 25.064C118.712 25.5867 119.206 26.0627 119.729 26.492C120.252 26.9213 120.802 27.3133 121.381 27.668C121.96 28.004 122.557 28.3213 123.173 28.62V31.588C122.333 31.4387 121.465 31.1587 120.569 30.748C119.692 30.3373 118.852 29.852 118.049 29.292C117.246 28.732 116.509 28.1253 115.837 27.472C115.184 26.8 114.652 26.1373 114.241 25.484C113.849 26.2307 113.242 26.968 112.421 27.696C111.618 28.4053 110.76 29.0493 109.845 29.628C108.93 30.2067 108.034 30.692 107.157 31.084C106.298 31.4573 105.626 31.6813 105.141 31.756V28.564C106.56 27.9853 107.782 27.2293 108.809 26.296C109.854 25.3627 110.676 24.336 111.273 23.216H105.617ZM124.825 38.112V34.696H103.965V38.112H124.825Z" fill="black"/>
</svg>
