<svg width="430" height="932" viewBox="0 0 430 932" fill="none" xmlns="http://www.w3.org/2000/svg">
<g clip-path="url(#clip0_2011_4068)">
<rect width="430" height="932" fill="#75D1FB"/>
<rect x="151" y="919" width="134" height="5" rx="2.5" fill="black"/>
<g clip-path="url(#clip1_2011_4068)">
<path fill-rule="evenodd" clip-rule="evenodd" d="M337.967 25.9247H339.263C339.979 25.9247 340.56 26.505 340.56 27.2209V34.9983C340.56 35.7142 339.979 36.2945 339.263 36.2945H337.967C337.251 36.2945 336.671 35.7142 336.671 34.9983V27.2209C336.671 26.505 337.251 25.9247 337.967 25.9247Z" fill="#D1D1D6"/>
<path fill-rule="evenodd" clip-rule="evenodd" d="M332.134 28.5171H333.43C334.146 28.5171 334.727 29.0974 334.727 29.8133V34.9982C334.727 35.7141 334.146 36.2945 333.43 36.2945H332.134C331.418 36.2945 330.838 35.7141 330.838 34.9982V29.8133C330.838 29.0974 331.418 28.5171 332.134 28.5171Z" fill="#D1D1D6"/>
<path fill-rule="evenodd" clip-rule="evenodd" d="M326.301 30.4614H327.597C328.313 30.4614 328.894 31.0418 328.894 31.7577V34.9982C328.894 35.7141 328.313 36.2945 327.597 36.2945H326.301C325.585 36.2945 325.005 35.7141 325.005 34.9982V31.7577C325.005 31.0418 325.585 30.4614 326.301 30.4614Z" fill="#D1D1D6"/>
<path fill-rule="evenodd" clip-rule="evenodd" d="M343.8 23.3322H345.096C345.812 23.3322 346.393 23.9125 346.393 24.6284V34.9982C346.393 35.7141 345.812 36.2945 345.096 36.2945H343.8C343.084 36.2945 342.504 35.7141 342.504 34.9982V24.6284C342.504 23.9125 343.084 23.3322 343.8 23.3322Z" fill="#EBEBF5" fill-opacity="0.3"/>
<path fill-rule="evenodd" clip-rule="evenodd" d="M337.967 25.9247H339.263C339.979 25.9247 340.56 26.505 340.56 27.2209V34.9983C340.56 35.7142 339.979 36.2945 339.263 36.2945H337.967C337.251 36.2945 336.671 35.7142 336.671 34.9983V27.2209C336.671 26.505 337.251 25.9247 337.967 25.9247Z" fill="white"/>
<path fill-rule="evenodd" clip-rule="evenodd" d="M332.134 28.5171H333.43C334.146 28.5171 334.727 29.0974 334.727 29.8133V34.9982C334.727 35.7141 334.146 36.2945 333.43 36.2945H332.134C331.418 36.2945 330.838 35.7141 330.838 34.9982V29.8133C330.838 29.0974 331.418 28.5171 332.134 28.5171Z" fill="white"/>
<path fill-rule="evenodd" clip-rule="evenodd" d="M326.301 30.4614H327.597C328.313 30.4614 328.894 31.0418 328.894 31.7577V34.9982C328.894 35.7141 328.313 36.2945 327.597 36.2945H326.301C325.585 36.2945 325.005 35.7141 325.005 34.9982V31.7577C325.005 31.0418 325.585 30.4614 326.301 30.4614Z" fill="white"/>
<path d="M364.064 32.3275C364.893 32.3275 365.698 32.5453 366.408 32.9607L366.696 33.129C366.914 33.2565 366.952 33.5551 366.773 33.7334L364.318 36.1817C364.167 36.3321 363.923 36.3321 363.772 36.1817L361.332 33.7491C361.155 33.5717 361.192 33.2746 361.408 33.1461L361.692 32.977C362.408 32.5512 363.224 32.3275 364.064 32.3275Z" fill="white"/>
<path d="M364.064 27.83C366.126 27.83 368.106 28.514 369.719 29.7809L369.947 29.9599C370.128 30.1026 370.144 30.3716 369.981 30.5347L368.515 31.9964C368.379 32.1316 368.165 32.1471 368.011 32.0329L367.833 31.9001C366.743 31.0905 365.43 30.6562 364.064 30.6562C362.69 30.6562 361.368 31.0959 360.275 31.9148L360.097 32.0488C359.943 32.164 359.728 32.1488 359.592 32.0132L358.126 30.5521C357.963 30.3893 357.979 30.121 358.16 29.978L358.386 29.7988C360.003 28.5207 361.992 27.83 364.064 27.83Z" fill="white"/>
<path d="M364.064 23.3322C367.337 23.3322 370.466 24.4865 372.943 26.6025L373.155 26.7831C373.326 26.929 373.336 27.1892 373.177 27.3478L371.716 28.8048C371.574 28.9459 371.348 28.9558 371.194 28.8276L371.013 28.6763C369.063 27.0455 366.619 26.1584 364.064 26.1584C361.501 26.1584 359.048 27.0516 357.095 28.6926L356.914 28.8446C356.761 28.9735 356.534 28.9638 356.392 28.8224L354.931 27.3657C354.773 27.2073 354.782 26.9476 354.953 26.8015L355.163 26.6208C357.644 24.4934 360.782 23.3322 364.064 23.3322Z" fill="white"/>
<path d="M410.556 27.2209C411.272 27.2209 411.852 27.8013 411.852 28.5172V31.1096C411.852 31.8255 411.272 32.4059 410.556 32.4059V27.2209Z" fill="#EBEBF5" fill-opacity="0.3"/>
<path fill-rule="evenodd" clip-rule="evenodd" d="M383.335 22.036H405.371C407.519 22.036 409.26 23.777 409.26 25.9247V33.7021C409.26 35.8498 407.519 37.5908 405.371 37.5908H383.335C381.187 37.5908 379.446 35.8498 379.446 33.7021V25.9247C379.446 23.777 381.187 22.036 383.335 22.036ZM383.335 23.3322C381.903 23.3322 380.743 24.4929 380.743 25.9247V33.7021C380.743 35.1339 381.903 36.2946 383.335 36.2946H405.371C406.803 36.2946 407.964 35.1339 407.964 33.7021V25.9247C407.964 24.4929 406.803 23.3322 405.371 23.3322H383.335Z" fill="#EBEBF5" fill-opacity="0.3"/>
<rect x="382.039" y="24.8511" width="24.6284" height="10.3699" rx="1.29623" fill="white"/>
<path d="M39.0033 36.1512C42.4875 36.1512 44.5572 33.4265 44.5572 28.8124C44.5572 27.0751 44.2249 25.613 43.5888 24.4832C42.6679 22.7269 41.0824 21.7775 39.0792 21.7775C36.0981 21.7775 33.9905 23.7807 33.9905 26.5909C33.9905 29.2302 35.8893 31.1479 38.5001 31.1479C40.1045 31.1479 41.4052 30.3979 42.0508 29.0973H42.0793C42.0793 29.0973 42.1172 29.0973 42.1267 29.0973C42.1457 29.0973 42.2122 29.0973 42.2122 29.0973C42.2122 32.2302 41.0254 34.1005 39.0222 34.1005C37.845 34.1005 36.9336 33.4549 36.6203 32.4201H34.1804C34.5886 34.6702 36.4969 36.1512 39.0033 36.1512ZM39.0887 29.2017C37.5127 29.2017 36.3924 28.0814 36.3924 26.5149C36.3924 24.9864 37.5697 23.8187 39.0982 23.8187C40.6267 23.8187 41.8039 25.0054 41.8039 26.5529C41.8039 28.0814 40.6552 29.2017 39.0887 29.2017Z" fill="white"/>
<path d="M48.564 36.0183C49.4659 36.0183 50.083 35.3727 50.083 34.5183C50.083 33.6543 49.4659 33.0182 48.564 33.0182C47.6715 33.0182 47.0449 33.6543 47.0449 34.5183C47.0449 35.3727 47.6715 36.0183 48.564 36.0183ZM48.564 28.8979C49.4659 28.8979 50.083 28.2618 50.083 27.4073C50.083 26.5434 49.4659 25.9073 48.564 25.9073C47.6715 25.9073 47.0449 26.5434 47.0449 27.4073C47.0449 28.2618 47.6715 28.8979 48.564 28.8979Z" fill="white"/>
<path d="M58.9697 35.8189H61.3146V33.2651H63.1659V31.1954H61.3146V22.1192H57.8589C55.4379 25.7649 53.5107 28.8124 52.2765 31.0815V33.2651H58.9697V35.8189ZM54.5455 31.11C56.1405 28.2998 57.5646 26.0497 58.8747 24.113H59.0076V31.2524H54.5455V31.11Z" fill="white"/>
<path d="M68.388 35.8189H70.8374V22.1192H68.3975L64.8183 24.6256V26.9801L68.2266 24.5877H68.388V35.8189Z" fill="white"/>
<rect x="160.471" y="12.4637" width="109.058" height="34.2754" rx="17.1377" fill="black"/>
<circle cx="252.391" cy="29.6015" r="10.9058" fill="url(#paint0_radial_2011_4068)"/>
<circle cx="252.391" cy="29.6014" r="6.71126" fill="black"/>
<g filter="url(#filter0_f_2011_4068)">
<path d="M254.943 30.2112C254.07 29.6015 253.65 27.9237 253.65 24.5681C254.07 22.8903 257.845 25.407 258.264 28.7626C258.529 30.8849 256.696 31.4358 254.943 30.2112Z" fill="#3E89CC"/>
</g>
<g filter="url(#filter1_f_2011_4068)">
<path d="M249.036 26.6653C248.677 27.4039 248.435 31.2793 246.938 31.2793C245.499 31.2793 245.905 28.1121 247.734 25.8543C250.314 22.6682 249.854 24.9821 249.036 26.6653Z" fill="#3E89CC" fill-opacity="0.79"/>
</g>
<g filter="url(#filter2_f_2011_4068)">
<path d="M251.074 31.766C252.058 31.9565 258.296 30.0508 257.321 32.6972C256.384 35.243 251.422 36.4315 248.888 34.5567C245.311 31.911 248.829 31.3316 251.074 31.766Z" fill="#003C72" fill-opacity="0.79"/>
</g>
</g>
<path d="M71 168C71 158.611 78.6112 151 88 151H340C349.389 151 357 158.611 357 168C357 177.389 349.389 185 340 185H88C78.6112 185 71 177.389 71 168Z" fill="white"/>
<path d="M87.4611 166.543C87.6006 166.543 87.7343 166.604 87.8329 166.712C87.9315 166.82 87.9869 166.967 87.9869 167.12V168.275C87.9869 169.5 88.43 170.675 89.2187 171.542C90.0074 172.408 91.0771 172.895 92.1926 172.895C93.308 172.895 94.3777 172.408 95.1665 171.542C95.9552 170.675 96.3983 169.5 96.3983 168.275V167.12C96.3983 166.967 96.4537 166.82 96.5523 166.712C96.6509 166.604 96.7846 166.543 96.924 166.543C97.0634 166.543 97.1971 166.604 97.2957 166.712C97.3943 166.82 97.4497 166.967 97.4497 167.12V168.275C97.4497 169.707 96.9656 171.087 96.0914 172.149C95.2171 173.21 94.015 173.878 92.7183 174.021V176.359H95.8726C96.012 176.359 96.1457 176.42 96.2443 176.529C96.3429 176.637 96.3983 176.784 96.3983 176.937C96.3983 177.09 96.3429 177.237 96.2443 177.345C96.1457 177.453 96.012 177.514 95.8726 177.514H88.5126C88.3731 177.514 88.2394 177.453 88.1408 177.345C88.0422 177.237 87.9869 177.09 87.9869 176.937C87.9869 176.784 88.0422 176.637 88.1408 176.529C88.2394 176.42 88.3731 176.359 88.5126 176.359H91.6669V174.021C90.3701 173.878 89.168 173.21 88.2937 172.149C87.4195 171.087 86.9354 169.707 86.9354 168.275V167.12C86.9354 166.967 86.9908 166.82 87.0894 166.712C87.188 166.604 87.3217 166.543 87.4611 166.543Z" fill="black"/>
<path d="M94.3831 168.475C94.3831 169.104 94.1523 169.706 93.7415 170.15C93.3307 170.595 92.7735 170.844 92.1926 170.844C91.6116 170.844 91.0545 170.595 90.6437 170.15C90.2329 169.706 90.0021 169.104 90.0021 168.475V162.553C90.0021 161.925 90.2329 161.322 90.6437 160.878C91.0545 160.434 91.6116 160.184 92.1926 160.184C92.7735 160.184 93.3307 160.434 93.7415 160.878C94.1523 161.322 94.3831 161.925 94.3831 162.553V168.475ZM92.1926 159C91.3211 159 90.4854 159.374 89.8692 160.041C89.253 160.707 88.9069 161.611 88.9069 162.553V168.475C88.9069 169.418 89.253 170.321 89.8692 170.988C90.4854 171.654 91.3211 172.029 92.1926 172.029C93.064 172.029 93.8997 171.654 94.5159 170.988C95.1321 170.321 95.4783 169.418 95.4783 168.475V162.553C95.4783 161.611 95.1321 160.707 94.5159 160.041C93.8997 159.374 93.064 159 92.1926 159Z" fill="black"/>
<g clip-path="url(#clip2_2011_4068)">
<path d="M338.21 170.637C339.299 169.151 339.787 167.308 339.576 165.477C339.365 163.646 338.47 161.962 337.071 160.763C335.672 159.564 333.872 158.937 332.03 159.008C330.188 159.078 328.442 159.842 327.139 161.146C325.836 162.449 325.074 164.197 325.004 166.038C324.935 167.88 325.563 169.68 326.763 171.078C327.964 172.476 329.648 173.37 331.479 173.58C333.31 173.789 335.152 173.3 336.638 172.21H336.637C336.67 172.255 336.707 172.298 336.747 172.339L341.079 176.67C341.289 176.881 341.576 177 341.874 177C342.173 177 342.459 176.882 342.67 176.671C342.881 176.46 343 176.174 343 175.875C343 175.577 342.881 175.291 342.67 175.08L338.339 170.748C338.299 170.708 338.256 170.671 338.21 170.637ZM338.5 166.312C338.5 167.125 338.34 167.93 338.029 168.68C337.718 169.431 337.262 170.113 336.688 170.688C336.113 171.262 335.431 171.718 334.68 172.029C333.93 172.34 333.125 172.5 332.313 172.5C331.5 172.5 330.695 172.34 329.945 172.029C329.194 171.718 328.512 171.262 327.937 170.688C327.363 170.113 326.907 169.431 326.596 168.68C326.285 167.93 326.125 167.125 326.125 166.312C326.125 164.671 326.777 163.098 327.937 161.937C329.098 160.777 330.672 160.125 332.313 160.125C333.954 160.125 335.527 160.777 336.688 161.937C337.848 163.098 338.5 164.671 338.5 166.312Z" fill="black"/>
</g>
<path d="M110.784 168.312H123.856V169.384H110.784V168.312ZM116.672 166.776H117.984V168.792H116.672V166.776ZM112.48 172.872H122.416V173.928H112.48V172.872ZM112.48 170.328H113.808V173.448H112.48V170.328ZM111.472 161.112H123.104V162.152H111.472V161.112ZM117.328 162.776C120.288 162.776 122 163.544 122 164.984C122 166.408 120.288 167.176 117.328 167.176C114.368 167.176 112.656 166.408 112.656 164.984C112.656 163.544 114.368 162.776 117.328 162.776ZM117.328 163.752C115.184 163.752 114 164.184 114 164.984C114 165.768 115.184 166.2 117.328 166.2C119.456 166.2 120.656 165.768 120.656 164.984C120.656 164.184 119.456 163.752 117.328 163.752ZM116.672 159.624H117.984V161.688H116.672V159.624ZM127.071 161.192H136.255V162.28H127.071V161.192ZM125.503 171.192H138.575V172.28H125.503V171.192ZM135.711 161.192H137.007V162.568C137.007 164.328 137.007 166.312 136.415 169.272L135.087 169.112C135.711 166.312 135.711 164.28 135.711 162.568V161.192ZM135.999 164.664V165.672L126.879 166.184L126.671 165.032L135.999 164.664ZM130.591 167.448H131.919V171.592H130.591V167.448ZM141.838 166.344H151.854V167.432H141.838V166.344ZM140.238 171.288H153.342V172.392H140.238V171.288ZM146.11 167.016H147.422V171.64H146.11V167.016ZM141.838 161H143.166V166.824H141.838V161Z" fill="black"/>
<path d="M71 238C71 221.431 84.4315 208 101 208H327C343.569 208 357 221.431 357 238V474C357 490.569 343.569 504 327 504H101C84.4315 504 71 490.569 71 474V238Z" fill="#3A748F"/>
<rect x="72.5" y="209.5" width="283" height="46" rx="23" fill="white" stroke="#3A748F" stroke-width="3"/>
<path d="M188.382 233.14H204.722V234.48H188.382V233.14ZM195.742 231.22H197.382V233.74H195.742V231.22ZM190.502 238.84H202.922V240.16H190.502V238.84ZM190.502 235.66H192.162V239.56H190.502V235.66ZM189.242 224.14H203.782V225.44H189.242V224.14ZM196.562 226.22C200.262 226.22 202.402 227.18 202.402 228.98C202.402 230.76 200.262 231.72 196.562 231.72C192.862 231.72 190.722 230.76 190.722 228.98C190.722 227.18 192.862 226.22 196.562 226.22ZM196.562 227.44C193.882 227.44 192.402 227.98 192.402 228.98C192.402 229.96 193.882 230.5 196.562 230.5C199.222 230.5 200.722 229.96 200.722 228.98C200.722 227.98 199.222 227.44 196.562 227.44ZM195.742 222.28H197.382V224.86H195.742V222.28ZM208.741 224.24H220.221V225.6H208.741V224.24ZM206.781 236.74H223.121V238.1H206.781V236.74ZM219.541 224.24H221.161V225.96C221.161 228.16 221.161 230.64 220.421 234.34L218.761 234.14C219.541 230.64 219.541 228.1 219.541 225.96V224.24ZM219.901 228.58V229.84L208.501 230.48L208.241 229.04L219.901 228.58ZM213.141 232.06H214.801V237.24H213.141V232.06ZM227.199 230.68H239.719V232.04H227.199V230.68ZM225.199 236.86H241.579V238.24H225.199V236.86ZM232.539 231.52H234.179V237.3H232.539V231.52ZM227.199 224H228.859V231.28H227.199V224Z" fill="black"/>
<path d="M99 309C99 292.431 112.431 279 129 279H298C314.569 279 328 292.431 328 309V428C328 444.569 314.569 458 298 458H129C112.431 458 99 444.569 99 428V309Z" fill="white"/>
<path d="M201.85 298.425H207.625V300.15H201.85V298.425ZM206.75 294.35H208.825V306H206.75V294.35ZM194.275 307.175H208.825V312.575H196.375V316H194.35V311.025H206.775V308.825H194.275V307.175ZM194.35 315H209.675V316.65H194.35V315ZM195.875 295.05H197.575V297.175C197.575 301.35 195.075 304.725 191.3 306.075L190.225 304.425C193.625 303.275 195.875 300.45 195.875 297.175V295.05ZM196.225 295.05H197.9V297.175C197.9 300.125 200.175 302.85 203.45 303.925L202.375 305.55C198.725 304.25 196.225 301 196.225 297.175V295.05ZM224.023 298H230.548V299.7H224.023V298ZM224.023 302.5H230.598V304.175H224.023V302.5ZM229.748 294.35H231.823V307.725H229.748V294.35ZM214.273 296.05H224.598V306.1H214.273V296.05ZM222.548 297.725H216.298V304.45H222.548V297.725ZM224.398 308.375C229.048 308.375 231.923 309.95 231.923 312.65C231.923 315.35 229.048 316.9 224.398 316.9C219.723 316.9 216.848 315.35 216.848 312.65C216.848 309.95 219.723 308.375 224.398 308.375ZM224.398 310.025C220.998 310.025 218.923 311 218.923 312.65C218.923 314.3 220.998 315.275 224.398 315.275C227.798 315.275 229.873 314.3 229.873 312.65C229.873 311 227.798 310.025 224.398 310.025Z" fill="black"/>
<path d="M181.351 354V353.045C181.351 352.764 181.405 352.467 181.511 352.156C181.617 351.844 181.764 351.546 181.953 351.261C182.142 350.976 182.364 350.732 182.619 350.53L183.355 351.057C183.153 351.352 182.98 351.66 182.838 351.982C182.695 352.303 182.624 352.653 182.624 353.031V354H181.351ZM184.326 356.898H195.764V357.836H184.326V356.898ZM189.478 355.554H190.626V357.318H189.478V355.554ZM185.81 360.888H194.504V361.812H185.81V360.888ZM185.81 358.662H186.972V361.392H185.81V358.662ZM184.928 350.598H195.106V351.508H184.928V350.598ZM190.052 352.054C192.642 352.054 194.14 352.726 194.14 353.986C194.14 355.232 192.642 355.904 190.052 355.904C187.462 355.904 185.964 355.232 185.964 353.986C185.964 352.726 187.462 352.054 190.052 352.054ZM190.052 352.908C188.176 352.908 187.14 353.286 187.14 353.986C187.14 354.672 188.176 355.05 190.052 355.05C191.914 355.05 192.964 354.672 192.964 353.986C192.964 353.286 191.914 352.908 190.052 352.908ZM189.478 349.296H190.626V351.102H189.478V349.296ZM198.577 350.668H206.613V351.62H198.577V350.668ZM197.205 359.418H208.643V360.37H197.205V359.418ZM206.137 350.668H207.271V351.872C207.271 353.412 207.271 355.148 206.753 357.738L205.591 357.598C206.137 355.148 206.137 353.37 206.137 351.872V350.668ZM206.389 353.706V354.588L198.409 355.036L198.227 354.028L206.389 353.706ZM201.657 356.142H202.819V359.768H201.657V356.142ZM211.497 355.176H220.261V356.128H211.497V355.176ZM210.097 359.502H221.563V360.468H210.097V359.502ZM215.235 355.764H216.383V359.81H215.235V355.764ZM211.497 350.5H212.659V355.596H211.497V350.5ZM224.553 350.818V351.773C224.553 352.054 224.5 352.351 224.394 352.663C224.292 352.971 224.146 353.268 223.957 353.553C223.768 353.838 223.546 354.083 223.291 354.288L222.555 353.761C222.75 353.476 222.919 353.173 223.062 352.852C223.208 352.53 223.281 352.175 223.281 351.788V350.818H224.553ZM231.011 353.23H239.607V354.182H231.011V353.23ZM229.457 355.876H240.937V356.828H229.457V355.876ZM231.011 349.898H232.159V353.706H231.011V349.898ZM230.927 360.832H239.677V361.784H230.927V360.832ZM230.927 358.088H232.075V361.084H230.927V358.088ZM136.747 374V373.045C136.747 372.764 136.8 372.467 136.906 372.156C137.012 371.844 137.16 371.546 137.349 371.261C137.537 370.976 137.76 370.732 138.015 370.53L138.751 371.057C138.548 371.352 138.376 371.66 138.233 371.982C138.091 372.303 138.02 372.653 138.02 373.031V374H136.747ZM139.282 374V373.045C139.282 372.764 139.336 372.467 139.442 372.156C139.548 371.844 139.695 371.546 139.884 371.261C140.073 370.976 140.295 370.732 140.55 370.53L141.286 371.057C141.084 371.352 140.912 371.66 140.769 371.982C140.626 372.303 140.555 372.653 140.555 373.031V374H139.282ZM142.25 376.898H153.688V377.836H142.25V376.898ZM147.402 375.554H148.55V377.318H147.402V375.554ZM143.734 380.888H152.428V381.812H143.734V380.888ZM143.734 378.662H144.896V381.392H143.734V378.662ZM142.852 370.598H153.03V371.508H142.852V370.598ZM147.976 372.054C150.566 372.054 152.064 372.726 152.064 373.986C152.064 375.232 150.566 375.904 147.976 375.904C145.386 375.904 143.888 375.232 143.888 373.986C143.888 372.726 145.386 372.054 147.976 372.054ZM147.976 372.908C146.1 372.908 145.064 373.286 145.064 373.986C145.064 374.672 146.1 375.05 147.976 375.05C149.838 375.05 150.888 374.672 150.888 373.986C150.888 373.286 149.838 372.908 147.976 372.908ZM147.402 369.296H148.55V371.102H147.402V369.296ZM158.265 371.242H159.189V373.3C159.189 375.932 157.579 378.648 155.605 379.656L154.933 378.732C156.739 377.85 158.265 375.442 158.265 373.3V371.242ZM158.475 371.242H159.399V373.3C159.399 375.302 160.827 377.556 162.661 378.424L162.003 379.348C160.001 378.354 158.475 375.806 158.475 373.3V371.242ZM155.381 370.724H162.199V371.704H155.381V370.724ZM163.697 369.436H164.873V382.092H163.697V369.436ZM164.593 374.546H166.945V375.526H164.593V374.546ZM173.085 370.668H181.121V371.62H173.085V370.668ZM171.713 379.418H183.151V380.37H171.713V379.418ZM180.645 370.668H181.779V371.872C181.779 373.412 181.779 375.148 181.261 377.738L180.099 377.598C180.645 375.148 180.645 373.37 180.645 371.872V370.668ZM180.897 373.706V374.588L172.917 375.036L172.735 374.028L180.897 373.706ZM176.165 376.142H177.327V379.768H176.165V376.142ZM193.804 369.45H194.98V378.69H193.804V369.45ZM186.846 380.86H195.358V381.812H186.846V380.86ZM186.846 377.738H187.994V381.182H186.846V377.738ZM188.19 370.318C190.08 370.318 191.48 371.606 191.48 373.44C191.48 375.26 190.08 376.562 188.19 376.562C186.3 376.562 184.886 375.26 184.886 373.44C184.886 371.606 186.3 370.318 188.19 370.318ZM188.19 371.326C186.958 371.326 186.02 372.194 186.02 373.44C186.02 374.672 186.958 375.54 188.19 375.54C189.422 375.54 190.36 374.672 190.36 373.44C190.36 372.194 189.422 371.326 188.19 371.326ZM202.59 375.176H211.354V376.128H202.59V375.176ZM201.19 379.502H212.656V380.468H201.19V379.502ZM206.328 375.764H207.476V379.81H206.328V375.764ZM202.59 370.5H203.752V375.596H202.59V370.5ZM214.475 378.102H215.315C216.855 378.102 218.255 378.046 219.963 377.752L220.061 378.718C218.311 379.026 216.883 379.068 215.315 379.068H214.475V378.102ZM214.447 370.808H219.193V375.26H215.609V378.466H214.475V374.308H218.059V371.76H214.447V370.808ZM223.687 369.436H224.807V382.092H223.687V369.436ZM221.545 374.434H223.981V375.386H221.545V374.434ZM220.817 369.716H221.909V381.448H220.817V369.716ZM232.73 377.374C235.306 377.374 236.888 378.242 236.888 379.726C236.888 381.21 235.306 382.078 232.73 382.078C230.154 382.078 228.572 381.21 228.572 379.726C228.572 378.242 230.154 377.374 232.73 377.374ZM232.73 378.312C230.854 378.312 229.706 378.83 229.706 379.726C229.706 380.636 230.854 381.154 232.73 381.154C234.606 381.154 235.754 380.636 235.754 379.726C235.754 378.83 234.606 378.312 232.73 378.312ZM235.6 369.436H236.762V377.038H235.6V369.436ZM236.44 372.614H238.638V373.594H236.44V372.614ZM227.466 370.234H228.614V372.124H232.184V370.234H233.318V376.072H227.466V370.234ZM228.614 373.048V375.134H232.184V373.048H228.614ZM245.539 369.646C248.325 369.646 249.991 370.43 249.991 371.844C249.991 373.258 248.325 374.042 245.539 374.042C242.739 374.042 241.087 373.258 241.087 371.844C241.087 370.43 242.739 369.646 245.539 369.646ZM245.539 370.528C243.467 370.528 242.277 371.004 242.277 371.844C242.277 372.684 243.467 373.16 245.539 373.16C247.597 373.16 248.787 372.684 248.787 371.844C248.787 371.004 247.597 370.528 245.539 370.528ZM239.813 374.882H251.251V375.82H239.813V374.882ZM241.199 376.898H249.795V379.754H242.375V381.294H241.227V378.914H248.647V377.794H241.199V376.898ZM241.227 381.042H250.173V381.952H241.227V381.042ZM265.063 369.436H266.225V378.69H265.063V369.436ZM265.861 373.272H268.101V374.238H265.861V373.272ZM261.605 370.416H262.837C262.837 373.692 260.541 376.086 256.915 377.248L256.411 376.296C259.603 375.316 261.605 373.356 261.605 370.92V370.416ZM256.929 370.416H262.193V371.368H256.929V370.416ZM258.329 380.86H266.785V381.812H258.329V380.86ZM258.329 377.752H259.491V381.238H258.329V377.752ZM277.844 369.422H279.02V382.106H277.844V369.422ZM278.74 374.42H281.092V375.4H278.74V374.42ZM269.822 377.976H270.816C273.154 377.976 274.792 377.892 276.682 377.542L276.808 378.522C274.862 378.886 273.196 378.956 270.816 378.956H269.822V377.976ZM269.822 370.654H275.702V371.606H270.97V378.41H269.822V370.654ZM283.447 381.094C283.176 381.094 282.942 380.998 282.746 380.806C282.551 380.611 282.453 380.375 282.453 380.1C282.453 379.828 282.551 379.596 282.746 379.404C282.942 379.209 283.176 379.111 283.447 379.111C283.719 379.111 283.953 379.209 284.148 379.404C284.344 379.596 284.442 379.828 284.442 380.1C284.442 380.282 284.395 380.45 284.303 380.602C284.213 380.751 284.094 380.871 283.945 380.96C283.795 381.05 283.63 381.094 283.447 381.094ZM286.713 370.818V371.773C286.713 372.054 286.66 372.351 286.553 372.663C286.451 372.971 286.305 373.268 286.116 373.553C285.927 373.838 285.705 374.083 285.45 374.288L284.714 373.761C284.91 373.476 285.079 373.173 285.221 372.852C285.367 372.53 285.44 372.175 285.44 371.788V370.818H286.713ZM289.243 370.818V371.773C289.243 372.054 289.19 372.351 289.084 372.663C288.981 372.971 288.835 373.268 288.646 373.553C288.458 373.838 288.235 374.083 287.98 374.288L287.244 373.761C287.44 373.476 287.609 373.173 287.752 372.852C287.897 372.53 287.97 372.175 287.97 371.788V370.818H289.243ZM179.926 389.422H181.088V402.106H179.926V389.422ZM180.808 394.462H183.16V395.442H180.808V394.462ZM171.862 398.088H172.87C175.25 398.088 176.902 398.004 178.82 397.64L178.946 398.606C176.972 398.956 175.292 399.054 172.87 399.054H171.862V398.088ZM171.834 390.612H177.56V395.148H173.01V398.48H171.862V394.196H176.412V391.564H171.834V390.612ZM185.777 393.23H194.373V394.182H185.777V393.23ZM184.223 395.876H195.703V396.828H184.223V395.876ZM185.777 389.898H186.925V393.706H185.777V389.898ZM185.693 400.832H194.443V401.784H185.693V400.832ZM185.693 398.088H186.841V401.084H185.693V398.088ZM200.807 395.498H212.245V396.464H200.807V395.498ZM206.897 393.398H211.251V394.35H206.897V393.398ZM206.897 390.038H211.153V390.976H208.059V393.72H206.897V390.038ZM201.899 390.038H206.183V390.976H203.061V393.72H201.899V390.038ZM201.899 393.398H202.599C203.845 393.398 205.021 393.356 206.351 393.048L206.491 393.986C205.077 394.294 203.901 394.35 202.599 394.35H201.899V393.398ZM205.959 397.472H206.953V397.864C206.953 400.132 204.741 401.602 202.151 402.036L201.717 401.126C204.013 400.79 205.959 399.544 205.959 397.864V397.472ZM206.141 397.472H207.135V397.864C207.135 399.544 209.067 400.79 211.391 401.126L210.943 402.036C208.339 401.602 206.141 400.132 206.141 397.864V397.472ZM226.603 389.436H227.779V396.226H226.603V389.436ZM219.617 396.856H220.765V398.396H226.631V396.856H227.779V401.924H219.617V396.856ZM220.765 399.32V400.986H226.631V399.32H220.765ZM220.989 390.038C222.907 390.038 224.279 391.228 224.279 392.95C224.279 394.686 222.907 395.876 220.989 395.876C219.071 395.876 217.685 394.686 217.685 392.95C217.685 391.228 219.071 390.038 220.989 390.038ZM220.989 391.004C219.729 391.004 218.819 391.802 218.819 392.95C218.819 394.098 219.729 394.896 220.989 394.896C222.249 394.896 223.159 394.098 223.159 392.95C223.159 391.802 222.249 391.004 220.989 391.004ZM239.482 389.436H240.644V402.092H239.482V389.436ZM231.082 390.668H232.23V398.508H231.082V390.668ZM231.082 397.822H232.118C234.036 397.822 236.038 397.682 238.18 397.234L238.32 398.228C236.122 398.676 234.12 398.83 232.118 398.83H231.082V397.822ZM251.717 389.422H252.893V402.106H251.717V389.422ZM252.613 394.42H254.965V395.4H252.613V394.42ZM243.695 397.976H244.689C247.027 397.976 248.665 397.892 250.555 397.542L250.681 398.522C248.735 398.886 247.069 398.956 244.689 398.956H243.695V397.976ZM243.695 390.654H249.575V391.606H244.843V398.41H243.695V390.654Z" fill="black"/>
<mask id="path-35-inside-1_2011_4068" fill="white">
<path d="M0 61H430V108H0V61Z"/>
</mask>
<path d="M0 61H430V108H0V61Z" fill="#D9ECF2"/>
<path d="M430 107.5H0V108.5H430V107.5Z" fill="#E6E6E6" mask="url(#path-35-inside-1_2011_4068)"/>
<path d="M19.3385 85.9471L26.3485 78.645C26.5438 78.4416 26.5438 78.1118 26.3485 77.9084L25.7828 77.3192C25.5876 77.1158 25.271 77.1158 25.0757 77.3192L17.1464 85.5789C16.9512 85.7822 16.9512 86.112 17.1464 86.3154L25.0757 94.5751C25.271 94.7785 25.5876 94.7785 25.7828 94.5751L26.3485 93.9858C26.5438 93.7824 26.5438 93.4527 26.3485 93.2493L19.3385 85.9471Z" fill="black"/>
<path d="M41.24 88.14H53.12V94.26H41.24V88.14ZM46.78 78.44V80.3C46.78 80.4467 46.7733 80.5867 46.76 80.72C46.76 80.8533 46.7533 80.9933 46.74 81.14C46.7267 81.2733 46.7133 81.4067 46.7 81.54C46.6867 81.66 46.6667 81.7867 46.64 81.92C46.64 81.9867 46.6267 82.0733 46.6 82.18C46.5867 82.22 46.58 82.26 46.58 82.3C46.58 82.34 46.5733 82.38 46.56 82.42C46.52 82.5933 46.48 82.76 46.44 82.92C46.4 83.0667 46.36 83.2133 46.32 83.36C46.3067 83.4 46.2933 83.44 46.28 83.48C46.2667 83.52 46.2533 83.5533 46.24 83.58C46.12 83.94 46 84.28 45.88 84.6C45.84 84.6933 45.8 84.7867 45.76 84.88C45.72 84.96 45.68 85.04 45.64 85.12C45.52 85.3733 45.4 85.6 45.28 85.8C45.1733 85.9867 45.0733 86.1533 44.98 86.3C44.8733 86.46 44.7933 86.58 44.74 86.66C44.7267 86.7 44.7067 86.7333 44.68 86.76L44.66 86.78H41.9C41.9267 86.7533 41.9467 86.7267 41.96 86.7C41.9867 86.66 42.0133 86.6267 42.04 86.6C42.08 86.5333 42.12 86.4733 42.16 86.42C42.2133 86.3533 42.26 86.2867 42.3 86.22C42.34 86.1533 42.38 86.0933 42.42 86.04C42.46 85.9733 42.4933 85.9067 42.52 85.84L42.64 85.66C42.6667 85.5933 42.7 85.5333 42.74 85.48C42.78 85.4267 42.8133 85.3667 42.84 85.3C43 84.9933 43.1333 84.6933 43.24 84.4C43.36 84.1067 43.4667 83.8267 43.56 83.56C43.5733 83.4933 43.5867 83.44 43.6 83.4C43.6133 83.3467 43.6333 83.2867 43.66 83.22C43.6733 83.1667 43.6867 83.12 43.7 83.08C43.7133 83.0267 43.7267 82.9733 43.74 82.92C43.78 82.7067 43.82 82.5067 43.86 82.32C43.9 82.0533 43.9267 81.8067 43.94 81.58C43.9667 81.3533 43.9867 81.14 44 80.94V80.64H38.6V78.44H46.78ZM50.56 77.4H53.06V87.2H50.56V83.5H47.64V81.18H50.56V77.4ZM50.74 92.18V90.14H43.62V92.18H50.74ZM57.6827 78.3L60.4427 78.32C60.4827 78.68 60.556 79.0733 60.6627 79.5C60.7827 79.9133 60.916 80.34 61.0627 80.78C61.2093 81.22 61.3627 81.66 61.5227 82.1C61.696 82.5267 61.8693 82.94 62.0427 83.34C62.4427 84.2733 62.876 85.2133 63.3427 86.16H60.6827C60.5627 85.92 60.4227 85.64 60.2627 85.32C60.116 84.9867 59.9627 84.64 59.8027 84.28C59.6427 83.92 59.4893 83.5533 59.3427 83.18C59.2093 82.8067 59.1027 82.4533 59.0227 82.12C58.8493 82.8 58.6027 83.5 58.2827 84.22C57.9627 84.9267 57.6093 85.5733 57.2227 86.16H54.3227C54.8693 85.4933 55.3427 84.7733 55.7427 84C56.1427 83.2267 56.476 82.48 56.7427 81.76C57.0093 81.0267 57.216 80.3533 57.3627 79.74C57.5227 79.1267 57.6293 78.6467 57.6827 78.3ZM67.6027 77.42H69.8827V87.54H67.6027V83.76H66.1227V87.54H63.7027V77.42H66.1227V81.84H67.6027V77.42ZM57.7827 88.5H69.8627V90.62C69.8627 91.1267 69.816 91.6067 69.7227 92.06C69.6293 92.5267 69.5293 92.9333 69.4227 93.28C69.2893 93.6933 69.1427 94.08 68.9827 94.44H66.3227C66.5493 93.9867 66.7227 93.5333 66.8427 93.08C66.9627 92.6267 67.0493 92.22 67.1027 91.86C67.156 91.4333 67.1827 91.0333 67.1827 90.66H57.7827V88.5Z" fill="black"/>
<g filter="url(#filter3_b_2011_4068)">
<rect width="430.412" height="334" transform="translate(0 598)" fill="#D1D5DB" fill-opacity="0.9"/>
<g filter="url(#filter4_d_2011_4068)">
<rect x="3.44336" y="607.182" width="36.1546" height="48.2062" rx="5.73883" fill="white"/>
<path d="M25.8708 645.078H28.3086V624.931H25.8708V627.453H25.7026C24.7359 625.729 22.9565 624.665 20.9249 624.665C17.072 624.665 14.578 627.733 14.578 632.469V632.497C14.578 637.204 17.086 640.301 20.9249 640.301C23.0826 640.301 24.8199 639.362 25.6466 637.765H25.8708V645.078ZM21.4994 638.143C18.7252 638.143 17.072 636.013 17.072 632.497V632.469C17.072 628.952 18.7252 626.822 21.4854 626.822C24.2175 626.822 25.9408 628.994 25.9408 632.469V632.497C25.9408 635.957 24.2175 638.143 21.4994 638.143Z" fill="black"/>
</g>
<g filter="url(#filter5_d_2011_4068)">
<rect x="46.4845" y="607.182" width="36.1546" height="48.2062" rx="5.73883" fill="white"/>
<path d="M58.9222 640.034H61.3601L64.7227 628.349H64.9468L68.3234 640.034H70.7753L75.0066 624.931H72.5827L69.6124 637.008H69.3883L66.0117 624.931H63.6999L60.3233 637.008H60.0991L57.1288 624.931H54.6909L58.9222 640.034Z" fill="black"/>
</g>
<g filter="url(#filter6_d_2011_4068)">
<rect x="89.5258" y="607.182" width="36.1546" height="48.2062" rx="5.73883" fill="white"/>
<path d="M108.128 640.301C111.687 640.301 113.845 638.283 114.363 636.237L114.391 636.125H111.953L111.897 636.252C111.491 637.162 110.23 638.129 108.184 638.129C105.494 638.129 103.771 636.308 103.701 633.183H114.573V632.23C114.573 627.719 112.079 624.665 107.974 624.665C103.869 624.665 101.207 627.859 101.207 632.525V632.539C101.207 637.274 103.813 640.301 108.128 640.301ZM107.96 626.836C110.188 626.836 111.841 628.251 112.093 631.236H103.743C104.009 628.363 105.718 626.836 107.96 626.836Z" fill="black"/>
</g>
<g filter="url(#filter7_d_2011_4068)">
<rect x="132.567" y="607.182" width="36.1546" height="48.2062" rx="5.73883" fill="white"/>
<path d="M147.737 640.034H150.175V630.675C150.175 628.461 151.828 626.99 154.154 626.99C154.686 626.99 155.149 627.046 155.653 627.13V624.763C155.415 624.721 154.896 624.665 154.434 624.665C152.388 624.665 150.973 625.589 150.399 627.172H150.175V624.931H147.737V640.034Z" fill="black"/>
</g>
<g filter="url(#filter8_d_2011_4068)">
<rect x="175.608" y="607.182" width="36.1546" height="48.2062" rx="5.73883" fill="white"/>
<path d="M196.396 640.147C196.873 640.147 197.335 640.09 197.812 640.006V637.933C197.363 637.975 197.125 637.989 196.691 637.989C195.121 637.989 194.505 637.274 194.505 635.495V626.948H197.812V624.931H194.505V621.022H191.983V624.931H189.601V626.948H191.983V636.111C191.983 638.998 193.286 640.147 196.396 640.147Z" fill="black"/>
</g>
<g filter="url(#filter9_d_2011_4068)">
<rect x="218.65" y="607.182" width="36.1546" height="48.2062" rx="5.73883" fill="white"/>
<path d="M232.783 645.331C235.459 645.331 236.706 644.35 237.953 640.959L243.851 624.931H241.287L237.154 637.358H236.93L232.783 624.931H230.177L235.767 640.048L235.487 640.945C234.94 642.682 234.1 643.313 232.712 643.313C232.376 643.313 231.998 643.299 231.704 643.243V645.246C232.04 645.302 232.46 645.331 232.783 645.331Z" fill="black"/>
</g>
<g filter="url(#filter10_d_2011_4068)">
<rect x="261.691" y="607.182" width="36.1546" height="48.2062" rx="5.73883" fill="white"/>
<path d="M279.004 640.301C281.218 640.301 282.745 639.39 283.488 637.779H283.712V640.034H286.15V624.931H283.712V633.87C283.712 636.518 282.297 638.143 279.635 638.143C277.225 638.143 276.244 636.84 276.244 634.122V624.931H273.806V634.71C273.806 638.283 275.571 640.301 279.004 640.301Z" fill="black"/>
</g>
<g filter="url(#filter11_d_2011_4068)">
<rect x="304.732" y="607.182" width="36.1546" height="48.2062" rx="5.73883" fill="white"/>
<path d="M323.11 622.017C324.035 622.017 324.792 621.26 324.792 620.335C324.792 619.41 324.035 618.654 323.11 618.654C322.185 618.654 321.429 619.41 321.429 620.335C321.429 621.26 322.185 622.017 323.11 622.017ZM321.877 640.034H324.315V624.931H321.877V640.034Z" fill="black"/>
</g>
<g filter="url(#filter12_d_2011_4068)">
<rect x="347.773" y="607.182" width="36.1546" height="48.2062" rx="5.73883" fill="white"/>
<path d="M366.137 640.301C370.439 640.301 373.101 637.33 373.101 632.497V632.469C373.101 627.621 370.439 624.665 366.137 624.665C361.836 624.665 359.174 627.621 359.174 632.469V632.497C359.174 637.33 361.836 640.301 366.137 640.301ZM366.137 638.143C363.279 638.143 361.668 636.055 361.668 632.497V632.469C361.668 628.896 363.279 626.822 366.137 626.822C368.996 626.822 370.607 628.896 370.607 632.469V632.497C370.607 636.055 368.996 638.143 366.137 638.143Z" fill="black"/>
</g>
<g filter="url(#filter13_d_2011_4068)">
<rect x="390.814" y="607.182" width="36.1546" height="48.2062" rx="5.73883" fill="white"/>
<path d="M402.692 645.078H405.13V637.653H405.354C406.18 639.264 407.988 640.301 410.061 640.301C413.9 640.301 416.394 637.232 416.394 632.497V632.469C416.394 627.761 413.886 624.665 410.061 624.665C407.96 624.665 406.278 625.659 405.354 627.341H405.13V624.931H402.692V645.078ZM409.501 638.143C406.755 638.143 405.074 635.985 405.074 632.497V632.469C405.074 628.98 406.755 626.822 409.501 626.822C412.261 626.822 413.9 628.952 413.9 632.469V632.497C413.9 636.013 412.261 638.143 409.501 638.143Z" fill="black"/>
</g>
<g filter="url(#filter14_d_2011_4068)">
<rect x="24.9639" y="669.161" width="36.1546" height="48.2062" rx="5.73883" fill="white"/>
<path d="M41.829 702.28C43.8605 702.28 45.4438 701.397 46.3965 699.786H46.6207V702.014H49.0586V691.674C49.0586 688.535 46.999 686.644 43.3141 686.644C40.0916 686.644 37.7939 688.241 37.4016 690.609L37.3875 690.693H39.8254L39.8394 690.651C40.2317 689.474 41.4227 688.802 43.2301 688.802C45.4858 688.802 46.6207 689.81 46.6207 691.674V693.047L42.2913 693.313C38.7746 693.523 36.7851 695.078 36.7851 697.769V697.797C36.7851 700.543 38.9568 702.28 41.829 702.28ZM39.279 697.74V697.712C39.279 696.213 40.2878 695.401 42.5856 695.261L46.6207 695.008V696.381C46.6207 698.539 44.8133 700.164 42.3334 700.164C40.582 700.164 39.279 699.268 39.279 697.74Z" fill="black"/>
</g>
<g filter="url(#filter15_d_2011_4068)">
<rect x="68.0051" y="669.161" width="36.1546" height="48.2062" rx="5.73883" fill="white"/>
<path d="M86.3133 702.28C89.746 702.28 92.366 700.417 92.366 697.726V697.698C92.366 695.541 90.993 694.308 88.1488 693.621L85.823 693.061C84.0436 692.627 83.287 691.982 83.287 690.959V690.931C83.287 689.6 84.604 688.675 86.3974 688.675C88.2188 688.675 89.3957 689.502 89.718 690.693H92.1138C91.7776 688.227 89.5779 686.644 86.4114 686.644C83.2029 686.644 80.7931 688.535 80.7931 691.043V691.057C80.7931 693.229 82.0681 694.462 84.8983 695.134L87.2381 695.695C89.1015 696.143 89.8721 696.858 89.8721 697.881V697.909C89.8721 699.282 88.429 700.248 86.3974 700.248C84.4639 700.248 83.259 699.422 82.8527 698.161H80.3587C80.639 700.655 82.9507 702.28 86.3133 702.28Z" fill="black"/>
</g>
<g filter="url(#filter16_d_2011_4068)">
<rect x="111.046" y="669.161" width="36.1546" height="48.2062" rx="5.73883" fill="white"/>
<path d="M128.444 702.28C130.546 702.28 132.227 701.285 133.152 699.604H133.376V702.014H135.814V680.913H133.376V689.292H133.152C132.325 687.681 130.518 686.644 128.444 686.644C124.605 686.644 122.111 689.712 122.111 694.448V694.476C122.111 699.184 124.619 702.28 128.444 702.28ZM129.004 700.122C126.244 700.122 124.605 697.993 124.605 694.476V694.448C124.605 690.931 126.244 688.802 129.004 688.802C131.75 688.802 133.432 690.959 133.432 694.448V694.476C133.432 697.965 131.75 700.122 129.004 700.122Z" fill="black"/>
</g>
<g filter="url(#filter17_d_2011_4068)">
<rect x="154.088" y="669.161" width="36.1546" height="48.2062" rx="5.73883" fill="white"/>
<path d="M170.532 702.014H172.97V688.928H176.403V686.91H172.97V685.299C172.97 683.646 173.671 682.791 175.408 682.791C175.843 682.791 176.249 682.805 176.543 682.861V680.913C176.039 680.815 175.506 680.773 174.918 680.773C172.046 680.773 170.532 682.217 170.532 685.229V686.91H168.024V688.928H170.532V702.014Z" fill="black"/>
</g>
<g filter="url(#filter18_d_2011_4068)">
<rect x="197.129" y="669.161" width="36.1546" height="48.2062" rx="5.73883" fill="white"/>
<path d="M215.241 707.338C219.36 707.338 221.966 705.18 221.966 701.804V686.91H219.528V689.404H219.36C218.435 687.695 216.782 686.644 214.653 686.644C210.701 686.644 208.264 689.712 208.264 693.944V693.972C208.264 698.203 210.687 701.229 214.596 701.229C216.67 701.229 218.379 700.29 219.332 698.623H219.556V701.678C219.556 703.905 217.945 705.18 215.241 705.18C213.069 705.18 211.724 704.368 211.458 703.219L211.444 703.205H208.922L208.894 703.219C209.272 705.699 211.598 707.338 215.241 707.338ZM215.129 699.072C212.327 699.072 210.758 696.97 210.758 693.972V693.944C210.758 690.945 212.327 688.802 215.129 688.802C217.917 688.802 219.612 690.945 219.612 693.944V693.972C219.612 696.97 217.931 699.072 215.129 699.072Z" fill="black"/>
</g>
<g filter="url(#filter19_d_2011_4068)">
<rect x="240.17" y="669.161" width="36.1546" height="48.2062" rx="5.73883" fill="white"/>
<path d="M252.496 702.014H254.934V693.075C254.934 690.427 256.461 688.802 258.871 688.802C261.281 688.802 262.401 690.105 262.401 692.823V702.014H264.839V692.234C264.839 688.647 262.948 686.644 259.557 686.644C257.329 686.644 255.914 687.583 255.158 689.18H254.934V680.913H252.496V702.014Z" fill="black"/>
</g>
<g filter="url(#filter20_d_2011_4068)">
<rect x="283.211" y="669.161" width="36.1546" height="48.2062" rx="5.73883" fill="white"/>
<path d="M301.562 683.996C302.486 683.996 303.243 683.239 303.243 682.315C303.243 681.39 302.486 680.633 301.562 680.633C300.637 680.633 299.88 681.39 299.88 682.315C299.88 683.239 300.637 683.996 301.562 683.996ZM298.143 707.198C301.309 707.198 302.78 705.867 302.78 702.756V686.91H300.343V702.798C300.343 704.466 299.726 705.04 298.087 705.04H297.723V707.198H298.143Z" fill="black"/>
</g>
<g filter="url(#filter21_d_2011_4068)">
<rect x="326.253" y="669.161" width="36.1546" height="48.2062" rx="5.73883" fill="white"/>
<path d="M339.237 702.014H341.675V696.283L343.09 694.91L348.75 702.014H351.818L344.799 693.257L351.384 686.91H348.428L341.899 693.509H341.675V680.913H339.237V702.014Z" fill="black"/>
</g>
<g filter="url(#filter22_d_2011_4068)">
<rect x="369.294" y="669.161" width="36.1546" height="48.2062" rx="5.73883" fill="white"/>
<path d="M386.439 702.014H388.877V680.913H386.439V702.014Z" fill="black"/>
</g>
<g filter="url(#filter23_d_2011_4068)">
<rect x="3.44336" y="731.141" width="48.2062" height="48.2062" rx="5.73883" fill="#ADB3BC"/>
<path fill-rule="evenodd" clip-rule="evenodd" d="M23.9656 756.08V762.848H31.1263V756.08H35.8514L27.5463 748.083L19.2413 756.08H23.9656ZM27.1128 746.233C27.3501 746.005 27.7427 746.005 27.9799 746.233L38.8525 756.703C39.2239 757.06 38.9525 757.659 38.419 757.659H32.817V763.862C32.817 764.174 32.5466 764.426 32.2132 764.426H22.8787C22.5453 764.426 22.2749 764.174 22.2749 763.862V757.659H16.6736C16.1403 757.659 15.8689 757.06 16.2402 756.703L27.1128 746.233Z" fill="black"/>
</g>
<g filter="url(#filter24_d_2011_4068)">
<rect x="68.0051" y="731.141" width="36.1546" height="48.2062" rx="5.73883" fill="white"/>
<path d="M80.5549 763.993H92.1839V761.976H83.4691V761.751L92.1418 750.697V748.89H80.5689V750.907H89.2696V751.131L80.5549 762.228V763.993Z" fill="black"/>
</g>
<g filter="url(#filter25_d_2011_4068)">
<rect x="111.046" y="731.141" width="36.1546" height="48.2062" rx="5.73883" fill="white"/>
<path d="M122.952 763.993H125.684L129.271 758.291H129.495L133.067 763.993H135.926L130.728 756.343L135.856 748.89H133.124L129.579 754.508H129.355L125.768 748.89H122.896L128.122 756.441L122.952 763.993Z" fill="black"/>
</g>
<g filter="url(#filter26_d_2011_4068)">
<rect x="154.088" y="731.141" width="36.1546" height="48.2062" rx="5.73883" fill="white"/>
<path d="M172.872 764.259C176.501 764.259 178.533 762.312 179.149 759.58L179.177 759.426L176.767 759.44L176.739 759.524C176.179 761.205 174.89 762.102 172.858 762.102C170.168 762.102 168.431 759.874 168.431 756.399V756.371C168.431 752.967 170.14 750.781 172.858 750.781C175.03 750.781 176.375 751.986 176.753 753.471L176.767 753.513H179.191L179.177 753.429C178.729 750.739 176.529 748.623 172.858 748.623C168.627 748.623 165.937 751.678 165.937 756.371V756.399C165.937 761.191 168.641 764.259 172.872 764.259Z" fill="black"/>
</g>
<g filter="url(#filter27_d_2011_4068)">
<rect x="197.129" y="731.141" width="36.1546" height="48.2062" rx="5.73883" fill="white"/>
<path d="M214.26 763.993H216.726L222.316 748.89H219.738L215.605 761.331H215.381L211.248 748.89H208.67L214.26 763.993Z" fill="black"/>
</g>
<g filter="url(#filter28_d_2011_4068)">
<rect x="240.17" y="731.141" width="36.1546" height="48.2062" rx="5.73883" fill="white"/>
<path d="M259.501 764.259C263.326 764.259 265.834 761.163 265.834 756.455V756.427C265.834 751.692 263.34 748.623 259.501 748.623C257.428 748.623 255.62 749.66 254.794 751.271H254.569V742.893H252.131V763.993H254.569V761.583H254.794C255.718 763.265 257.4 764.259 259.501 764.259ZM258.941 762.102C256.195 762.102 254.513 759.944 254.513 756.455V756.427C254.513 752.939 256.195 750.781 258.941 750.781C261.701 750.781 263.34 752.911 263.34 756.427V756.455C263.34 759.972 261.701 762.102 258.941 762.102Z" fill="black"/>
</g>
<g filter="url(#filter29_d_2011_4068)">
<rect x="283.211" y="731.141" width="36.1546" height="48.2062" rx="5.73883" fill="white"/>
<path d="M295.467 763.993H297.905V755.054C297.905 752.406 299.432 750.781 301.842 750.781C304.252 750.781 305.372 752.084 305.372 754.802V763.993H307.81V754.214C307.81 750.627 305.919 748.623 302.528 748.623C300.301 748.623 298.885 749.562 298.129 751.159H297.905V748.89H295.467V763.993Z" fill="black"/>
</g>
<g filter="url(#filter30_d_2011_4068)">
<rect x="326.253" y="731.141" width="36.1546" height="48.2062" rx="5.73883" fill="white"/>
<path d="M334.403 763.993H336.841V754.634C336.841 752.504 338.34 750.781 340.316 750.781C342.221 750.781 343.454 751.944 343.454 753.737V763.993H345.892V754.284C345.892 752.364 347.279 750.781 349.381 750.781C351.51 750.781 352.533 751.888 352.533 754.116V763.993H354.971V753.555C354.971 750.389 353.247 748.623 350.165 748.623C348.077 748.623 346.354 749.674 345.542 751.271H345.317C344.617 749.702 343.188 748.623 341.142 748.623C339.167 748.623 337.738 749.562 337.065 751.187H336.841V748.89H334.403V763.993Z" fill="black"/>
</g>
<g filter="url(#filter31_d_2011_4068)">
<rect x="378.763" y="731.141" width="48.2062" height="48.2062" rx="5.73883" fill="#ADB3BC"/>
<path fill-rule="evenodd" clip-rule="evenodd" d="M394.08 749.642C394.063 749.658 394.03 749.691 393.994 749.727C393.967 749.754 393.946 749.775 393.902 749.819L391.481 752.28C391.418 752.348 391.374 752.393 391.272 752.497C391.214 752.555 391.173 752.6 391.082 752.697C390.915 752.862 390.738 753.059 390.572 753.267C390.416 753.435 390.291 753.63 390.204 753.844C390.024 754.4 390.024 754.94 390.184 755.442L390.206 755.5C390.294 755.712 390.418 755.906 390.572 756.073C390.738 756.28 390.915 756.477 391.102 756.663C391.173 756.741 391.214 756.785 391.272 756.843L391.481 757.056L393.689 759.303C393.792 759.408 393.843 759.459 393.901 759.516C393.964 759.583 394.03 759.65 394.096 759.713C394.107 759.724 396.921 762.581 396.921 762.581C397.008 762.67 397.078 762.739 397.235 762.894C397.252 762.91 397.278 762.937 397.285 762.945C397.326 762.988 397.35 763.013 397.365 763.029C397.693 763.363 398.07 763.644 398.483 763.861C398.906 764.075 399.346 764.222 399.8 764.303C400.228 764.374 400.653 764.413 401.079 764.419C401.152 764.42 401.213 764.421 401.349 764.422C401.479 764.424 401.537 764.425 401.608 764.426L409.991 764.426C410.078 764.425 410.136 764.424 410.268 764.422C410.405 764.421 410.467 764.42 410.546 764.419C410.973 764.411 411.401 764.372 411.824 764.301C412.288 764.221 412.734 764.071 413.15 763.856C413.57 763.64 413.953 763.356 414.285 763.017C414.615 762.68 414.893 762.293 415.107 761.869C415.318 761.439 415.463 760.988 415.541 760.522C415.612 760.087 415.65 759.65 415.655 759.212C415.658 759.122 415.66 759.036 415.662 758.846C415.664 758.755 415.664 758.715 415.665 758.666L415.665 750.641C415.664 750.579 415.664 750.539 415.662 750.45L415.661 750.358C415.66 750.241 415.658 750.154 415.654 750.067C415.649 749.655 415.613 749.223 415.546 748.797C415.465 748.324 415.32 747.877 415.114 747.458C414.899 747.029 414.623 746.645 414.294 746.311C413.967 745.975 413.586 745.693 413.169 745.477C412.754 745.266 412.316 745.118 411.864 745.037C411.431 744.967 411.006 744.93 410.579 744.925C410.438 744.919 410.314 744.918 410.037 744.918C409.947 744.916 409.841 744.915 409.722 744.915C409.633 744.914 409.562 744.914 409.401 744.914H402.259C401.938 744.914 401.793 744.915 401.61 744.918C401.346 744.918 401.221 744.919 401.061 744.925C400.655 744.93 400.231 744.967 399.81 745.035C399.346 745.118 398.906 745.265 398.493 745.474C398.07 745.696 397.693 745.977 397.365 746.311C397.35 746.327 397.326 746.352 397.287 746.394C397.278 746.404 397.235 746.447 397.235 746.447C397.078 746.601 397.008 746.671 396.921 746.759L396.558 747.128L394.146 749.582C394.125 749.599 394.103 749.62 394.08 749.642ZM409.401 746.359C409.56 746.359 409.629 746.359 409.716 746.36C409.83 746.36 409.93 746.361 410.026 746.363C410.295 746.363 410.407 746.364 410.542 746.37C410.919 746.375 411.276 746.405 411.629 746.462C411.933 746.517 412.24 746.621 412.528 746.767C412.806 746.911 413.064 747.102 413.287 747.331C413.513 747.561 413.701 747.822 413.845 748.109C413.986 748.396 414.088 748.711 414.144 749.036C414.198 749.382 414.228 749.743 414.233 750.104C414.236 750.197 414.238 750.274 414.239 750.379L414.241 750.469C414.242 750.561 414.242 750.603 414.243 750.656L414.243 758.652C414.242 758.691 414.242 758.733 414.241 758.827C414.238 759.005 414.237 759.083 414.233 759.176C414.229 759.561 414.198 759.924 414.139 760.283C414.085 760.605 413.983 760.921 413.838 761.216C413.695 761.5 413.504 761.766 413.277 761.997C413.051 762.228 412.791 762.421 412.506 762.568C412.218 762.717 411.909 762.82 411.59 762.875C411.238 762.934 410.879 762.967 410.519 762.974C410.445 762.975 410.387 762.976 410.254 762.977C410.117 762.979 410.056 762.979 409.977 762.981L401.622 762.981C401.559 762.979 401.498 762.979 401.363 762.977C401.232 762.976 401.174 762.975 401.103 762.974C400.744 762.968 400.389 762.937 400.038 762.878C399.727 762.823 399.417 762.719 399.127 762.572C398.854 762.429 398.596 762.236 398.371 762.008L398.316 761.948C398.26 761.89 398.236 761.865 398.209 761.84C398.067 761.701 398.003 761.637 397.926 761.559L395.107 758.694L395.107 758.694L395.107 758.693C395.081 758.67 395.066 758.656 395.055 758.646C395.004 758.596 394.962 758.553 394.923 758.511C394.842 758.431 394.797 758.386 394.695 758.282L392.487 756.035L392.277 755.821C392.234 755.777 392.198 755.74 392.118 755.653C391.943 755.477 391.796 755.313 391.658 755.14L391.615 755.091C391.58 755.054 391.55 755.011 391.527 754.964C391.473 754.771 391.473 754.567 391.528 754.374C391.549 754.329 391.578 754.288 391.612 754.253L391.661 754.197C391.796 754.026 391.941 753.863 392.096 753.71C392.198 753.601 392.234 753.563 392.277 753.519C392.388 753.406 392.438 753.355 392.5 753.289L394.695 751.058L394.908 750.841C394.95 750.798 394.969 750.78 394.992 750.757L395.039 750.714C395.073 750.683 395.092 750.665 395.111 750.646L397.564 748.149L397.926 747.781C398.003 747.703 398.067 747.639 398.209 747.5C398.236 747.475 398.26 747.45 398.314 747.394L398.371 747.333C398.596 747.104 398.854 746.911 399.137 746.763C399.417 746.621 399.727 746.518 400.046 746.46C400.387 746.405 400.741 746.374 401.097 746.37C401.253 746.364 401.365 746.363 401.622 746.363C401.806 746.36 401.946 746.359 402.259 746.359H409.401ZM402.666 758.495C402.608 758.552 402.54 758.599 402.462 758.632C402.223 758.732 401.947 758.676 401.765 758.489C401.516 758.236 401.516 757.825 401.765 757.572C401.801 757.535 401.84 757.503 401.882 757.477L404.644 754.667L401.764 751.743L401.773 751.734C401.717 751.676 401.671 751.606 401.639 751.527C401.54 751.284 401.595 751.004 401.779 750.818C402.028 750.566 402.432 750.566 402.682 750.818C402.718 750.855 402.75 750.896 402.776 750.939L405.546 753.75L408.343 750.904C408.363 750.874 408.387 750.845 408.413 750.818C408.595 750.632 408.869 750.576 409.108 750.676C409.346 750.777 409.502 751.013 409.502 751.275C409.502 751.45 409.433 751.614 409.316 751.733L409.323 751.74L406.448 754.665L409.254 757.512C409.279 757.531 409.303 757.552 409.326 757.575C409.509 757.76 409.564 758.039 409.466 758.282C409.367 758.524 409.135 758.682 408.877 758.682C408.705 758.682 408.544 758.612 408.427 758.493L408.42 758.5L405.546 755.582L402.674 758.504L402.666 758.495Z" fill="black"/>
</g>
<path d="M48.7196 900.889C50.8279 900.889 52.8102 900.486 54.6663 899.679C56.5326 898.872 58.1769 897.757 59.5993 896.335C61.0217 894.912 62.1364 893.273 62.9434 891.417C63.7504 889.55 64.1539 887.563 64.1539 885.455C64.1539 883.346 63.7504 881.364 62.9434 879.508C62.1364 877.642 61.0217 875.998 59.5993 874.575C58.1769 873.153 56.5326 872.038 54.6663 871.231C52.8001 870.424 50.8128 870.021 48.7045 870.021C46.5961 870.021 44.6088 870.424 42.7426 871.231C40.8864 872.038 39.2472 873.153 37.8248 874.575C36.4125 875.998 35.3028 877.642 34.4958 879.508C33.6888 881.364 33.2853 883.346 33.2853 885.455C33.2853 887.563 33.6888 889.55 34.4958 891.417C35.3028 893.273 36.4175 894.912 37.8399 896.335C39.2623 897.757 40.9016 898.872 42.7577 899.679C44.624 900.486 46.6112 900.889 48.7196 900.889ZM48.7196 898.317C46.9341 898.317 45.2645 897.984 43.711 897.318C42.1575 896.652 40.7906 895.734 39.6103 894.564C38.4401 893.384 37.5222 892.017 36.8564 890.463C36.2006 888.91 35.8728 887.24 35.8728 885.455C35.8728 883.669 36.2006 882 36.8564 880.446C37.5222 878.893 38.4401 877.526 39.6103 876.346C40.7805 875.165 42.1424 874.247 43.6959 873.592C45.2494 872.926 46.9189 872.593 48.7045 872.593C50.49 872.593 52.1595 872.926 53.7131 873.592C55.2666 874.247 56.6335 875.165 57.8137 876.346C58.994 877.526 59.917 878.893 60.5828 880.446C61.2486 882 61.5815 883.669 61.5815 885.455C61.5815 887.24 61.2486 888.91 60.5828 890.463C59.9271 892.017 59.0091 893.384 57.8289 894.564C56.6587 895.734 55.2918 896.652 53.7282 897.318C52.1747 897.984 50.5051 898.317 48.7196 898.317ZM48.7045 895.82C50.0058 895.82 51.2264 895.598 52.3663 895.154C53.5063 894.71 54.5201 894.105 55.4078 893.338C56.3056 892.562 57.037 891.674 57.6019 890.675C58.1668 889.666 58.5199 888.597 58.6611 887.467C58.7216 887.013 58.6208 886.691 58.3585 886.499C58.1063 886.297 57.7784 886.257 57.3749 886.378C55.9122 886.802 54.4797 887.134 53.0775 887.377C51.6753 887.609 50.2176 887.725 48.7045 887.725C47.2014 887.725 45.7487 887.609 44.3465 887.377C42.9443 887.134 41.5068 886.802 40.034 886.378C39.6406 886.257 39.3127 886.297 39.0505 886.499C38.7983 886.691 38.7024 887.013 38.7629 887.467C38.9042 888.597 39.2573 889.666 39.8222 890.675C40.3871 891.674 41.1134 892.562 42.0011 893.338C42.8889 894.105 43.9027 894.71 45.0426 895.154C46.1825 895.598 47.4031 895.82 48.7045 895.82ZM48.7045 891.129C47.4939 891.129 46.2582 891.049 44.9972 890.887C43.7362 890.716 42.5156 890.484 41.3353 890.191C41.1235 889.858 40.9369 889.515 40.7755 889.162C40.6241 888.809 40.5081 888.446 40.4274 888.073C41.6682 888.426 42.9948 888.713 44.4071 888.935C45.8194 889.147 47.2518 889.253 48.7045 889.253C50.1672 889.253 51.5997 889.147 53.0019 888.935C54.4142 888.713 55.7457 888.426 56.9966 888.073C56.9159 888.446 56.7949 888.809 56.6335 889.162C56.4822 889.515 56.3006 889.858 56.0887 890.191C54.9085 890.484 53.6878 890.716 52.4269 890.887C51.1659 891.049 49.9251 891.129 48.7045 891.129ZM44.2104 884.108C44.6946 884.108 45.1183 883.916 45.4814 883.533C45.8446 883.14 46.0262 882.64 46.0262 882.035C46.0262 881.43 45.8446 880.93 45.4814 880.537C45.1183 880.144 44.6946 879.947 44.2104 879.947C43.7362 879.947 43.3176 880.144 42.9544 880.537C42.6014 880.93 42.4248 881.43 42.4248 882.035C42.4248 882.64 42.6014 883.14 42.9544 883.533C43.3176 883.916 43.7362 884.108 44.2104 884.108ZM53.1834 884.108C53.6677 884.108 54.0863 883.916 54.4394 883.533C54.8025 883.14 54.9841 882.64 54.9841 882.035C54.9841 881.43 54.8025 880.93 54.4394 880.537C54.0863 880.144 53.6677 879.947 53.1834 879.947C52.7093 879.947 52.2907 880.144 51.9275 880.537C51.5744 880.93 51.3979 881.43 51.3979 882.035C51.3979 882.64 51.5744 883.14 51.9275 883.533C52.2907 883.916 52.7093 884.108 53.1834 884.108Z" fill="#50555C"/>
<path d="M371.876 884.867C371.876 886.844 372.28 888.599 373.087 890.133C373.904 891.666 375.039 892.897 376.492 893.825C377.944 894.743 379.634 895.283 381.561 895.444V898.97H375.947C375.624 898.97 375.352 899.081 375.13 899.303C374.908 899.525 374.797 899.797 374.797 900.12C374.797 900.432 374.908 900.7 375.13 900.922C375.352 901.144 375.624 901.255 375.947 901.255H389.459C389.782 901.255 390.055 901.144 390.276 900.922C390.498 900.7 390.609 900.432 390.609 900.12C390.609 899.797 390.498 899.525 390.276 899.303C390.055 899.081 389.782 898.97 389.459 898.97H383.846V895.444C385.772 895.283 387.462 894.743 388.915 893.825C390.367 892.897 391.497 891.666 392.304 890.133C393.121 888.599 393.53 886.844 393.53 884.867V881.795C393.53 881.483 393.419 881.215 393.197 880.993C392.975 880.771 392.708 880.66 392.395 880.66C392.072 880.66 391.8 880.771 391.578 880.993C391.356 881.215 391.245 881.483 391.245 881.795V884.776C391.245 886.491 390.892 887.994 390.186 889.285C389.48 890.577 388.486 891.58 387.205 892.297C385.934 893.003 384.436 893.356 382.711 893.356C380.986 893.356 379.483 893.003 378.201 892.297C376.92 891.58 375.927 890.577 375.22 889.285C374.514 887.994 374.161 886.491 374.161 884.776V881.795C374.161 881.483 374.05 881.215 373.828 880.993C373.606 880.771 373.334 880.66 373.011 880.66C372.698 880.66 372.431 880.771 372.209 880.993C371.987 881.215 371.876 881.483 371.876 881.795V884.867ZM377.203 884.322C377.203 885.482 377.435 886.511 377.899 887.409C378.363 888.297 379.008 888.993 379.836 889.497C380.663 890.002 381.621 890.254 382.711 890.254C383.79 890.254 384.743 890.002 385.571 889.497C386.398 888.993 387.043 888.297 387.507 887.409C387.971 886.511 388.203 885.482 388.203 884.322V874.804C388.203 873.644 387.971 872.62 387.507 871.733C387.043 870.835 386.398 870.134 385.571 869.629C384.743 869.125 383.79 868.873 382.711 868.873C381.621 868.873 380.663 869.125 379.836 869.629C379.008 870.134 378.363 870.835 377.899 871.733C377.435 872.62 377.203 873.644 377.203 874.804V884.322ZM379.488 884.322V874.804C379.488 873.685 379.78 872.792 380.365 872.126C380.96 871.46 381.742 871.127 382.711 871.127C383.679 871.127 384.456 871.46 385.041 872.126C385.626 872.792 385.919 873.685 385.919 874.804V884.322C385.919 885.442 385.626 886.335 385.041 887.001C384.456 887.666 383.679 887.999 382.711 887.999C381.742 887.999 380.96 887.666 380.365 887.001C379.78 886.335 379.488 885.442 379.488 884.322Z" fill="#50555C"/>
<g filter="url(#filter32_d_2011_4068)">
<rect x="3.44336" y="793.12" width="100.43" height="48.2062" rx="5.73883" fill="#ADB3BC"/>
<path d="M43.6851 824.746H45.2991V811.806H43.694L40.2507 814.281V815.985L43.5416 813.6H43.6851V824.746ZM48.5792 824.746H56.9543V823.293H50.4264L50.8209 823.562V822.818L50.4174 823.562L53.7621 820.11C54.5452 819.303 55.152 818.624 55.5824 818.074C56.0128 817.518 56.3117 817.013 56.4791 816.559C56.6524 816.104 56.7391 815.632 56.7391 815.142V815.124C56.7391 814.425 56.5628 813.803 56.2101 813.259C55.8633 812.715 55.3881 812.288 54.7843 811.977C54.1805 811.66 53.502 811.501 52.7488 811.501C51.9239 811.501 51.1916 811.672 50.5519 812.013C49.9123 812.347 49.4101 812.814 49.0455 813.411C48.6808 814.003 48.4955 814.682 48.4895 815.447L48.5075 815.456L50.0498 815.465L50.0587 815.447C50.0587 814.939 50.1663 814.496 50.3816 814.12C50.5968 813.737 50.8986 813.441 51.2872 813.232C51.6758 813.017 52.1271 812.909 52.6412 812.909C53.1493 812.909 53.5857 813.014 53.9504 813.223C54.315 813.432 54.596 813.716 54.7933 814.075C54.9906 814.434 55.0892 814.84 55.0892 815.294V815.312C55.0892 815.689 55.0264 816.036 54.9009 816.353C54.7753 816.669 54.5572 817.025 54.2463 817.42C53.9354 817.808 53.505 818.301 52.9551 818.899L48.5792 823.634V824.746ZM63.606 824.961C64.4728 824.961 65.2439 824.799 65.9194 824.477C66.595 824.148 67.127 823.699 67.5156 823.132C67.9041 822.564 68.0984 821.921 68.0984 821.204V821.186C68.0984 820.265 67.8055 819.527 67.2196 818.971C66.6398 818.409 65.8776 818.089 64.9331 818.011V817.976C65.4711 817.862 65.9463 817.668 66.3588 817.393C66.7713 817.118 67.0941 816.774 67.3272 816.362C67.5604 815.949 67.677 815.477 67.677 814.945V814.927C67.677 814.269 67.5066 813.692 67.1658 813.196C66.8311 812.694 66.3558 812.303 65.7401 812.022C65.1304 811.735 64.413 811.591 63.588 811.591C62.781 811.591 62.0667 811.738 61.4449 812.031C60.8292 812.323 60.333 812.733 59.9564 813.259C59.5858 813.785 59.3646 814.401 59.2929 815.106L59.2839 815.196H60.8352L60.8442 815.106C60.892 814.67 61.0355 814.293 61.2746 813.976C61.5137 813.659 61.8305 813.417 62.2251 813.25C62.6256 813.077 63.0799 812.99 63.588 812.99C64.1141 812.99 64.5595 813.074 64.9241 813.241C65.2947 813.408 65.5757 813.651 65.767 813.967C65.9583 814.284 66.0539 814.67 66.0539 815.124V815.142C66.0539 815.572 65.9434 815.958 65.7222 816.299C65.501 816.634 65.1931 816.9 64.7986 817.097C64.404 817.288 63.9497 817.384 63.4356 817.384H61.8843V818.747H63.5073C64.416 818.747 65.1333 818.962 65.6594 819.392C66.1914 819.817 66.4575 820.427 66.4575 821.222V821.24C66.4575 821.694 66.3379 822.097 66.0988 822.45C65.8597 822.797 65.5249 823.069 65.0945 823.266C64.6701 823.463 64.1739 823.562 63.606 823.562C62.7452 823.562 62.0427 823.362 61.4987 822.961C60.9548 822.561 60.6499 822.044 60.5841 821.41L60.5752 821.32H59.0239L59.0328 821.428C59.0926 822.109 59.3138 822.716 59.6964 823.248C60.085 823.78 60.611 824.199 61.2746 824.503C61.9381 824.808 62.7153 824.961 63.606 824.961Z" fill="black"/>
</g>
<g filter="url(#filter33_d_2011_4068)">
<rect x="110.759" y="793.12" width="208.893" height="48.2062" rx="5.73883" fill="white"/>
<path d="M195.264 824.916C195.999 824.916 196.657 824.793 197.236 824.548C197.822 824.303 198.286 823.962 198.626 823.526C198.967 823.084 199.137 822.576 199.137 822.002V821.984C199.137 821.29 198.913 820.737 198.465 820.325C198.023 819.912 197.347 819.596 196.438 819.374L194.95 819.016C194.382 818.878 193.97 818.702 193.712 818.487C193.455 818.271 193.327 817.999 193.327 817.671V817.653C193.327 817.366 193.414 817.115 193.587 816.9C193.76 816.684 193.996 816.517 194.295 816.397C194.594 816.272 194.935 816.209 195.318 816.209C195.903 816.209 196.379 816.329 196.743 816.568C197.108 816.807 197.341 817.118 197.443 817.5H198.976C198.904 816.974 198.707 816.517 198.384 816.128C198.067 815.74 197.646 815.441 197.12 815.232C196.6 815.016 196.002 814.909 195.327 814.909C194.645 814.909 194.032 815.031 193.488 815.277C192.944 815.522 192.514 815.856 192.197 816.281C191.886 816.705 191.731 817.186 191.731 817.725V817.733C191.731 818.427 191.943 818.983 192.367 819.401C192.792 819.814 193.455 820.128 194.358 820.343L195.856 820.702C196.453 820.845 196.884 821.033 197.147 821.266C197.41 821.494 197.541 821.772 197.541 822.1V822.118C197.541 822.411 197.446 822.671 197.254 822.898C197.063 823.12 196.8 823.296 196.465 823.427C196.137 823.553 195.754 823.616 195.318 823.616C194.702 823.616 194.203 823.493 193.82 823.248C193.437 823.003 193.18 822.68 193.049 822.28H191.453C191.513 822.812 191.707 823.275 192.036 823.67C192.37 824.064 192.813 824.372 193.363 824.593C193.913 824.808 194.546 824.916 195.264 824.916ZM201.099 827.974H202.66V823.221H202.803C202.982 823.568 203.222 823.867 203.52 824.118C203.825 824.369 204.172 824.566 204.561 824.71C204.955 824.847 205.374 824.916 205.816 824.916C206.635 824.916 207.346 824.71 207.95 824.297C208.56 823.885 209.032 823.305 209.367 822.558C209.702 821.81 209.869 820.932 209.869 819.921V819.903C209.869 818.899 209.702 818.023 209.367 817.276C209.032 816.529 208.56 815.949 207.95 815.537C207.346 815.118 206.635 814.909 205.816 814.909C205.368 814.909 204.952 814.978 204.57 815.115C204.187 815.253 203.846 815.45 203.547 815.707C203.248 815.958 203 816.263 202.803 816.622H202.66V815.079H201.099V827.974ZM205.457 823.535C204.872 823.535 204.366 823.389 203.942 823.096C203.517 822.803 203.192 822.387 202.965 821.849C202.737 821.305 202.624 820.663 202.624 819.921V819.903C202.624 819.156 202.737 818.514 202.965 817.976C203.192 817.438 203.517 817.022 203.942 816.729C204.366 816.436 204.872 816.29 205.457 816.29C206.049 816.29 206.554 816.436 206.973 816.729C207.391 817.016 207.711 817.429 207.932 817.967C208.159 818.505 208.273 819.15 208.273 819.903V819.921C208.273 820.669 208.159 821.314 207.932 821.858C207.711 822.396 207.391 822.812 206.973 823.105C206.554 823.392 206.049 823.535 205.457 823.535ZM214.503 824.916C214.94 824.916 215.34 824.856 215.705 824.737C216.069 824.611 216.395 824.429 216.682 824.19C216.975 823.951 217.223 823.661 217.426 823.32H217.57V824.746H219.13V818.128C219.13 817.458 218.987 816.885 218.7 816.406C218.419 815.922 218.003 815.552 217.453 815.294C216.909 815.037 216.243 814.909 215.454 814.909C214.766 814.909 214.153 815.016 213.615 815.232C213.077 815.441 212.638 815.737 212.297 816.119C211.963 816.496 211.753 816.938 211.67 817.447L211.661 817.5H213.221L213.23 817.473C213.355 817.097 213.603 816.807 213.974 816.604C214.345 816.394 214.82 816.29 215.4 816.29C216.123 816.29 216.664 816.448 217.023 816.765C217.388 817.076 217.57 817.53 217.57 818.128V821.141C217.57 821.601 217.45 822.014 217.211 822.378C216.978 822.743 216.655 823.033 216.243 823.248C215.83 823.457 215.358 823.562 214.826 823.562C214.264 823.562 213.798 823.427 213.427 823.158C213.057 822.883 212.871 822.501 212.871 822.011V821.993C212.871 821.515 213.039 821.144 213.373 820.881C213.714 820.618 214.252 820.465 214.987 820.424L218.35 820.208V818.962L214.799 819.177C213.675 819.243 212.805 819.521 212.19 820.011C211.58 820.495 211.275 821.168 211.275 822.029V822.047C211.275 822.632 211.416 823.141 211.697 823.571C211.983 824.001 212.369 824.333 212.853 824.566C213.343 824.799 213.893 824.916 214.503 824.916ZM225.477 824.916C226.254 824.916 226.918 824.787 227.468 824.53C228.018 824.273 228.46 823.921 228.795 823.472C229.129 823.018 229.363 822.501 229.494 821.921L229.512 821.822L227.97 821.831L227.952 821.885C227.772 822.423 227.477 822.833 227.064 823.114C226.652 823.395 226.12 823.535 225.468 823.535C224.894 823.535 224.395 823.386 223.97 823.087C223.546 822.788 223.217 822.366 222.984 821.822C222.751 821.272 222.634 820.627 222.634 819.886V819.868C222.634 819.138 222.748 818.508 222.975 817.976C223.208 817.438 223.537 817.022 223.961 816.729C224.386 816.436 224.888 816.29 225.468 816.29C226.161 816.29 226.72 816.457 227.145 816.792C227.569 817.127 227.841 817.533 227.961 818.011L227.97 818.038H229.521L229.512 817.985C229.416 817.411 229.198 816.894 228.857 816.433C228.517 815.967 228.062 815.596 227.494 815.321C226.927 815.046 226.251 814.909 225.468 814.909C224.565 814.909 223.782 815.115 223.119 815.528C222.455 815.934 221.941 816.508 221.576 817.249C221.218 817.991 221.038 818.863 221.038 819.868V819.886C221.038 820.908 221.221 821.795 221.585 822.549C221.95 823.302 222.464 823.885 223.128 824.297C223.791 824.71 224.574 824.916 225.477 824.916ZM235.285 824.916C235.853 824.916 236.364 824.844 236.818 824.701C237.279 824.551 237.676 824.354 238.011 824.109C238.346 823.858 238.618 823.58 238.827 823.275C239.042 822.964 239.192 822.644 239.275 822.316L239.293 822.244H237.733L237.697 822.325C237.613 822.516 237.467 822.704 237.258 822.889C237.048 823.075 236.782 823.227 236.46 823.347C236.137 823.466 235.757 823.526 235.321 823.526C234.735 823.526 234.227 823.398 233.796 823.141C233.366 822.877 233.034 822.504 232.801 822.02C232.568 821.529 232.451 820.941 232.451 820.253V819.634C232.451 818.911 232.571 818.301 232.81 817.805C233.049 817.309 233.372 816.935 233.778 816.684C234.191 816.427 234.657 816.299 235.177 816.299C235.697 816.299 236.158 816.421 236.558 816.666C236.959 816.906 237.273 817.27 237.5 817.76C237.727 818.251 237.84 818.875 237.84 819.634V820.253L238.612 819.114H231.662V820.361H239.41V819.751C239.41 818.789 239.239 817.946 238.899 817.222C238.564 816.493 238.08 815.925 237.446 815.519C236.818 815.112 236.065 814.909 235.186 814.909C234.314 814.909 233.551 815.121 232.9 815.546C232.248 815.97 231.743 816.559 231.384 817.312C231.032 818.065 230.855 818.941 230.855 819.939V819.948C230.855 820.959 231.032 821.837 231.384 822.585C231.743 823.326 232.251 823.9 232.909 824.306C233.572 824.713 234.364 824.916 235.285 824.916Z" fill="black"/>
</g>
<g filter="url(#filter34_d_2011_4068)">
<rect x="326.54" y="793.12" width="100.43" height="48.2062" rx="5.73883" fill="#ADB3BC"/>
<path d="M352.468 824.746H354.028V818.756C354.028 818.283 354.136 817.871 354.351 817.518C354.572 817.166 354.874 816.891 355.257 816.693C355.64 816.496 356.079 816.397 356.575 816.397C356.748 816.397 356.91 816.406 357.059 816.424C357.215 816.436 357.373 816.457 357.535 816.487V814.972C357.457 814.96 357.343 814.948 357.194 814.936C357.05 814.918 356.904 814.909 356.754 814.909C356.103 814.909 355.556 815.049 355.113 815.33C354.671 815.611 354.357 816.006 354.172 816.514H354.028V815.079H352.468V824.746ZM362.68 824.916C363.248 824.916 363.759 824.844 364.213 824.701C364.673 824.551 365.071 824.354 365.406 824.109C365.74 823.858 366.012 823.58 366.222 823.275C366.437 822.964 366.586 822.644 366.67 822.316L366.688 822.244H365.128L365.092 822.325C365.008 822.516 364.862 822.704 364.653 822.889C364.443 823.075 364.177 823.227 363.854 823.347C363.532 823.466 363.152 823.526 362.716 823.526C362.13 823.526 361.622 823.398 361.191 823.141C360.761 822.877 360.429 822.504 360.196 822.02C359.963 821.529 359.846 820.941 359.846 820.253V819.634C359.846 818.911 359.966 818.301 360.205 817.805C360.444 817.309 360.767 816.935 361.173 816.684C361.586 816.427 362.052 816.299 362.572 816.299C363.092 816.299 363.553 816.421 363.953 816.666C364.354 816.906 364.667 817.27 364.895 817.76C365.122 818.251 365.235 818.875 365.235 819.634V820.253L366.007 819.114H359.057V820.361H366.805V819.751C366.805 818.789 366.634 817.946 366.293 817.222C365.959 816.493 365.474 815.925 364.841 815.519C364.213 815.112 363.46 814.909 362.581 814.909C361.708 814.909 360.946 815.121 360.295 815.546C359.643 815.97 359.138 816.559 358.779 817.312C358.426 818.065 358.25 818.941 358.25 819.939V819.948C358.25 820.959 358.426 821.837 358.779 822.585C359.138 823.326 359.646 823.9 360.304 824.306C360.967 824.713 361.759 824.916 362.68 824.916ZM372.201 824.817C372.356 824.817 372.509 824.808 372.658 824.79C372.808 824.773 372.957 824.752 373.107 824.728V823.401C372.963 823.413 372.84 823.421 372.739 823.427C372.643 823.433 372.527 823.436 372.389 823.436C371.887 823.436 371.528 823.314 371.313 823.069C371.098 822.818 370.99 822.408 370.99 821.84V816.37H373.107V815.079H370.99V812.577H369.376V815.079H367.852V816.37H369.376V822.235C369.376 823.155 369.597 823.816 370.04 824.217C370.488 824.617 371.209 824.817 372.201 824.817ZM378.216 824.916C378.927 824.916 379.522 824.775 380 824.495C380.485 824.214 380.846 823.816 381.085 823.302H381.229V824.746H382.789V815.079H381.229V820.8C381.229 821.362 381.13 821.849 380.933 822.262C380.736 822.668 380.443 822.982 380.054 823.203C379.666 823.424 379.187 823.535 378.619 823.535C377.848 823.535 377.292 823.323 376.952 822.898C376.617 822.474 376.449 821.828 376.449 820.962V815.079H374.889V821.338C374.889 822.097 375.012 822.746 375.257 823.284C375.508 823.816 375.881 824.223 376.378 824.503C376.874 824.778 377.487 824.916 378.216 824.916ZM385.244 824.746H386.804V818.756C386.804 818.283 386.912 817.871 387.127 817.518C387.348 817.166 387.65 816.891 388.033 816.693C388.415 816.496 388.855 816.397 389.351 816.397C389.524 816.397 389.686 816.406 389.835 816.424C389.991 816.436 390.149 816.457 390.31 816.487V814.972C390.233 814.96 390.119 814.948 389.97 814.936C389.826 814.918 389.68 814.909 389.53 814.909C388.879 814.909 388.332 815.049 387.889 815.33C387.447 815.611 387.133 816.006 386.948 816.514H386.804V815.079H385.244V824.746ZM391.959 824.746H393.519V819.025C393.519 818.457 393.62 817.97 393.824 817.563C394.033 817.157 394.326 816.843 394.702 816.622C395.079 816.4 395.524 816.29 396.039 816.29C396.81 816.29 397.378 816.502 397.742 816.926C398.113 817.345 398.298 817.991 398.298 818.863V824.746H399.858V818.487C399.858 817.339 399.566 816.457 398.98 815.841C398.4 815.22 397.566 814.909 396.478 814.909C395.767 814.909 395.181 815.052 394.72 815.339C394.26 815.62 393.907 816.018 393.662 816.532H393.519V815.079H391.959V824.746Z" fill="black"/>
</g>
</g>
</g>
<defs>
<filter id="filter0_f_2011_4068" x="250.12" y="20.5039" width="11.7" height="13.8795" filterUnits="userSpaceOnUse" color-interpolation-filters="sRGB">
<feFlood flood-opacity="0" result="BackgroundImageFix"/>
<feBlend mode="normal" in="SourceGraphic" in2="BackgroundImageFix" result="shape"/>
<feGaussianBlur stdDeviation="1.76506" result="effect1_foregroundBlur_2011_4068"/>
</filter>
<filter id="filter1_f_2011_4068" x="244.304" y="22.5006" width="7.14047" height="10.5438" filterUnits="userSpaceOnUse" color-interpolation-filters="sRGB">
<feFlood flood-opacity="0" result="BackgroundImageFix"/>
<feBlend mode="normal" in="SourceGraphic" in2="BackgroundImageFix" result="shape"/>
<feGaussianBlur stdDeviation="0.88253" result="effect1_foregroundBlur_2011_4068"/>
</filter>
<filter id="filter2_f_2011_4068" x="244.71" y="28.6316" width="15.3621" height="9.48976" filterUnits="userSpaceOnUse" color-interpolation-filters="sRGB">
<feFlood flood-opacity="0" result="BackgroundImageFix"/>
<feBlend mode="normal" in="SourceGraphic" in2="BackgroundImageFix" result="shape"/>
<feGaussianBlur stdDeviation="1.32379" result="effect1_foregroundBlur_2011_4068"/>
</filter>
<filter id="filter3_b_2011_4068" x="-124.798" y="473.202" width="680.009" height="583.596" filterUnits="userSpaceOnUse" color-interpolation-filters="sRGB">
<feFlood flood-opacity="0" result="BackgroundImageFix"/>
<feGaussianBlur in="BackgroundImageFix" stdDeviation="62.399"/>
<feComposite in2="SourceAlpha" operator="in" result="effect1_backgroundBlur_2011_4068"/>
<feBlend mode="normal" in="SourceGraphic" in2="effect1_backgroundBlur_2011_4068" result="shape"/>
</filter>
<filter id="filter4_d_2011_4068" x="3.44336" y="607.182" width="36.1547" height="49.3539" filterUnits="userSpaceOnUse" color-interpolation-filters="sRGB">
<feFlood flood-opacity="0" result="BackgroundImageFix"/>
<feColorMatrix in="SourceAlpha" type="matrix" values="0 0 0 0 0 0 0 0 0 0 0 0 0 0 0 0 0 0 127 0" result="hardAlpha"/>
<feOffset dy="1.14777"/>
<feColorMatrix type="matrix" values="0 0 0 0 0 0 0 0 0 0 0 0 0 0 0 0 0 0 0.3 0"/>
<feBlend mode="normal" in2="BackgroundImageFix" result="effect1_dropShadow_2011_4068"/>
<feBlend mode="normal" in="SourceGraphic" in2="effect1_dropShadow_2011_4068" result="shape"/>
</filter>
<filter id="filter5_d_2011_4068" x="46.4845" y="607.182" width="36.1547" height="49.3539" filterUnits="userSpaceOnUse" color-interpolation-filters="sRGB">
<feFlood flood-opacity="0" result="BackgroundImageFix"/>
<feColorMatrix in="SourceAlpha" type="matrix" values="0 0 0 0 0 0 0 0 0 0 0 0 0 0 0 0 0 0 127 0" result="hardAlpha"/>
<feOffset dy="1.14777"/>
<feColorMatrix type="matrix" values="0 0 0 0 0 0 0 0 0 0 0 0 0 0 0 0 0 0 0.3 0"/>
<feBlend mode="normal" in2="BackgroundImageFix" result="effect1_dropShadow_2011_4068"/>
<feBlend mode="normal" in="SourceGraphic" in2="effect1_dropShadow_2011_4068" result="shape"/>
</filter>
<filter id="filter6_d_2011_4068" x="89.5258" y="607.182" width="36.1547" height="49.3539" filterUnits="userSpaceOnUse" color-interpolation-filters="sRGB">
<feFlood flood-opacity="0" result="BackgroundImageFix"/>
<feColorMatrix in="SourceAlpha" type="matrix" values="0 0 0 0 0 0 0 0 0 0 0 0 0 0 0 0 0 0 127 0" result="hardAlpha"/>
<feOffset dy="1.14777"/>
<feColorMatrix type="matrix" values="0 0 0 0 0 0 0 0 0 0 0 0 0 0 0 0 0 0 0.3 0"/>
<feBlend mode="normal" in2="BackgroundImageFix" result="effect1_dropShadow_2011_4068"/>
<feBlend mode="normal" in="SourceGraphic" in2="effect1_dropShadow_2011_4068" result="shape"/>
</filter>
<filter id="filter7_d_2011_4068" x="132.567" y="607.182" width="36.1547" height="49.3539" filterUnits="userSpaceOnUse" color-interpolation-filters="sRGB">
<feFlood flood-opacity="0" result="BackgroundImageFix"/>
<feColorMatrix in="SourceAlpha" type="matrix" values="0 0 0 0 0 0 0 0 0 0 0 0 0 0 0 0 0 0 127 0" result="hardAlpha"/>
<feOffset dy="1.14777"/>
<feColorMatrix type="matrix" values="0 0 0 0 0 0 0 0 0 0 0 0 0 0 0 0 0 0 0.3 0"/>
<feBlend mode="normal" in2="BackgroundImageFix" result="effect1_dropShadow_2011_4068"/>
<feBlend mode="normal" in="SourceGraphic" in2="effect1_dropShadow_2011_4068" result="shape"/>
</filter>
<filter id="filter8_d_2011_4068" x="175.608" y="607.182" width="36.1547" height="49.3539" filterUnits="userSpaceOnUse" color-interpolation-filters="sRGB">
<feFlood flood-opacity="0" result="BackgroundImageFix"/>
<feColorMatrix in="SourceAlpha" type="matrix" values="0 0 0 0 0 0 0 0 0 0 0 0 0 0 0 0 0 0 127 0" result="hardAlpha"/>
<feOffset dy="1.14777"/>
<feColorMatrix type="matrix" values="0 0 0 0 0 0 0 0 0 0 0 0 0 0 0 0 0 0 0.3 0"/>
<feBlend mode="normal" in2="BackgroundImageFix" result="effect1_dropShadow_2011_4068"/>
<feBlend mode="normal" in="SourceGraphic" in2="effect1_dropShadow_2011_4068" result="shape"/>
</filter>
<filter id="filter9_d_2011_4068" x="218.65" y="607.182" width="36.1547" height="49.3539" filterUnits="userSpaceOnUse" color-interpolation-filters="sRGB">
<feFlood flood-opacity="0" result="BackgroundImageFix"/>
<feColorMatrix in="SourceAlpha" type="matrix" values="0 0 0 0 0 0 0 0 0 0 0 0 0 0 0 0 0 0 127 0" result="hardAlpha"/>
<feOffset dy="1.14777"/>
<feColorMatrix type="matrix" values="0 0 0 0 0 0 0 0 0 0 0 0 0 0 0 0 0 0 0.3 0"/>
<feBlend mode="normal" in2="BackgroundImageFix" result="effect1_dropShadow_2011_4068"/>
<feBlend mode="normal" in="SourceGraphic" in2="effect1_dropShadow_2011_4068" result="shape"/>
</filter>
<filter id="filter10_d_2011_4068" x="261.691" y="607.182" width="36.1547" height="49.3539" filterUnits="userSpaceOnUse" color-interpolation-filters="sRGB">
<feFlood flood-opacity="0" result="BackgroundImageFix"/>
<feColorMatrix in="SourceAlpha" type="matrix" values="0 0 0 0 0 0 0 0 0 0 0 0 0 0 0 0 0 0 127 0" result="hardAlpha"/>
<feOffset dy="1.14777"/>
<feColorMatrix type="matrix" values="0 0 0 0 0 0 0 0 0 0 0 0 0 0 0 0 0 0 0.3 0"/>
<feBlend mode="normal" in2="BackgroundImageFix" result="effect1_dropShadow_2011_4068"/>
<feBlend mode="normal" in="SourceGraphic" in2="effect1_dropShadow_2011_4068" result="shape"/>
</filter>
<filter id="filter11_d_2011_4068" x="304.732" y="607.182" width="36.1547" height="49.3539" filterUnits="userSpaceOnUse" color-interpolation-filters="sRGB">
<feFlood flood-opacity="0" result="BackgroundImageFix"/>
<feColorMatrix in="SourceAlpha" type="matrix" values="0 0 0 0 0 0 0 0 0 0 0 0 0 0 0 0 0 0 127 0" result="hardAlpha"/>
<feOffset dy="1.14777"/>
<feColorMatrix type="matrix" values="0 0 0 0 0 0 0 0 0 0 0 0 0 0 0 0 0 0 0.3 0"/>
<feBlend mode="normal" in2="BackgroundImageFix" result="effect1_dropShadow_2011_4068"/>
<feBlend mode="normal" in="SourceGraphic" in2="effect1_dropShadow_2011_4068" result="shape"/>
</filter>
<filter id="filter12_d_2011_4068" x="347.773" y="607.182" width="36.1547" height="49.3539" filterUnits="userSpaceOnUse" color-interpolation-filters="sRGB">
<feFlood flood-opacity="0" result="BackgroundImageFix"/>
<feColorMatrix in="SourceAlpha" type="matrix" values="0 0 0 0 0 0 0 0 0 0 0 0 0 0 0 0 0 0 127 0" result="hardAlpha"/>
<feOffset dy="1.14777"/>
<feColorMatrix type="matrix" values="0 0 0 0 0 0 0 0 0 0 0 0 0 0 0 0 0 0 0.3 0"/>
<feBlend mode="normal" in2="BackgroundImageFix" result="effect1_dropShadow_2011_4068"/>
<feBlend mode="normal" in="SourceGraphic" in2="effect1_dropShadow_2011_4068" result="shape"/>
</filter>
<filter id="filter13_d_2011_4068" x="390.814" y="607.182" width="36.1547" height="49.3539" filterUnits="userSpaceOnUse" color-interpolation-filters="sRGB">
<feFlood flood-opacity="0" result="BackgroundImageFix"/>
<feColorMatrix in="SourceAlpha" type="matrix" values="0 0 0 0 0 0 0 0 0 0 0 0 0 0 0 0 0 0 127 0" result="hardAlpha"/>
<feOffset dy="1.14777"/>
<feColorMatrix type="matrix" values="0 0 0 0 0 0 0 0 0 0 0 0 0 0 0 0 0 0 0.3 0"/>
<feBlend mode="normal" in2="BackgroundImageFix" result="effect1_dropShadow_2011_4068"/>
<feBlend mode="normal" in="SourceGraphic" in2="effect1_dropShadow_2011_4068" result="shape"/>
</filter>
<filter id="filter14_d_2011_4068" x="24.9639" y="669.161" width="36.1547" height="49.3539" filterUnits="userSpaceOnUse" color-interpolation-filters="sRGB">
<feFlood flood-opacity="0" result="BackgroundImageFix"/>
<feColorMatrix in="SourceAlpha" type="matrix" values="0 0 0 0 0 0 0 0 0 0 0 0 0 0 0 0 0 0 127 0" result="hardAlpha"/>
<feOffset dy="1.14777"/>
<feColorMatrix type="matrix" values="0 0 0 0 0 0 0 0 0 0 0 0 0 0 0 0 0 0 0.3 0"/>
<feBlend mode="normal" in2="BackgroundImageFix" result="effect1_dropShadow_2011_4068"/>
<feBlend mode="normal" in="SourceGraphic" in2="effect1_dropShadow_2011_4068" result="shape"/>
</filter>
<filter id="filter15_d_2011_4068" x="68.0051" y="669.161" width="36.1547" height="49.3539" filterUnits="userSpaceOnUse" color-interpolation-filters="sRGB">
<feFlood flood-opacity="0" result="BackgroundImageFix"/>
<feColorMatrix in="SourceAlpha" type="matrix" values="0 0 0 0 0 0 0 0 0 0 0 0 0 0 0 0 0 0 127 0" result="hardAlpha"/>
<feOffset dy="1.14777"/>
<feColorMatrix type="matrix" values="0 0 0 0 0 0 0 0 0 0 0 0 0 0 0 0 0 0 0.3 0"/>
<feBlend mode="normal" in2="BackgroundImageFix" result="effect1_dropShadow_2011_4068"/>
<feBlend mode="normal" in="SourceGraphic" in2="effect1_dropShadow_2011_4068" result="shape"/>
</filter>
<filter id="filter16_d_2011_4068" x="111.046" y="669.161" width="36.1547" height="49.3539" filterUnits="userSpaceOnUse" color-interpolation-filters="sRGB">
<feFlood flood-opacity="0" result="BackgroundImageFix"/>
<feColorMatrix in="SourceAlpha" type="matrix" values="0 0 0 0 0 0 0 0 0 0 0 0 0 0 0 0 0 0 127 0" result="hardAlpha"/>
<feOffset dy="1.14777"/>
<feColorMatrix type="matrix" values="0 0 0 0 0 0 0 0 0 0 0 0 0 0 0 0 0 0 0.3 0"/>
<feBlend mode="normal" in2="BackgroundImageFix" result="effect1_dropShadow_2011_4068"/>
<feBlend mode="normal" in="SourceGraphic" in2="effect1_dropShadow_2011_4068" result="shape"/>
</filter>
<filter id="filter17_d_2011_4068" x="154.088" y="669.161" width="36.1547" height="49.3539" filterUnits="userSpaceOnUse" color-interpolation-filters="sRGB">
<feFlood flood-opacity="0" result="BackgroundImageFix"/>
<feColorMatrix in="SourceAlpha" type="matrix" values="0 0 0 0 0 0 0 0 0 0 0 0 0 0 0 0 0 0 127 0" result="hardAlpha"/>
<feOffset dy="1.14777"/>
<feColorMatrix type="matrix" values="0 0 0 0 0 0 0 0 0 0 0 0 0 0 0 0 0 0 0.3 0"/>
<feBlend mode="normal" in2="BackgroundImageFix" result="effect1_dropShadow_2011_4068"/>
<feBlend mode="normal" in="SourceGraphic" in2="effect1_dropShadow_2011_4068" result="shape"/>
</filter>
<filter id="filter18_d_2011_4068" x="197.129" y="669.161" width="36.1547" height="49.3539" filterUnits="userSpaceOnUse" color-interpolation-filters="sRGB">
<feFlood flood-opacity="0" result="BackgroundImageFix"/>
<feColorMatrix in="SourceAlpha" type="matrix" values="0 0 0 0 0 0 0 0 0 0 0 0 0 0 0 0 0 0 127 0" result="hardAlpha"/>
<feOffset dy="1.14777"/>
<feColorMatrix type="matrix" values="0 0 0 0 0 0 0 0 0 0 0 0 0 0 0 0 0 0 0.3 0"/>
<feBlend mode="normal" in2="BackgroundImageFix" result="effect1_dropShadow_2011_4068"/>
<feBlend mode="normal" in="SourceGraphic" in2="effect1_dropShadow_2011_4068" result="shape"/>
</filter>
<filter id="filter19_d_2011_4068" x="240.17" y="669.161" width="36.1547" height="49.3539" filterUnits="userSpaceOnUse" color-interpolation-filters="sRGB">
<feFlood flood-opacity="0" result="BackgroundImageFix"/>
<feColorMatrix in="SourceAlpha" type="matrix" values="0 0 0 0 0 0 0 0 0 0 0 0 0 0 0 0 0 0 127 0" result="hardAlpha"/>
<feOffset dy="1.14777"/>
<feColorMatrix type="matrix" values="0 0 0 0 0 0 0 0 0 0 0 0 0 0 0 0 0 0 0.3 0"/>
<feBlend mode="normal" in2="BackgroundImageFix" result="effect1_dropShadow_2011_4068"/>
<feBlend mode="normal" in="SourceGraphic" in2="effect1_dropShadow_2011_4068" result="shape"/>
</filter>
<filter id="filter20_d_2011_4068" x="283.211" y="669.161" width="36.1547" height="49.3539" filterUnits="userSpaceOnUse" color-interpolation-filters="sRGB">
<feFlood flood-opacity="0" result="BackgroundImageFix"/>
<feColorMatrix in="SourceAlpha" type="matrix" values="0 0 0 0 0 0 0 0 0 0 0 0 0 0 0 0 0 0 127 0" result="hardAlpha"/>
<feOffset dy="1.14777"/>
<feColorMatrix type="matrix" values="0 0 0 0 0 0 0 0 0 0 0 0 0 0 0 0 0 0 0.3 0"/>
<feBlend mode="normal" in2="BackgroundImageFix" result="effect1_dropShadow_2011_4068"/>
<feBlend mode="normal" in="SourceGraphic" in2="effect1_dropShadow_2011_4068" result="shape"/>
</filter>
<filter id="filter21_d_2011_4068" x="326.253" y="669.161" width="36.1547" height="49.3539" filterUnits="userSpaceOnUse" color-interpolation-filters="sRGB">
<feFlood flood-opacity="0" result="BackgroundImageFix"/>
<feColorMatrix in="SourceAlpha" type="matrix" values="0 0 0 0 0 0 0 0 0 0 0 0 0 0 0 0 0 0 127 0" result="hardAlpha"/>
<feOffset dy="1.14777"/>
<feColorMatrix type="matrix" values="0 0 0 0 0 0 0 0 0 0 0 0 0 0 0 0 0 0 0.3 0"/>
<feBlend mode="normal" in2="BackgroundImageFix" result="effect1_dropShadow_2011_4068"/>
<feBlend mode="normal" in="SourceGraphic" in2="effect1_dropShadow_2011_4068" result="shape"/>
</filter>
<filter id="filter22_d_2011_4068" x="369.294" y="669.161" width="36.1547" height="49.3539" filterUnits="userSpaceOnUse" color-interpolation-filters="sRGB">
<feFlood flood-opacity="0" result="BackgroundImageFix"/>
<feColorMatrix in="SourceAlpha" type="matrix" values="0 0 0 0 0 0 0 0 0 0 0 0 0 0 0 0 0 0 127 0" result="hardAlpha"/>
<feOffset dy="1.14777"/>
<feColorMatrix type="matrix" values="0 0 0 0 0 0 0 0 0 0 0 0 0 0 0 0 0 0 0.3 0"/>
<feBlend mode="normal" in2="BackgroundImageFix" result="effect1_dropShadow_2011_4068"/>
<feBlend mode="normal" in="SourceGraphic" in2="effect1_dropShadow_2011_4068" result="shape"/>
</filter>
<filter id="filter23_d_2011_4068" x="3.44336" y="731.141" width="48.2062" height="49.3541" filterUnits="userSpaceOnUse" color-interpolation-filters="sRGB">
<feFlood flood-opacity="0" result="BackgroundImageFix"/>
<feColorMatrix in="SourceAlpha" type="matrix" values="0 0 0 0 0 0 0 0 0 0 0 0 0 0 0 0 0 0 127 0" result="hardAlpha"/>
<feOffset dy="1.14777"/>
<feColorMatrix type="matrix" values="0 0 0 0 0 0 0 0 0 0 0 0 0 0 0 0 0 0 0.3 0"/>
<feBlend mode="normal" in2="BackgroundImageFix" result="effect1_dropShadow_2011_4068"/>
<feBlend mode="normal" in="SourceGraphic" in2="effect1_dropShadow_2011_4068" result="shape"/>
</filter>
<filter id="filter24_d_2011_4068" x="68.0051" y="731.141" width="36.1547" height="49.3541" filterUnits="userSpaceOnUse" color-interpolation-filters="sRGB">
<feFlood flood-opacity="0" result="BackgroundImageFix"/>
<feColorMatrix in="SourceAlpha" type="matrix" values="0 0 0 0 0 0 0 0 0 0 0 0 0 0 0 0 0 0 127 0" result="hardAlpha"/>
<feOffset dy="1.14777"/>
<feColorMatrix type="matrix" values="0 0 0 0 0 0 0 0 0 0 0 0 0 0 0 0 0 0 0.3 0"/>
<feBlend mode="normal" in2="BackgroundImageFix" result="effect1_dropShadow_2011_4068"/>
<feBlend mode="normal" in="SourceGraphic" in2="effect1_dropShadow_2011_4068" result="shape"/>
</filter>
<filter id="filter25_d_2011_4068" x="111.046" y="731.141" width="36.1547" height="49.3541" filterUnits="userSpaceOnUse" color-interpolation-filters="sRGB">
<feFlood flood-opacity="0" result="BackgroundImageFix"/>
<feColorMatrix in="SourceAlpha" type="matrix" values="0 0 0 0 0 0 0 0 0 0 0 0 0 0 0 0 0 0 127 0" result="hardAlpha"/>
<feOffset dy="1.14777"/>
<feColorMatrix type="matrix" values="0 0 0 0 0 0 0 0 0 0 0 0 0 0 0 0 0 0 0.3 0"/>
<feBlend mode="normal" in2="BackgroundImageFix" result="effect1_dropShadow_2011_4068"/>
<feBlend mode="normal" in="SourceGraphic" in2="effect1_dropShadow_2011_4068" result="shape"/>
</filter>
<filter id="filter26_d_2011_4068" x="154.088" y="731.141" width="36.1547" height="49.3541" filterUnits="userSpaceOnUse" color-interpolation-filters="sRGB">
<feFlood flood-opacity="0" result="BackgroundImageFix"/>
<feColorMatrix in="SourceAlpha" type="matrix" values="0 0 0 0 0 0 0 0 0 0 0 0 0 0 0 0 0 0 127 0" result="hardAlpha"/>
<feOffset dy="1.14777"/>
<feColorMatrix type="matrix" values="0 0 0 0 0 0 0 0 0 0 0 0 0 0 0 0 0 0 0.3 0"/>
<feBlend mode="normal" in2="BackgroundImageFix" result="effect1_dropShadow_2011_4068"/>
<feBlend mode="normal" in="SourceGraphic" in2="effect1_dropShadow_2011_4068" result="shape"/>
</filter>
<filter id="filter27_d_2011_4068" x="197.129" y="731.141" width="36.1547" height="49.3541" filterUnits="userSpaceOnUse" color-interpolation-filters="sRGB">
<feFlood flood-opacity="0" result="BackgroundImageFix"/>
<feColorMatrix in="SourceAlpha" type="matrix" values="0 0 0 0 0 0 0 0 0 0 0 0 0 0 0 0 0 0 127 0" result="hardAlpha"/>
<feOffset dy="1.14777"/>
<feColorMatrix type="matrix" values="0 0 0 0 0 0 0 0 0 0 0 0 0 0 0 0 0 0 0.3 0"/>
<feBlend mode="normal" in2="BackgroundImageFix" result="effect1_dropShadow_2011_4068"/>
<feBlend mode="normal" in="SourceGraphic" in2="effect1_dropShadow_2011_4068" result="shape"/>
</filter>
<filter id="filter28_d_2011_4068" x="240.17" y="731.141" width="36.1547" height="49.3541" filterUnits="userSpaceOnUse" color-interpolation-filters="sRGB">
<feFlood flood-opacity="0" result="BackgroundImageFix"/>
<feColorMatrix in="SourceAlpha" type="matrix" values="0 0 0 0 0 0 0 0 0 0 0 0 0 0 0 0 0 0 127 0" result="hardAlpha"/>
<feOffset dy="1.14777"/>
<feColorMatrix type="matrix" values="0 0 0 0 0 0 0 0 0 0 0 0 0 0 0 0 0 0 0.3 0"/>
<feBlend mode="normal" in2="BackgroundImageFix" result="effect1_dropShadow_2011_4068"/>
<feBlend mode="normal" in="SourceGraphic" in2="effect1_dropShadow_2011_4068" result="shape"/>
</filter>
<filter id="filter29_d_2011_4068" x="283.211" y="731.141" width="36.1547" height="49.3541" filterUnits="userSpaceOnUse" color-interpolation-filters="sRGB">
<feFlood flood-opacity="0" result="BackgroundImageFix"/>
<feColorMatrix in="SourceAlpha" type="matrix" values="0 0 0 0 0 0 0 0 0 0 0 0 0 0 0 0 0 0 127 0" result="hardAlpha"/>
<feOffset dy="1.14777"/>
<feColorMatrix type="matrix" values="0 0 0 0 0 0 0 0 0 0 0 0 0 0 0 0 0 0 0.3 0"/>
<feBlend mode="normal" in2="BackgroundImageFix" result="effect1_dropShadow_2011_4068"/>
<feBlend mode="normal" in="SourceGraphic" in2="effect1_dropShadow_2011_4068" result="shape"/>
</filter>
<filter id="filter30_d_2011_4068" x="326.253" y="731.141" width="36.1547" height="49.3541" filterUnits="userSpaceOnUse" color-interpolation-filters="sRGB">
<feFlood flood-opacity="0" result="BackgroundImageFix"/>
<feColorMatrix in="SourceAlpha" type="matrix" values="0 0 0 0 0 0 0 0 0 0 0 0 0 0 0 0 0 0 127 0" result="hardAlpha"/>
<feOffset dy="1.14777"/>
<feColorMatrix type="matrix" values="0 0 0 0 0 0 0 0 0 0 0 0 0 0 0 0 0 0 0.3 0"/>
<feBlend mode="normal" in2="BackgroundImageFix" result="effect1_dropShadow_2011_4068"/>
<feBlend mode="normal" in="SourceGraphic" in2="effect1_dropShadow_2011_4068" result="shape"/>
</filter>
<filter id="filter31_d_2011_4068" x="378.763" y="731.141" width="48.2062" height="49.3541" filterUnits="userSpaceOnUse" color-interpolation-filters="sRGB">
<feFlood flood-opacity="0" result="BackgroundImageFix"/>
<feColorMatrix in="SourceAlpha" type="matrix" values="0 0 0 0 0 0 0 0 0 0 0 0 0 0 0 0 0 0 127 0" result="hardAlpha"/>
<feOffset dy="1.14777"/>
<feColorMatrix type="matrix" values="0 0 0 0 0 0 0 0 0 0 0 0 0 0 0 0 0 0 0.3 0"/>
<feBlend mode="normal" in2="BackgroundImageFix" result="effect1_dropShadow_2011_4068"/>
<feBlend mode="normal" in="SourceGraphic" in2="effect1_dropShadow_2011_4068" result="shape"/>
</filter>
<filter id="filter32_d_2011_4068" x="3.44336" y="793.12" width="100.43" height="49.3541" filterUnits="userSpaceOnUse" color-interpolation-filters="sRGB">
<feFlood flood-opacity="0" result="BackgroundImageFix"/>
<feColorMatrix in="SourceAlpha" type="matrix" values="0 0 0 0 0 0 0 0 0 0 0 0 0 0 0 0 0 0 127 0" result="hardAlpha"/>
<feOffset dy="1.14777"/>
<feColorMatrix type="matrix" values="0 0 0 0 0 0 0 0 0 0 0 0 0 0 0 0 0 0 0.3 0"/>
<feBlend mode="normal" in2="BackgroundImageFix" result="effect1_dropShadow_2011_4068"/>
<feBlend mode="normal" in="SourceGraphic" in2="effect1_dropShadow_2011_4068" result="shape"/>
</filter>
<filter id="filter33_d_2011_4068" x="110.759" y="793.12" width="208.893" height="49.3541" filterUnits="userSpaceOnUse" color-interpolation-filters="sRGB">
<feFlood flood-opacity="0" result="BackgroundImageFix"/>
<feColorMatrix in="SourceAlpha" type="matrix" values="0 0 0 0 0 0 0 0 0 0 0 0 0 0 0 0 0 0 127 0" result="hardAlpha"/>
<feOffset dy="1.14777"/>
<feColorMatrix type="matrix" values="0 0 0 0 0 0 0 0 0 0 0 0 0 0 0 0 0 0 0.3 0"/>
<feBlend mode="normal" in2="BackgroundImageFix" result="effect1_dropShadow_2011_4068"/>
<feBlend mode="normal" in="SourceGraphic" in2="effect1_dropShadow_2011_4068" result="shape"/>
</filter>
<filter id="filter34_d_2011_4068" x="326.54" y="793.12" width="100.43" height="49.3541" filterUnits="userSpaceOnUse" color-interpolation-filters="sRGB">
<feFlood flood-opacity="0" result="BackgroundImageFix"/>
<feColorMatrix in="SourceAlpha" type="matrix" values="0 0 0 0 0 0 0 0 0 0 0 0 0 0 0 0 0 0 127 0" result="hardAlpha"/>
<feOffset dy="1.14777"/>
<feColorMatrix type="matrix" values="0 0 0 0 0 0 0 0 0 0 0 0 0 0 0 0 0 0 0.3 0"/>
<feBlend mode="normal" in2="BackgroundImageFix" result="effect1_dropShadow_2011_4068"/>
<feBlend mode="normal" in="SourceGraphic" in2="effect1_dropShadow_2011_4068" result="shape"/>
</filter>
<radialGradient id="paint0_radial_2011_4068" cx="0" cy="0" r="1" gradientUnits="userSpaceOnUse" gradientTransform="translate(252.391 29.6015) rotate(90) scale(10.9058)">
<stop offset="0.684883" stop-color="#0D0E10"/>
<stop offset="1" stop-color="#1A1B1D"/>
</radialGradient>
<clipPath id="clip0_2011_4068">
<rect width="430" height="932" fill="white"/>
</clipPath>
<clipPath id="clip1_2011_4068">
<rect width="430" height="57.6449" fill="white"/>
</clipPath>
<clipPath id="clip2_2011_4068">
<rect width="18" height="18" fill="white" transform="translate(325 159)"/>
</clipPath>
</defs>
</svg>
